<svg width="30" height="29" viewBox="0 0 30 29" fill="none" xmlns="http://www.w3.org/2000/svg">
<path d="M29 6.25C29 9.14949 22.732 11.5 15 11.5C7.26801 11.5 1 9.14949 1 6.25M29 6.25C29 3.35051 22.732 1 15 1C7.26801 1 1 3.35051 1 6.25M29 6.25V22C29 24.8995 22.732 27.25 15 27.25C7.26801 27.25 1 24.8995 1 22V6.25M29 14.125C29 17.0245 22.732 19.375 15 19.375C7.26801 19.375 1 17.0245 1 14.125" stroke="#5B5B5B" style="stroke:#5B5B5B;stroke:color(display-p3 0.3569 0.3569 0.3569);stroke-opacity:1;" stroke-width="2"/>
</svg>
