<svg width="20" height="23" viewBox="0 0 20 23" fill="none" xmlns="http://www.w3.org/2000/svg">
<path d="M8.343 6.98682L5.71085 6.98682C4.72781 6.98682 3.77637 7.42121 3.07866 8.21775C2.38096 9.0143 1.98456 10.0823 2.00046 11.2228C1.98452 12.3633 2.38107 13.4314 3.07866 14.2278C3.79217 15.0424 4.71185 15.4769 5.69493 15.477H8.32708M11.657 15.5131H14.2892C15.2722 15.5131 16.2236 15.0787 16.9213 14.2822C17.619 13.4856 18.0154 12.4177 17.9995 11.2771C17.9995 10.1549 17.6031 9.08681 16.9054 8.29026C16.2077 7.49372 15.2722 7.04118 14.2892 7.04116H11.657M6.0437 11.2104L13.9402 11.2104" stroke="black" style="stroke:black;stroke-opacity:1;" stroke-linecap="round" stroke-linejoin="round"/>
</svg>
