<svg width="24" height="27" viewBox="0 0 24 27" fill="none" xmlns="http://www.w3.org/2000/svg">
<path d="M9.79517 8.38428L6.70488 8.38428C5.55074 8.38428 4.4337 8.90555 3.61456 9.8614C2.79541 10.8173 2.33002 12.0989 2.34869 13.4675C2.32997 14.836 2.79554 16.1178 3.61455 17.0735C4.45225 18.051 5.53201 18.5724 6.68619 18.5724H9.77648M13.686 18.6159H16.7763C17.9304 18.6159 19.0475 18.0946 19.8666 17.1387C20.6857 16.1829 21.1511 14.9013 21.1325 13.5327C21.1325 12.1859 20.6671 10.9043 19.8479 9.94841C19.0288 8.99256 17.9305 8.44951 16.7763 8.44949H13.686M7.09567 13.4526L16.3665 13.4526" stroke="black" style="stroke:black;stroke-opacity:1;" stroke-linecap="round" stroke-linejoin="round"/>
</svg>
