<svg width="26" height="26" viewBox="0 0 26 26" fill="none" xmlns="http://www.w3.org/2000/svg">
<path d="M21.75 1.75C23.1307 1.75 24.25 2.85395 24.25 4.21575L24.25 8.42491C24.25 9.7867 23.1307 10.8907 21.75 10.8907H18C16.6193 10.8907 15.5 9.7867 15.5 8.4249L15.5 4.21575C15.5 2.85395 16.6193 1.75 18 1.75L21.75 1.75Z" stroke="#BBBBBB" style="stroke:#BBBBBB;stroke:color(display-p3 0.7333 0.7333 0.7333);stroke-opacity:1;" stroke-width="2" stroke-linecap="round" stroke-linejoin="round"/>
<path d="M4.25 1.75C2.86929 1.75 1.75 2.85395 1.75 4.21575L1.75001 8.42491C1.75001 9.7867 2.8693 10.8907 4.25001 10.8907H8.00001C9.38072 10.8907 10.5 9.7867 10.5 8.4249L10.5 4.21575C10.5 2.85395 9.38071 1.75 8 1.75L4.25 1.75Z" stroke="#BBBBBB" style="stroke:#BBBBBB;stroke:color(display-p3 0.7333 0.7333 0.7333);stroke-opacity:1;" stroke-width="2" stroke-linecap="round" stroke-linejoin="round"/>
<path d="M21.75 15.1094C23.1307 15.1094 24.25 16.2133 24.25 17.5751V21.7842C24.25 23.146 23.1307 24.25 21.75 24.25H18C16.6193 24.25 15.5 23.146 15.5 21.7842L15.5 17.5751C15.5 16.2133 16.6193 15.1094 18 15.1094H21.75Z" stroke="#BBBBBB" style="stroke:#BBBBBB;stroke:color(display-p3 0.7333 0.7333 0.7333);stroke-opacity:1;" stroke-width="2" stroke-linecap="round" stroke-linejoin="round"/>
<path d="M4.25001 15.1094C2.8693 15.1094 1.75001 16.2133 1.75001 17.5751L1.75001 21.7842C1.75001 23.146 2.8693 24.25 4.25001 24.25H8.00001C9.38072 24.25 10.5 23.146 10.5 21.7842L10.5 17.5751C10.5 16.2133 9.38072 15.1094 8.00001 15.1094H4.25001Z" stroke="#BBBBBB" style="stroke:#BBBBBB;stroke:color(display-p3 0.7333 0.7333 0.7333);stroke-opacity:1;" stroke-width="2" stroke-linecap="round" stroke-linejoin="round"/>
</svg>
