<svg width="242" height="324" viewBox="0 0 242 324" fill="none" xmlns="http://www.w3.org/2000/svg">
<path d="M113.152 300.061C137.485 300.061 157.211 288.625 157.211 274.519C157.211 260.413 137.485 248.978 113.152 248.978C88.8199 248.978 69.0944 260.413 69.0944 274.519C69.0944 288.625 88.8199 300.061 113.152 300.061Z" fill="#E0E0E0" style="fill:#E0E0E0;fill:color(display-p3 0.8784 0.8784 0.8784);fill-opacity:1;"/>
<path d="M187.847 323.778C217.309 323.778 241.193 309.934 241.193 292.856C241.193 275.777 217.309 261.933 187.847 261.933C158.385 261.933 134.501 275.777 134.501 292.856C134.501 309.934 158.385 323.778 187.847 323.778Z" fill="#E0E0E0" style="fill:#E0E0E0;fill:color(display-p3 0.8784 0.8784 0.8784);fill-opacity:1;"/>
<path d="M128.274 264.745C128.274 262.499 126.807 260.253 123.854 258.555C117.957 255.132 108.392 255.132 102.496 258.555C99.5431 260.262 98.0668 262.508 98.0668 264.745V271.671C98.0668 273.917 99.5431 276.163 102.496 277.87C108.392 281.284 117.957 281.284 123.854 277.87C126.807 276.154 128.274 273.917 128.274 271.671V264.745Z" fill="#263238" style="fill:#263238;fill:color(display-p3 0.1490 0.1961 0.2196);fill-opacity:1;"/>
<path d="M123.89 265.481C129.786 268.904 129.786 274.465 123.89 277.87C117.993 281.275 108.428 281.284 102.532 277.87C96.6352 274.456 96.6262 268.886 102.532 265.481C108.437 262.076 117.993 262.067 123.89 265.481Z" fill="#37474F" style="fill:#37474F;fill:color(display-p3 0.2157 0.2784 0.3098);fill-opacity:1;"/>
<path d="M128.31 264.745H98.1025V271.671H128.31V264.745Z" fill="#37474F" style="fill:#37474F;fill:color(display-p3 0.2157 0.2784 0.3098);fill-opacity:1;"/>
<path d="M123.89 258.582C129.786 261.996 129.786 267.566 123.89 270.962C117.993 274.357 108.428 274.384 102.532 270.962C96.6352 267.539 96.6262 261.978 102.532 258.582C108.437 255.186 117.993 255.132 123.89 258.582Z" fill="#455A64" style="fill:#455A64;fill:color(display-p3 0.2706 0.3529 0.3922);fill-opacity:1;"/>
<path d="M118.235 260.127C121.017 261.735 121.017 264.349 118.235 265.957C116.676 266.751 114.954 267.164 113.206 267.164C111.459 267.164 109.736 266.751 108.178 265.957C105.404 264.349 105.404 261.735 108.178 260.127C109.736 259.334 111.459 258.92 113.206 258.92C114.954 258.92 116.676 259.334 118.235 260.127Z" fill="#263238" style="fill:#263238;fill:color(display-p3 0.1490 0.1961 0.2196);fill-opacity:1;"/>
<path d="M120.32 132.276H106.093V263.047H120.32V132.276Z" fill="#263238" style="fill:#263238;fill:color(display-p3 0.1490 0.1961 0.2196);fill-opacity:1;"/>
<path d="M171.303 71.8857V71.7868C171.169 71.0412 171.008 70.2865 170.82 69.5319C170.845 69.6116 170.866 69.6925 170.882 69.7744C170.766 69.2623 170.632 68.7503 170.489 68.2382C170.542 68.4268 170.587 68.6155 170.632 68.8042C170.489 68.2382 170.328 67.6812 170.158 67.1152C170.238 67.3577 170.319 67.6093 170.381 67.8519C170.292 67.5284 170.194 67.205 170.095 66.8816L169.934 66.3695V66.2976V66.3515C168.732 62.6878 167.148 59.1615 165.21 55.8313C165.147 55.7145 165.084 55.5977 165.013 55.4809C160.136 47.1528 153.068 39.5434 145.176 34.8178L144.791 34.5842C142.528 33.2645 140.128 32.198 137.633 31.4039C135.56 30.7454 133.401 30.3973 131.227 30.3707H130.475H130.019C129.643 30.3707 129.276 30.4426 128.918 30.4965H128.587L127.979 30.6133C127.719 30.6672 127.46 30.7301 127.209 30.802L126.511 31.0086C126.511 31.0086 126.511 31.0086 126.466 31.0086L125.769 31.2601C125.536 31.359 125.303 31.4578 125.089 31.5656L123.55 32.464L46.0542 77.3839H45.9915C41.7951 79.7466 39.254 84.571 39.254 91.4258V133.749L10.0937 149.92C7.20475 151.519 4.79076 153.86 3.09869 156.704C1.40663 159.547 0.497234 162.79 0.463556 166.102C0.429878 169.414 1.27313 172.676 2.90703 175.553C4.54092 178.431 6.90681 180.821 9.76261 182.478C17.8829 187.181 27.0924 189.657 36.4668 189.657C45.8412 189.657 55.0507 187.181 63.171 182.478L93.3782 165.409L171.876 119.869V77.5366C171.853 75.6396 171.662 73.7484 171.303 71.8857Z" fill="#15AA9B" style="fill:#15AA9B;fill:color(display-p3 0.0816 0.6675 0.6097);fill-opacity:1;"/>
<path d="M44.7121 130.811V83.5288L94.5683 54.9059L99.06 98.6219L44.7121 130.811Z" fill="#15AA9B" style="fill:#15AA9B;fill:color(display-p3 0.0816 0.6675 0.6097);fill-opacity:1;"/>
<path opacity="0.5" d="M44.7121 130.811V83.5288L94.5683 54.9059L99.06 98.6219L44.7121 130.811Z" fill="black" style="fill:black;fill-opacity:1;"/>
<path d="M44.7121 130.812L99.06 98.6219V150.073L87.8218 155.805L44.7121 130.812Z" fill="#15AA9B" style="fill:#15AA9B;fill:color(display-p3 0.0816 0.6675 0.6097);fill-opacity:1;"/>
<path opacity="0.3" d="M44.7121 130.812L99.06 98.6219V150.073L87.8218 155.805L44.7121 130.812Z" fill="black" style="fill:black;fill-opacity:1;"/>
<path d="M171.312 71.8856L166.158 74.7336L134.788 91.9738L129.115 95.0733L89.9066 116.635C87.4192 112.412 80.959 92.7105 77.5141 89.1438C74.1955 85.6393 70.4071 82.6156 66.258 80.1599C61.3368 77.303 56.7288 75.9464 52.7471 75.9464C50.4044 75.8981 48.0883 76.4517 46.0185 77.5545L123.523 32.6346L125.062 31.7363C125.277 31.6284 125.509 31.5296 125.742 31.4308L126.44 31.1792C126.44 31.1792 126.44 31.1792 126.484 31.1792L127.182 30.9726C127.433 30.9007 127.692 30.8379 127.952 30.784L128.56 30.6672H128.891C129.249 30.6133 129.616 30.5683 129.992 30.5414H130.448H131.2C133.374 30.5679 135.533 30.9161 137.606 31.5745C140.101 32.3687 142.501 33.4352 144.764 34.7549L145.149 34.9885C158.114 42.5799 168.869 58.1312 171.312 71.8856Z" fill="#15AA9B" style="fill:#15AA9B;fill:color(display-p3 0.0816 0.6675 0.6097);fill-opacity:1;"/>
<g opacity="0.3">
<path d="M171.312 71.8856L166.158 74.7336L134.788 91.9738L129.115 95.0733L89.9065 116.635C87.4191 112.412 80.9589 92.7105 77.5141 89.1438C74.1954 85.6393 70.407 82.6156 66.258 80.1599C61.3368 77.303 56.7287 75.9464 52.747 75.9464C50.4043 75.8981 48.0882 76.4517 46.0184 77.5545L123.523 32.6346L125.062 31.7363C125.277 31.6284 125.509 31.5296 125.742 31.4308L126.44 31.1792C126.44 31.1792 126.44 31.1792 126.484 31.1792L127.182 30.9726C127.433 30.9007 127.692 30.8379 127.952 30.784L128.56 30.6672H128.891C129.249 30.6133 129.616 30.5683 129.992 30.5414H130.448H131.2C133.374 30.5679 135.533 30.9161 137.606 31.5745C140.101 32.3687 142.501 33.4352 144.764 34.7549L145.149 34.9885C158.114 42.5799 168.869 58.1312 171.312 71.8856Z" fill="black" style="fill:black;fill-opacity:1;"/>
</g>
<path d="M164.959 55.5438C165.031 55.6516 165.102 55.7684 165.165 55.8852C165.129 55.7415 165.067 55.6247 164.959 55.5438Z" fill="#15AA9B" style="fill:#15AA9B;fill:color(display-p3 0.0816 0.6675 0.6097);fill-opacity:1;"/>
<path d="M169.12 64.0786C170.09 66.6073 170.823 69.2208 171.312 71.8857L166.158 74.7336L134.788 91.9739L129.115 95.0733L89.9065 116.635L93.3782 165.409L171.876 119.869V77.5366C171.771 72.9207 170.837 68.3617 169.12 64.0786Z" fill="#15AA9B" style="fill:#15AA9B;fill:color(display-p3 0.0816 0.6675 0.6097);fill-opacity:1;"/>
<path d="M167.957 61.2576C167.626 60.5209 167.277 59.7753 166.91 59.0386C167.277 59.7753 167.644 60.5209 167.957 61.2576Z" fill="#15AA9B" style="fill:#15AA9B;fill:color(display-p3 0.0816 0.6675 0.6097);fill-opacity:1;"/>
<path d="M165.55 56.4423C165.926 57.125 166.301 57.8078 166.65 58.4996C166.301 57.8438 165.935 57.161 165.55 56.4423Z" fill="#15AA9B" style="fill:#15AA9B;fill:color(display-p3 0.0816 0.6675 0.6097);fill-opacity:1;"/>
<g opacity="0.5">
<path d="M164.959 55.5437C165.031 55.6515 165.102 55.7683 165.165 55.8851C165.129 55.7414 165.067 55.6246 164.959 55.5437Z" fill="black" style="fill:black;fill-opacity:1;"/>
<path d="M169.12 64.0785C170.09 66.6071 170.823 69.2207 171.312 71.8856L166.158 74.7335L134.788 91.9737L129.115 95.0732L89.9065 116.635L93.3782 165.409L171.876 119.869V77.5365C171.771 72.9206 170.837 68.3615 169.12 64.0785Z" fill="black" style="fill:black;fill-opacity:1;"/>
<path d="M167.957 61.2576C167.625 60.5209 167.277 59.7753 166.91 59.0386C167.277 59.7753 167.643 60.5209 167.957 61.2576Z" fill="black" style="fill:black;fill-opacity:1;"/>
<path d="M165.55 56.4421C165.926 57.1249 166.301 57.8077 166.65 58.4995C166.301 57.8436 165.935 57.1609 165.55 56.4421Z" fill="black" style="fill:black;fill-opacity:1;"/>
</g>
<path d="M52.7471 81.5345C55.8698 81.5345 59.5921 82.7294 63.4843 85.0023C76.6641 92.6387 87.8039 110.077 87.8039 123.085V155.805L44.6943 130.812V91.6864C44.6943 83.2954 49.0607 81.5345 52.7471 81.5345ZM52.7471 75.9824C44.6406 75.9824 39.1915 81.6154 39.1915 91.6864V134.01L93.3425 165.454V123.085C93.3425 108.064 81.2185 88.8654 66.267 80.1959C61.3458 77.348 56.7199 75.9824 52.7471 75.9824Z" fill="#15AA9B" style="fill:#15AA9B;fill:color(display-p3 0.0816 0.6675 0.6097);fill-opacity:1;"/>
<path d="M39.1914 134.01L10.0311 150.181C7.14219 151.78 4.7282 154.121 3.03613 156.964C1.34407 159.807 0.434673 163.051 0.400995 166.363C0.367317 169.675 1.21057 172.937 2.84446 175.814C4.47836 178.691 6.84425 181.081 9.70005 182.739C17.8203 187.442 27.0298 189.918 36.4042 189.918C45.7786 189.918 54.9881 187.442 63.1084 182.739L93.3783 165.409L39.1914 134.01Z" fill="#15AA9B" style="fill:#15AA9B;fill:color(display-p3 0.0816 0.6675 0.6097);fill-opacity:1;"/>
<path opacity="0.2" d="M39.1914 134.01L10.0311 150.181C7.14219 151.78 4.7282 154.121 3.03613 156.964C1.34407 159.807 0.434673 163.051 0.400995 166.363C0.367317 169.675 1.21057 172.937 2.84446 175.814C4.47836 178.691 6.84425 181.081 9.70005 182.739C17.8203 187.442 27.0298 189.918 36.4042 189.918C45.7786 189.918 54.9881 187.442 63.1084 182.739L93.3783 165.409L39.1914 134.01Z" fill="white" style="fill:white;fill-opacity:1;"/>
<path d="M111.408 152.517L105.323 156.039V97.0588L111.408 93.5281V152.517Z" fill="#E0E0E0" style="fill:#E0E0E0;fill:color(display-p3 0.8784 0.8784 0.8784);fill-opacity:1;"/>
<path d="M122.896 98.658L105.323 108.837V97.0588L122.896 86.871V98.658Z" fill="#E0E0E0" style="fill:#E0E0E0;fill:color(display-p3 0.8784 0.8784 0.8784);fill-opacity:1;"/>
<path d="M114.029 150.442C113.922 152.43 113.349 154.366 112.357 156.091C111.366 157.816 109.983 159.281 108.321 160.369C105.162 162.166 102.603 160.719 102.603 157.063C102.718 155.081 103.295 153.154 104.288 151.437C105.281 149.72 106.663 148.262 108.321 147.18C111.47 145.303 114.029 146.785 114.029 150.442Z" fill="#15AA9B" style="fill:#15AA9B;fill:color(display-p3 0.0816 0.6675 0.6097);fill-opacity:1;"/>
<path opacity="0.2" d="M114.029 150.442C113.922 152.43 113.349 154.366 112.357 156.091C111.366 157.816 109.983 159.281 108.321 160.369C105.162 162.166 102.603 160.719 102.603 157.063C102.718 155.081 103.295 153.154 104.288 151.437C105.281 149.72 106.663 148.262 108.321 147.18C111.47 145.303 114.029 146.785 114.029 150.442Z" fill="black" style="fill:black;fill-opacity:1;"/>
<path d="M115.926 151.547C115.813 153.528 115.237 155.455 114.246 157.171C113.254 158.888 111.874 160.346 110.218 161.429C107.068 163.226 104.509 161.77 104.509 158.114C104.619 156.126 105.192 154.191 106.184 152.466C107.176 150.742 108.557 149.276 110.218 148.187C113.376 146.408 115.926 147.89 115.926 151.547Z" fill="#15AA9B" style="fill:#15AA9B;fill:color(display-p3 0.0816 0.6675 0.6097);fill-opacity:1;"/>
<path d="M180.323 247.218L166.163 246.856L165.433 275.64L179.592 276.002L180.323 247.218Z" fill="#B17F7E" style="fill:#B17F7E;fill:color(display-p3 0.6925 0.4992 0.4925);fill-opacity:1;"/>
<path d="M161.72 131.638C161.72 131.638 160.727 180.619 161.067 200.024C161.327 214.641 163.599 258.42 163.599 258.42C163.599 258.42 172.78 264.439 182.452 259.408C182.452 259.408 188.035 215.189 186.675 201.866C186.501 200.25 186.501 198.621 186.675 197.005L195.211 122.852L161.72 131.638Z" fill="#37474F" style="fill:#37474F;fill:color(display-p3 0.2157 0.2784 0.3098);fill-opacity:1;"/>
<path d="M170.328 271.653C170.328 271.653 178.175 270.755 179.759 268.186V266.514C179.759 266.514 181.119 267.242 180.859 270.009C180.627 272.579 181.647 276.954 181.799 282.29C181.809 282.726 181.716 283.157 181.53 283.551C181.344 283.944 181.068 284.288 180.725 284.554C179.204 285.731 175.992 287.537 170.328 287.78C168.342 287.869 160.396 292.981 153.784 292.981C147.171 292.981 142.85 289.693 142.85 285.093C142.85 280.494 156.334 276.334 156.334 276.334L162.812 270.045C162.812 270.045 161.55 263.19 165.675 264.834C169.8 266.479 170.328 268.185 170.328 271.653Z" fill="#37474F" style="fill:#37474F;fill:color(display-p3 0.2157 0.2784 0.3098);fill-opacity:1;"/>
<path d="M168.896 275.651C168.809 275.651 168.723 275.624 168.653 275.572C168.582 275.52 168.529 275.447 168.503 275.364C167.125 271.222 162.821 270.458 162.776 270.449C162.723 270.441 162.671 270.421 162.625 270.393C162.579 270.364 162.539 270.327 162.508 270.282C162.476 270.238 162.453 270.188 162.441 270.135C162.429 270.082 162.427 270.027 162.436 269.973C162.456 269.866 162.516 269.77 162.605 269.707C162.693 269.643 162.803 269.616 162.91 269.632C164.352 269.914 165.697 270.566 166.813 271.525C167.93 272.484 168.78 273.717 169.281 275.103C169.315 275.207 169.307 275.32 169.258 275.417C169.21 275.515 169.125 275.589 169.022 275.624L168.896 275.651Z" fill="#FAFAFA" style="fill:#FAFAFA;fill:color(display-p3 0.9804 0.9804 0.9804);fill-opacity:1;"/>
<path d="M166.31 278.22C166.224 278.218 166.139 278.19 166.069 278.138C165.999 278.087 165.946 278.015 165.917 277.933C164.548 273.809 160.235 273.028 160.19 273.019C160.137 273.01 160.086 272.991 160.04 272.962C159.995 272.933 159.955 272.896 159.924 272.851C159.893 272.807 159.872 272.756 159.861 272.703C159.849 272.65 159.849 272.596 159.859 272.543C159.868 272.489 159.887 272.437 159.916 272.391C159.944 272.345 159.982 272.305 160.026 272.273C160.07 272.241 160.12 272.219 160.172 272.206C160.225 272.194 160.28 272.192 160.333 272.201C161.775 272.483 163.12 273.136 164.236 274.094C165.353 275.053 166.203 276.286 166.704 277.672C166.721 277.724 166.727 277.779 166.723 277.833C166.718 277.888 166.703 277.941 166.678 277.989C166.653 278.038 166.619 278.081 166.577 278.116C166.536 278.151 166.488 278.177 166.436 278.194C166.396 278.212 166.354 278.221 166.31 278.22Z" fill="#FAFAFA" style="fill:#FAFAFA;fill:color(display-p3 0.9804 0.9804 0.9804);fill-opacity:1;"/>
<path d="M164.065 280.449C163.979 280.449 163.896 280.422 163.827 280.372C163.758 280.322 163.706 280.251 163.68 280.17C162.311 276.037 157.998 275.256 157.953 275.247C157.895 275.245 157.838 275.23 157.785 275.204C157.733 275.178 157.687 275.141 157.65 275.095C157.613 275.05 157.586 274.997 157.571 274.94C157.556 274.883 157.553 274.824 157.562 274.766C157.572 274.708 157.594 274.653 157.626 274.604C157.659 274.555 157.702 274.514 157.751 274.483C157.801 274.452 157.857 274.432 157.915 274.424C157.973 274.416 158.032 274.421 158.088 274.438C159.531 274.718 160.876 275.369 161.993 276.328C163.11 277.288 163.959 278.522 164.458 279.909C164.492 280.013 164.484 280.126 164.436 280.224C164.387 280.321 164.302 280.396 164.199 280.431L164.065 280.449Z" fill="#FAFAFA" style="fill:#FAFAFA;fill:color(display-p3 0.9804 0.9804 0.9804);fill-opacity:1;"/>
<path d="M142.886 285.093C142.886 289.639 147.118 292.9 153.623 292.972L162.884 289.244C162.884 279.604 156.388 276.334 156.388 276.334C156.388 276.334 142.886 280.503 142.886 285.093Z" fill="#EBEBEB" style="fill:#EBEBEB;fill:color(display-p3 0.9216 0.9216 0.9216);fill-opacity:1;"/>
<path d="M181.602 282.686C180.018 283.916 176.654 285.812 170.731 286.073C168.646 286.162 160.342 291.463 153.426 291.463C148.684 291.463 145.069 289.846 143.261 287.267C144.433 290.672 148.335 292.936 153.82 292.936C160.432 292.936 168.377 287.824 170.364 287.735C176.028 287.492 179.24 285.686 180.761 284.509C181.076 284.263 181.334 283.95 181.516 283.593C181.698 283.236 181.801 282.844 181.817 282.443C181.751 282.529 181.679 282.61 181.602 282.686Z" fill="#263238" style="fill:#263238;fill:color(display-p3 0.1490 0.1961 0.2196);fill-opacity:1;"/>
<path d="M169.925 138.493C169.925 138.493 171.223 149.579 179.687 155.437L187.158 193.052L191.954 146.021L169.925 138.493Z" fill="#263238" style="fill:#263238;fill:color(display-p3 0.1490 0.1961 0.2196);fill-opacity:1;"/>
<path d="M218.553 255.108L204.432 256.217L206.667 284.923L220.788 283.814L218.553 255.108Z" fill="#B17F7E" style="fill:#B17F7E;fill:color(display-p3 0.6925 0.4992 0.4925);fill-opacity:1;"/>
<path d="M213.124 132.806C213.124 132.806 214.833 139.301 215.657 166.101C216.319 187.339 216.811 199.557 216.99 203.708C217.033 204.741 217.144 205.77 217.321 206.789C219.06 217.499 220.225 228.296 220.81 239.131C222.018 259.794 222.117 269.578 222.117 269.578C222.117 269.578 213.384 276.433 202.844 271.051L192.643 209.475L181.906 152.328C181.906 152.328 167.187 146.695 165.89 131.665L213.124 132.806Z" fill="#37474F" style="fill:#37474F;fill:color(display-p3 0.2157 0.2784 0.3098);fill-opacity:1;"/>
<path d="M220.282 277.232L220.506 280.035C220.506 280.035 218.824 282.407 216.838 283.099C216.838 283.099 215.316 277.52 212.623 277.232C209.93 276.945 204.338 276.693 205.089 279.802C205.508 281.423 205.769 283.08 205.868 284.752L200.678 294.464C200.678 294.464 190.147 303.573 194.549 309.377C198.951 315.181 213.724 312.072 215.182 302.962C215.416 301.59 215.929 300.281 216.689 299.117C217.45 297.953 218.442 296.959 219.602 296.198C220.555 295.595 221.304 294.718 221.753 293.681C222.201 292.644 222.328 291.495 222.117 290.385C221.848 288.301 221.222 284.294 221.41 282.488C221.598 280.682 222.099 277.259 220.282 277.232Z" fill="#37474F" style="fill:#37474F;fill:color(display-p3 0.2157 0.2784 0.3098);fill-opacity:1;"/>
<path d="M194.549 309.377C198.209 314.201 208.999 312.881 213.402 307.077C213.595 306.134 213.691 305.174 213.688 304.211C213.688 293.835 200.678 294.464 200.678 294.464C200.678 294.464 190.147 303.573 194.549 309.377Z" fill="#EBEBEB" style="fill:#EBEBEB;fill:color(display-p3 0.9216 0.9216 0.9216);fill-opacity:1;"/>
<path d="M222.117 290.385C222.117 290.232 222.072 290.052 222.045 289.873C221.944 290.703 221.657 291.499 221.206 292.202C220.755 292.905 220.152 293.497 219.441 293.933C218.242 294.722 217.218 295.75 216.432 296.955C215.647 298.159 215.118 299.513 214.878 300.932C213.393 310.257 198.45 313.51 193.708 307.751C193.891 308.338 194.175 308.889 194.549 309.377C198.951 315.19 213.724 312.072 215.182 302.962C215.416 301.59 215.929 300.281 216.689 299.117C217.45 297.953 218.442 296.959 219.602 296.197C220.555 295.594 221.304 294.717 221.753 293.681C222.201 292.644 222.328 291.495 222.117 290.385Z" fill="#263238" style="fill:#263238;fill:color(display-p3 0.1490 0.1961 0.2196);fill-opacity:1;"/>
<path d="M213.518 286.917C213.413 286.918 213.31 286.88 213.232 286.809C210.082 283.818 205.913 285.174 205.868 285.192C205.816 285.214 205.759 285.226 205.702 285.225C205.646 285.224 205.59 285.212 205.538 285.188C205.486 285.165 205.44 285.131 205.402 285.089C205.363 285.046 205.335 284.997 205.317 284.942C205.299 284.888 205.292 284.831 205.297 284.774C205.302 284.717 205.319 284.662 205.347 284.612C205.374 284.562 205.411 284.519 205.456 284.484C205.502 284.449 205.553 284.424 205.608 284.41C207.011 283.972 208.503 283.906 209.939 284.222C211.374 284.537 212.703 285.221 213.796 286.207C213.835 286.245 213.866 286.29 213.887 286.341C213.909 286.391 213.92 286.445 213.92 286.499C213.92 286.554 213.909 286.608 213.887 286.658C213.866 286.708 213.835 286.754 213.796 286.791C213.722 286.866 213.623 286.911 213.518 286.917Z" fill="#FAFAFA" style="fill:#FAFAFA;fill:color(display-p3 0.9804 0.9804 0.9804);fill-opacity:1;"/>
<path d="M211.711 290.519C211.608 290.519 211.51 290.48 211.433 290.412C208.284 287.42 204.114 288.777 204.069 288.795C203.965 288.829 203.851 288.821 203.753 288.771C203.655 288.721 203.58 288.634 203.546 288.53C203.512 288.425 203.52 288.31 203.57 288.212C203.619 288.113 203.706 288.039 203.81 288.004C205.213 287.57 206.704 287.507 208.139 287.822C209.573 288.136 210.902 288.818 211.997 289.801C212.072 289.879 212.114 289.984 212.114 290.093C212.114 290.202 212.072 290.306 211.997 290.385C211.922 290.465 211.82 290.513 211.711 290.519Z" fill="#FAFAFA" style="fill:#FAFAFA;fill:color(display-p3 0.9804 0.9804 0.9804);fill-opacity:1;"/>
<path d="M209.912 294.122C209.81 294.121 209.711 294.083 209.635 294.014C206.485 291.023 202.316 292.379 202.271 292.397C202.167 292.432 202.053 292.423 201.955 292.374C201.856 292.324 201.782 292.237 201.748 292.132C201.713 292.027 201.722 291.913 201.771 291.815C201.821 291.716 201.907 291.641 202.011 291.607C203.414 291.17 204.906 291.105 206.341 291.42C207.776 291.735 209.105 292.419 210.199 293.403C210.273 293.482 210.315 293.587 210.315 293.695C210.315 293.804 210.273 293.909 210.199 293.987C210.123 294.067 210.021 294.115 209.912 294.122Z" fill="#FAFAFA" style="fill:#FAFAFA;fill:color(display-p3 0.9804 0.9804 0.9804);fill-opacity:1;"/>
<path d="M119.38 16.5533C118.529 12.9282 117.931 9.24778 117.591 5.53896C117.376 1.19971 116.123 -0.318585 113.484 1.85554C110.844 4.02966 104.831 10.3364 105.189 15.2506C105.482 20.6961 107.208 25.9662 110.191 30.5234L117.886 32.8592L120.964 26.5166L119.38 16.5533Z" fill="#B17F7E" style="fill:#B17F7E;fill:color(display-p3 0.6925 0.4992 0.4925);fill-opacity:1;"/>
<path d="M152.737 55.8312L137.32 52.4083C137.32 52.4083 130.753 41.7263 126.95 36.0934C123.147 30.4604 120.991 26.5614 120.991 26.5614L113.833 24.3783L110.182 30.5683C110.182 30.5683 122.181 60.5118 127.746 65.6057C130.547 68.1392 148.639 73.7632 148.639 73.7632C148.639 73.7632 156.235 65.7136 152.737 55.8312Z" fill="#B17F7E" style="fill:#B17F7E;fill:color(display-p3 0.6925 0.4992 0.4925);fill-opacity:1;"/>
<path d="M172.171 60.0357L152.737 55.8312C152.473 61.9942 151.096 68.0579 148.675 73.7272L168.198 79.8004L172.171 60.0357Z" fill="#15AA9B" style="fill:#15AA9B;fill:color(display-p3 0.0816 0.6675 0.6097);fill-opacity:1;"/>
<path opacity="0.3" d="M172.171 60.0357L152.737 55.8312C152.473 61.9942 151.096 68.0579 148.675 73.7272L168.198 79.8004L172.171 60.0357Z" fill="white" style="fill:white;fill-opacity:1;"/>
<path d="M199.13 62.3806L208.167 65.2375L213.124 92.0816L210.19 105.099C209.788 106.867 209.712 108.694 209.966 110.49L213.124 132.806C213.124 132.806 204.177 138.538 187.722 138.538C171.267 138.538 161.72 131.683 161.72 131.683L162.964 81.0313C163.428 73.1511 166.695 65.7003 172.171 60.0358L183.383 61.3384L199.13 62.3806Z" fill="#15AA9B" style="fill:#15AA9B;fill:color(display-p3 0.0816 0.6675 0.6097);fill-opacity:1;"/>
<path d="M170.641 19.7695C170.641 19.7695 162.007 27.379 169.514 44.3407L178.291 21.4046L170.641 19.7695Z" fill="#263238" style="fill:#263238;fill:color(display-p3 0.1490 0.1961 0.2196);fill-opacity:1;"/>
<path d="M199.13 62.3806L188.25 65.8934L183.382 61.3385V40.864H199.13V62.3806Z" fill="#B17F7E" style="fill:#B17F7E;fill:color(display-p3 0.6925 0.4992 0.4925);fill-opacity:1;"/>
<path d="M183.382 60.0358C188.697 60.0358 196.804 55.2833 196.804 51.9502L198.593 40.837H183.382V60.0358Z" fill="#703838" style="fill:#703838;fill:color(display-p3 0.4392 0.2196 0.2196);fill-opacity:1;"/>
<path d="M187.57 15.116C182.273 15.116 171.008 18.0807 169.675 31.9969C168.342 45.913 170.408 57.7629 176.788 57.7629C189.315 57.7629 201.358 56.1637 201.457 35.5725C201.564 17.362 192.742 15.116 187.57 15.116Z" fill="#B17F7E" style="fill:#B17F7E;fill:color(display-p3 0.6925 0.4992 0.4925);fill-opacity:1;"/>
<path d="M199.13 47.7278L197.09 41.439C196.937 41.5685 196.751 41.6516 196.552 41.6786C196.354 41.7056 196.152 41.6755 195.97 41.5917C195.788 41.5079 195.634 41.3738 195.525 41.2052C195.416 41.0366 195.357 40.8404 195.354 40.6394V29.4095C195.354 29.4095 190.147 27.9271 190.702 23.525C190.702 23.525 188.017 25.9237 177.808 25.9237C167.599 25.9237 165.102 17.2182 166.123 12.4208C166.123 12.4208 168.019 14.3883 173.424 14.3883C178.828 14.3883 201.331 7.56943 201.913 21.2161C201.913 21.2161 203.81 18.4221 206.879 21.2161L202.933 23.5699C202.933 23.5699 207.613 23.4261 206.879 30.3168C206.405 34.8088 204.749 42.7956 203.676 47.6919C203.076 50.4276 201.448 52.8252 199.13 54.3849V47.7278Z" fill="#263238" style="fill:#263238;fill:color(display-p3 0.1490 0.1961 0.2196);fill-opacity:1;"/>
<path d="M179.821 36.1384V45.0775L174.605 43.4693L179.821 36.1384Z" fill="#703838" style="fill:#703838;fill:color(display-p3 0.4392 0.2196 0.2196);fill-opacity:1;"/>
<path d="M188.107 37.5759C188.105 37.906 188.006 38.2282 187.822 38.5018C187.638 38.7754 187.378 38.9882 187.073 39.1133C186.769 39.2384 186.435 39.2702 186.112 39.2047C185.79 39.1392 185.494 38.9794 185.263 38.7453C185.031 38.5113 184.873 38.2135 184.81 37.8896C184.746 37.5657 184.78 37.2302 184.906 36.9254C185.032 36.6205 185.245 36.3601 185.519 36.1769C185.792 35.9937 186.114 35.8959 186.443 35.8959C186.662 35.8959 186.879 35.9394 187.082 36.0239C187.284 36.1085 187.468 36.2324 187.623 36.3885C187.777 36.5446 187.9 36.7299 187.983 36.9337C188.066 37.1374 188.108 37.3557 188.107 37.5759Z" fill="#263238" style="fill:#263238;fill:color(display-p3 0.1490 0.1961 0.2196);fill-opacity:1;"/>
<path d="M175.643 36.3899C175.643 36.7204 175.545 37.0435 175.362 37.3183C175.179 37.5931 174.919 37.8072 174.615 37.9337C174.311 38.0602 173.977 38.0933 173.654 38.0288C173.331 37.9643 173.034 37.8052 172.802 37.5715C172.569 37.3378 172.41 37.04 172.346 36.7159C172.282 36.3917 172.315 36.0558 172.441 35.7504C172.567 35.4451 172.78 35.1841 173.054 35.0005C173.328 34.8169 173.649 34.7189 173.978 34.7189C174.42 34.7189 174.843 34.8949 175.155 35.2083C175.467 35.5217 175.643 35.9467 175.643 36.3899Z" fill="#263238" style="fill:#263238;fill:color(display-p3 0.1490 0.1961 0.2196);fill-opacity:1;"/>
<path d="M171.947 32.9041L175.204 30.9636C175.204 30.9636 173.952 29.6609 172.708 30.4425C171.464 31.2241 171.947 32.9041 171.947 32.9041Z" fill="#263238" style="fill:#263238;fill:color(display-p3 0.1490 0.1961 0.2196);fill-opacity:1;"/>
<path d="M189.834 34.1169L186.568 32.1854C186.568 32.1854 187.821 30.8827 189.064 31.6643C190.308 32.4459 189.834 34.1169 189.834 34.1169Z" fill="#263238" style="fill:#263238;fill:color(display-p3 0.1490 0.1961 0.2196);fill-opacity:1;"/>
<path d="M180.242 49.3718C180.242 49.3718 182.658 47.8175 184.984 46.0657C184.984 46.0657 186.335 48.707 184.206 50.0725C182.076 51.4381 180.242 49.3718 180.242 49.3718Z" fill="#703838" style="fill:#703838;fill:color(display-p3 0.4392 0.2196 0.2196);fill-opacity:1;"/>
<path d="M196.947 41.5289L202.709 35.258L198.567 32.7605L196.947 41.5289Z" fill="#253239" style="fill:#253239;fill:color(display-p3 0.1451 0.1961 0.2235);fill-opacity:1;"/>
<path d="M197.896 39.0852C196.008 42.3733 196.5 46.3622 199.13 47.7278C200.821 48.6261 205.814 46.7126 207.702 43.4244C209.59 40.1363 208.534 37.3243 205.966 35.842C203.398 34.3596 199.784 35.7791 197.896 39.0852Z" fill="#B17F7E" style="fill:#B17F7E;fill:color(display-p3 0.6925 0.4992 0.4925);fill-opacity:1;"/>
<path d="M183.382 61.3385L181.235 64.7614C180.821 65.4199 180.549 66.1588 180.438 66.9297C180.328 67.7007 180.38 68.4865 180.592 69.2358C180.804 69.9852 181.17 70.6813 181.668 71.2787C182.166 71.8761 182.784 72.3615 183.481 72.7032C184.748 73.3221 186.13 73.6683 187.538 73.7195C188.946 73.7707 190.35 73.5258 191.658 73.0005C192.966 72.4752 194.151 71.6811 195.136 70.6691C196.121 69.6571 196.884 68.4497 197.377 67.1241L199.166 62.3806L191.292 59.5507L183.382 61.3385Z" fill="#B17F7E" style="fill:#B17F7E;fill:color(display-p3 0.6925 0.4992 0.4925);fill-opacity:1;"/>
<path d="M120.991 26.5615C120.991 26.5615 123.621 22.5367 123.577 18.7185C123.532 14.9003 124.006 13.1305 124.659 12.2141C125.312 11.2978 124.579 9.95916 122.825 10.4173C121.34 10.8216 119.505 13.1125 119.103 15.2238C119.044 15.5596 118.911 15.8782 118.715 16.1563C118.518 16.4344 118.263 16.6652 117.966 16.8319C116.114 17.8291 112.66 20.686 114.298 27.6127L120.991 26.5615Z" fill="#B17F7E" style="fill:#B17F7E;fill:color(display-p3 0.6925 0.4992 0.4925);fill-opacity:1;"/>
<path d="M113.958 22.896C113.876 22.8827 113.803 22.8375 113.754 22.7701C113.706 22.7028 113.686 22.6188 113.698 22.5366C113.87 21.2867 114.333 20.095 115.05 19.0585C115.767 18.022 116.717 17.1698 117.823 16.5713C118.082 16.4319 118.305 16.2346 118.476 15.9947C118.647 15.7548 118.76 15.4787 118.807 15.1877C118.825 15.1071 118.873 15.0364 118.941 14.991C119.01 14.9457 119.094 14.9292 119.174 14.9452C119.214 14.9527 119.251 14.968 119.285 14.9902C119.318 15.0123 119.347 15.0409 119.37 15.0743C119.392 15.1077 119.408 15.1453 119.416 15.1848C119.424 15.2243 119.424 15.265 119.416 15.3045C119.348 15.6826 119.196 16.0404 118.971 16.3514C118.747 16.6624 118.455 16.9187 118.119 17.1013C117.095 17.6541 116.216 18.442 115.554 19.4006C114.892 20.3592 114.464 21.4615 114.307 22.6175C114.304 22.6594 114.292 22.7001 114.272 22.7372C114.253 22.7743 114.226 22.807 114.193 22.8331C114.16 22.8592 114.122 22.8783 114.082 22.8891C114.041 22.8999 113.999 22.9023 113.958 22.896Z" fill="#703838" style="fill:#703838;fill:color(display-p3 0.4392 0.2196 0.2196);fill-opacity:1;"/>
<path d="M209.492 98.3345L213.464 106.743L233.856 114.847L225.633 89.8267L209.492 98.3345Z" fill="#B17F7E" style="fill:#B17F7E;fill:color(display-p3 0.6925 0.4992 0.4925);fill-opacity:1;"/>
<path d="M206.959 64.8601C206.959 64.8601 200.159 71.8766 203.103 81.768C204.759 87.4625 206.897 93.0047 209.492 98.3344C209.492 98.3344 220.953 98.6758 225.597 89.8266L219.755 75.021C218.833 72.6933 217.382 70.6141 215.518 68.9497C213.654 67.2853 211.428 66.0817 209.017 65.4351L206.959 64.8601Z" fill="#15AA9B" style="fill:#15AA9B;fill:color(display-p3 0.0816 0.6675 0.6097);fill-opacity:1;"/>
<path opacity="0.3" d="M206.959 64.8601C206.959 64.8601 200.159 71.8766 203.103 81.768C204.759 87.4625 206.897 93.0047 209.492 98.3344C209.492 98.3344 220.953 98.6758 225.597 89.8266L219.755 75.021C218.833 72.6933 217.382 70.6141 215.518 68.9497C213.654 67.2853 211.428 66.0817 209.017 65.4351L206.959 64.8601Z" fill="white" style="fill:white;fill-opacity:1;"/>
<path d="M212.319 105.18C217.473 106.698 232.666 111.217 232.666 111.217C232.666 111.217 232.782 111.55 233.856 114.811C235.502 119.887 230.277 132.168 211.773 123.256C193.27 114.344 186.514 109.573 186.514 109.573L188.527 98.2985C188.527 98.2985 206.441 103.446 212.319 105.18Z" fill="#B17F7E" style="fill:#B17F7E;fill:color(display-p3 0.6925 0.4992 0.4925);fill-opacity:1;"/>
<path d="M212.865 105.441L222.448 108.217L211.72 103.015L212.865 105.441Z" fill="#703838" style="fill:#703838;fill:color(display-p3 0.4392 0.2196 0.2196);fill-opacity:1;"/>
<path d="M185.664 114.667L173.639 113.383C173.208 113.338 172.8 113.164 172.471 112.881C172.142 112.598 171.906 112.222 171.795 111.801L165.228 86.9876C165.182 86.818 165.178 86.6399 165.214 86.4681C165.25 86.2962 165.326 86.1354 165.436 85.9988C165.546 85.8621 165.687 85.7535 165.846 85.6818C166.006 85.6101 166.18 85.5773 166.355 85.5861L177.987 86.1342C178.42 86.1519 178.835 86.3078 179.173 86.5793C179.511 86.8509 179.754 87.2237 179.866 87.6435L186.863 113.275C186.907 113.45 186.909 113.633 186.867 113.809C186.826 113.985 186.743 114.148 186.625 114.285C186.507 114.421 186.358 114.527 186.191 114.594C186.024 114.661 185.843 114.686 185.664 114.667Z" fill="#37474F" style="fill:#37474F;fill:color(display-p3 0.2157 0.2784 0.3098);fill-opacity:1;"/>
<path d="M169.925 89.2247C169.925 89.4312 169.864 89.633 169.75 89.8046C169.635 89.9761 169.473 90.1097 169.282 90.1883C169.092 90.2669 168.883 90.287 168.682 90.2461C168.48 90.2051 168.295 90.105 168.15 89.9583C168.005 89.8117 167.907 89.6252 167.868 89.4224C167.829 89.2197 167.851 89.0099 167.931 88.8196C168.011 88.6293 168.145 88.4672 168.317 88.3538C168.489 88.2404 168.691 88.1808 168.896 88.1825C169.17 88.1849 169.432 88.2957 169.624 88.4909C169.817 88.6861 169.925 88.9498 169.925 89.2247Z" fill="#263238" style="fill:#263238;fill:color(display-p3 0.1490 0.1961 0.2196);fill-opacity:1;"/>
<path d="M188.527 98.3344C188.527 98.3344 185.047 92.2612 180.725 90.7878L182.452 97.4629C182.452 97.4629 179.168 97.7235 175.455 97.7235C171.742 97.7235 167.679 95.208 166.507 94.5611C165.335 93.9143 164.244 98.4242 168.914 106.923C173.585 115.422 186.55 109.618 186.55 109.618L188.527 98.3344Z" fill="#B17F7E" style="fill:#B17F7E;fill:color(display-p3 0.6925 0.4992 0.4925);fill-opacity:1;"/>
</svg>
