<svg width="241" height="323" viewBox="0 0 241 323" fill="none" xmlns="http://www.w3.org/2000/svg">
<path d="M112.752 299.189C137.085 299.189 156.811 287.753 156.811 273.647C156.811 259.541 137.085 248.106 112.752 248.106C88.4198 248.106 68.6943 259.541 68.6943 273.647C68.6943 287.753 88.4198 299.189 112.752 299.189Z" fill="#E0E0E0" style="fill:#E0E0E0;fill:color(display-p3 0.8784 0.8784 0.8784);fill-opacity:1;"/>
<path d="M187.447 322.906C216.909 322.906 240.793 309.062 240.793 291.984C240.793 274.905 216.909 261.061 187.447 261.061C157.985 261.061 134.101 274.905 134.101 291.984C134.101 309.062 157.985 322.906 187.447 322.906Z" fill="#E0E0E0" style="fill:#E0E0E0;fill:color(display-p3 0.8784 0.8784 0.8784);fill-opacity:1;"/>
<path d="M127.874 263.873C127.874 261.627 126.407 259.381 123.454 257.683C117.557 254.26 107.992 254.26 102.096 257.683C99.1431 259.39 97.6667 261.636 97.6667 263.873V270.799C97.6667 273.045 99.1431 275.291 102.096 276.998C107.992 280.412 117.557 280.412 123.454 276.998C126.407 275.282 127.874 273.045 127.874 270.799V263.873Z" fill="#263238" style="fill:#263238;fill:color(display-p3 0.1490 0.1961 0.2196);fill-opacity:1;"/>
<path d="M123.49 264.609C129.386 268.032 129.386 273.593 123.49 276.998C117.593 280.403 108.028 280.412 102.132 276.998C96.2352 273.584 96.2262 268.014 102.132 264.609C108.037 261.205 117.593 261.196 123.49 264.609Z" fill="#37474F" style="fill:#37474F;fill:color(display-p3 0.2157 0.2784 0.3098);fill-opacity:1;"/>
<path d="M127.91 263.873H97.7025V270.799H127.91V263.873Z" fill="#37474F" style="fill:#37474F;fill:color(display-p3 0.2157 0.2784 0.3098);fill-opacity:1;"/>
<path d="M123.49 257.71C129.386 261.124 129.386 266.694 123.49 270.09C117.593 273.486 108.028 273.512 102.132 270.09C96.2352 266.667 96.2262 261.106 102.132 257.71C108.037 254.314 117.593 254.26 123.49 257.71Z" fill="#455A64" style="fill:#455A64;fill:color(display-p3 0.2706 0.3529 0.3922);fill-opacity:1;"/>
<path d="M117.835 259.255C120.617 260.863 120.617 263.477 117.835 265.086C116.276 265.879 114.553 266.292 112.806 266.292C111.059 266.292 109.336 265.879 107.778 265.086C105.004 263.477 105.004 260.863 107.778 259.255C109.336 258.462 111.059 258.048 112.806 258.048C114.553 258.048 116.276 258.462 117.835 259.255Z" fill="#263238" style="fill:#263238;fill:color(display-p3 0.1490 0.1961 0.2196);fill-opacity:1;"/>
<path d="M119.92 131.404H105.693V262.175H119.92V131.404Z" fill="#263238" style="fill:#263238;fill:color(display-p3 0.1490 0.1961 0.2196);fill-opacity:1;"/>
<path d="M170.903 71.0137V70.9149C170.769 70.1692 170.608 69.4146 170.42 68.6599C170.445 68.7396 170.466 68.8206 170.482 68.9025C170.366 68.3904 170.232 67.8783 170.089 67.3662C170.142 67.5549 170.187 67.7435 170.232 67.9322C170.089 67.3662 169.928 66.8092 169.758 66.2432C169.838 66.4858 169.919 66.7373 169.981 66.9799C169.892 66.6565 169.794 66.3331 169.695 66.0096L169.534 65.4976V65.4257V65.4796C168.332 61.8158 166.748 58.2896 164.81 54.9594C164.747 54.8426 164.684 54.7258 164.613 54.609C159.736 46.2808 152.668 38.6714 144.776 33.9458L144.391 33.7123C142.128 32.3926 139.728 31.3261 137.233 30.5319C135.16 29.8735 133.001 29.5253 130.827 29.4988H130.075H129.619C129.243 29.4988 128.876 29.5707 128.518 29.6246H128.187L127.579 29.7413C127.319 29.7952 127.06 29.8581 126.809 29.93L126.111 30.1366C126.111 30.1366 126.111 30.1366 126.066 30.1366L125.369 30.3882C125.136 30.487 124.903 30.5858 124.689 30.6936L123.15 31.592L45.6542 76.5119H45.5915C41.3951 78.8747 38.854 83.6991 38.854 90.5539V132.877L9.69364 149.049C6.80472 150.647 4.39073 152.988 2.69867 155.832C1.0066 158.675 0.0972095 161.918 0.0635317 165.23C0.0298539 168.542 0.873104 171.804 2.507 174.681C4.1409 177.559 6.50678 179.949 9.36259 181.606C17.4829 186.31 26.6924 188.785 36.0668 188.785C45.4412 188.785 54.6507 186.31 62.771 181.606L92.9781 164.537L171.476 118.997V76.6646C171.453 74.7676 171.262 72.8764 170.903 71.0137Z" fill="#15AA9B" style="fill:#15AA9B;fill:color(display-p3 0.0816 0.6675 0.6097);fill-opacity:1;"/>
<path d="M44.3121 129.94V82.6569L94.1682 54.0339L98.66 97.75L44.3121 129.94Z" fill="#15AA9B" style="fill:#15AA9B;fill:color(display-p3 0.0816 0.6675 0.6097);fill-opacity:1;"/>
<path opacity="0.5" d="M44.3121 129.94V82.6569L94.1682 54.0339L98.66 97.75L44.3121 129.94Z" fill="black" style="fill:black;fill-opacity:1;"/>
<path d="M44.3121 129.94L98.66 97.75V149.201L87.4217 154.933L44.3121 129.94Z" fill="#15AA9B" style="fill:#15AA9B;fill:color(display-p3 0.0816 0.6675 0.6097);fill-opacity:1;"/>
<path opacity="0.3" d="M44.3121 129.94L98.66 97.75V149.201L87.4217 154.933L44.3121 129.94Z" fill="black" style="fill:black;fill-opacity:1;"/>
<path d="M170.912 71.0137L165.758 73.8616L134.388 91.1019L128.715 94.2013L89.5066 115.763C87.0191 111.54 80.5589 91.8385 77.1141 88.2719C73.7954 84.7673 70.0071 81.7436 65.858 79.2879C60.9368 76.431 56.3288 75.0744 52.3471 75.0744C50.0044 75.0262 47.6883 75.5797 45.6185 76.6826L123.123 31.7627L124.662 30.8643C124.877 30.7565 125.109 30.6577 125.342 30.5589L126.04 30.3073C126.04 30.3073 126.04 30.3073 126.084 30.3073L126.782 30.1007C127.033 30.0288 127.292 29.9659 127.552 29.912L128.16 29.7952H128.491C128.849 29.7413 129.216 29.6964 129.592 29.6694H130.048H130.8C132.974 29.696 135.133 30.0441 137.206 30.7026C139.701 31.4967 142.101 32.5632 144.364 33.8829L144.749 34.1165C157.714 41.708 168.469 57.2592 170.912 71.0137Z" fill="#15AA9B" style="fill:#15AA9B;fill:color(display-p3 0.0816 0.6675 0.6097);fill-opacity:1;"/>
<g opacity="0.3">
<path d="M170.912 71.0137L165.758 73.8616L134.388 91.1019L128.715 94.2013L89.5065 115.763C87.0191 111.54 80.5589 91.8385 77.1141 88.2719C73.7954 84.7673 70.007 81.7436 65.8579 79.2879C60.9367 76.431 56.3287 75.0744 52.347 75.0744C50.0043 75.0262 47.6882 75.5797 45.6184 76.6826L123.123 31.7627L124.662 30.8643C124.876 30.7565 125.109 30.6577 125.342 30.5589L126.04 30.3073C126.04 30.3073 126.04 30.3073 126.084 30.3073L126.782 30.1007C127.033 30.0288 127.292 29.9659 127.552 29.912L128.16 29.7952H128.491C128.849 29.7413 129.216 29.6964 129.592 29.6694H130.048H130.8C132.974 29.696 135.133 30.0441 137.206 30.7026C139.701 31.4967 142.101 32.5632 144.364 33.8829L144.749 34.1165C157.714 41.708 168.469 57.2592 170.912 71.0137Z" fill="black" style="fill:black;fill-opacity:1;"/>
</g>
<path d="M164.559 54.6719C164.631 54.7797 164.702 54.8965 164.765 55.0133C164.729 54.8695 164.667 54.7527 164.559 54.6719Z" fill="#15AA9B" style="fill:#15AA9B;fill:color(display-p3 0.0816 0.6675 0.6097);fill-opacity:1;"/>
<path d="M168.72 63.2067C169.69 65.7353 170.423 68.3489 170.912 71.0137L165.758 73.8617L134.388 91.1019L128.715 94.2014L89.5065 115.763L92.9782 164.537L171.476 118.997V76.6647C171.371 72.0487 170.437 67.4897 168.72 63.2067Z" fill="#15AA9B" style="fill:#15AA9B;fill:color(display-p3 0.0816 0.6675 0.6097);fill-opacity:1;"/>
<path d="M167.557 60.3857C167.226 59.649 166.877 58.9033 166.51 58.1666C166.877 58.9033 167.244 59.649 167.557 60.3857Z" fill="#15AA9B" style="fill:#15AA9B;fill:color(display-p3 0.0816 0.6675 0.6097);fill-opacity:1;"/>
<path d="M165.15 55.5703C165.526 56.2531 165.901 56.9359 166.25 57.6276C165.901 56.9718 165.535 56.289 165.15 55.5703Z" fill="#15AA9B" style="fill:#15AA9B;fill:color(display-p3 0.0816 0.6675 0.6097);fill-opacity:1;"/>
<g opacity="0.5">
<path d="M164.559 54.6718C164.631 54.7796 164.702 54.8964 164.765 55.0131C164.729 54.8694 164.667 54.7526 164.559 54.6718Z" fill="black" style="fill:black;fill-opacity:1;"/>
<path d="M168.72 63.2065C169.69 65.7352 170.423 68.3488 170.912 71.0136L165.758 73.8615L134.388 91.1018L128.715 94.2013L89.5065 115.763L92.9782 164.537L171.476 118.997V76.6645C171.371 72.0486 170.437 67.4896 168.72 63.2065Z" fill="black" style="fill:black;fill-opacity:1;"/>
<path d="M167.557 60.3857C167.225 59.649 166.876 58.9033 166.51 58.1666C166.876 58.9033 167.243 59.649 167.557 60.3857Z" fill="black" style="fill:black;fill-opacity:1;"/>
<path d="M165.15 55.5702C165.526 56.253 165.901 56.9357 166.25 57.6275C165.901 56.9717 165.535 56.2889 165.15 55.5702Z" fill="black" style="fill:black;fill-opacity:1;"/>
</g>
<path d="M52.3471 80.6626C55.4698 80.6626 59.192 81.8574 63.0842 84.1304C76.2641 91.7668 87.4039 109.205 87.4039 122.213V154.933L44.2942 129.94V90.8145C44.2942 82.4234 48.6607 80.6626 52.3471 80.6626ZM52.3471 75.1105C44.2405 75.1105 38.7914 80.7434 38.7914 90.8145V133.138L92.9425 164.582V122.213C92.9425 107.192 80.8184 87.9935 65.867 79.324C60.9458 76.476 56.3198 75.1105 52.3471 75.1105Z" fill="#15AA9B" style="fill:#15AA9B;fill:color(display-p3 0.0816 0.6675 0.6097);fill-opacity:1;"/>
<path d="M38.7914 133.138L9.63108 149.309C6.74216 150.908 4.32817 153.249 2.63611 156.092C0.944042 158.935 0.0346484 162.179 0.000970641 165.491C-0.0327072 168.803 0.810544 172.065 2.44444 174.942C4.07834 177.819 6.44422 180.209 9.30002 181.867C17.4203 186.57 26.6298 189.046 36.0042 189.046C45.3786 189.046 54.5881 186.57 62.7084 181.867L92.9782 164.537L38.7914 133.138Z" fill="#15AA9B" style="fill:#15AA9B;fill:color(display-p3 0.0816 0.6675 0.6097);fill-opacity:1;"/>
<path opacity="0.2" d="M38.7914 133.138L9.63108 149.309C6.74216 150.908 4.32817 153.249 2.63611 156.092C0.944042 158.935 0.0346484 162.179 0.000970641 165.491C-0.0327072 168.803 0.810544 172.065 2.44444 174.942C4.07834 177.819 6.44422 180.209 9.30002 181.867C17.4203 186.57 26.6298 189.046 36.0042 189.046C45.3786 189.046 54.5881 186.57 62.7084 181.867L92.9782 164.537L38.7914 133.138Z" fill="white" style="fill:white;fill-opacity:1;"/>
<path d="M111.008 151.645L104.923 155.167V96.1868L111.008 92.6561V151.645Z" fill="#E0E0E0" style="fill:#E0E0E0;fill:color(display-p3 0.8784 0.8784 0.8784);fill-opacity:1;"/>
<path d="M122.496 97.786L104.923 107.965V96.1869L122.496 85.999V97.786Z" fill="#E0E0E0" style="fill:#E0E0E0;fill:color(display-p3 0.8784 0.8784 0.8784);fill-opacity:1;"/>
<path d="M113.629 149.57C113.522 151.558 112.949 153.494 111.957 155.219C110.966 156.944 109.583 158.409 107.921 159.497C104.762 161.294 102.203 159.847 102.203 156.191C102.318 154.209 102.895 152.282 103.888 150.565C104.881 148.848 106.263 147.39 107.921 146.308C111.07 144.431 113.629 145.913 113.629 149.57Z" fill="#15AA9B" style="fill:#15AA9B;fill:color(display-p3 0.0816 0.6675 0.6097);fill-opacity:1;"/>
<path opacity="0.2" d="M113.629 149.57C113.522 151.558 112.949 153.494 111.957 155.219C110.966 156.944 109.583 158.409 107.921 159.497C104.762 161.294 102.203 159.847 102.203 156.191C102.318 154.209 102.895 152.282 103.888 150.565C104.881 148.848 106.263 147.39 107.921 146.308C111.07 144.431 113.629 145.913 113.629 149.57Z" fill="black" style="fill:black;fill-opacity:1;"/>
<path d="M115.526 150.675C115.413 152.656 114.837 154.583 113.845 156.299C112.854 158.016 111.474 159.474 109.818 160.557C106.668 162.354 104.109 160.898 104.109 157.242C104.218 155.254 104.792 153.319 105.784 151.594C106.776 149.87 108.157 148.404 109.818 147.315C112.976 145.536 115.526 147.018 115.526 150.675Z" fill="#15AA9B" style="fill:#15AA9B;fill:color(display-p3 0.0816 0.6675 0.6097);fill-opacity:1;"/>
<path d="M179.923 246.346L165.763 245.984L165.033 274.768L179.192 275.13L179.923 246.346Z" fill="#B17F7E" style="fill:#B17F7E;fill:color(display-p3 0.6925 0.4992 0.4925);fill-opacity:1;"/>
<path d="M161.32 130.766C161.32 130.766 160.327 179.747 160.667 199.152C160.927 213.769 163.199 257.548 163.199 257.548C163.199 257.548 172.38 263.567 182.052 258.536C182.052 258.536 187.635 214.317 186.275 200.994C186.101 199.378 186.101 197.749 186.275 196.133L194.811 121.98L161.32 130.766Z" fill="#37474F" style="fill:#37474F;fill:color(display-p3 0.2157 0.2784 0.3098);fill-opacity:1;"/>
<path d="M169.928 270.781C169.928 270.781 177.775 269.883 179.359 267.314V265.643C179.359 265.643 180.719 266.37 180.459 269.137C180.227 271.707 181.247 276.082 181.399 281.418C181.409 281.854 181.316 282.285 181.13 282.679C180.944 283.072 180.668 283.416 180.325 283.682C178.804 284.859 175.592 286.665 169.928 286.908C167.941 286.997 159.996 292.109 153.384 292.109C146.771 292.109 142.45 288.821 142.45 284.221C142.45 279.622 155.934 275.462 155.934 275.462L162.412 269.173C162.412 269.173 161.15 262.318 165.275 263.963C169.4 265.607 169.928 267.314 169.928 270.781Z" fill="#37474F" style="fill:#37474F;fill:color(display-p3 0.2157 0.2784 0.3098);fill-opacity:1;"/>
<path d="M168.496 274.779C168.409 274.78 168.323 274.752 168.253 274.7C168.182 274.648 168.129 274.575 168.103 274.492C166.725 270.35 162.421 269.586 162.376 269.577C162.323 269.569 162.271 269.549 162.225 269.521C162.179 269.492 162.139 269.455 162.107 269.41C162.076 269.366 162.053 269.316 162.041 269.263C162.029 269.21 162.027 269.155 162.036 269.101C162.056 268.994 162.116 268.898 162.205 268.835C162.293 268.771 162.403 268.744 162.51 268.76C163.952 269.042 165.297 269.694 166.413 270.653C167.53 271.612 168.38 272.845 168.881 274.231C168.915 274.335 168.907 274.448 168.858 274.545C168.81 274.643 168.725 274.717 168.622 274.752L168.496 274.779Z" fill="#FAFAFA" style="fill:#FAFAFA;fill:color(display-p3 0.9804 0.9804 0.9804);fill-opacity:1;"/>
<path d="M165.91 277.349C165.824 277.346 165.739 277.318 165.669 277.266C165.599 277.215 165.546 277.143 165.517 277.061C164.148 272.937 159.835 272.156 159.79 272.147C159.737 272.138 159.686 272.119 159.64 272.09C159.595 272.061 159.555 272.024 159.524 271.979C159.493 271.935 159.472 271.885 159.461 271.832C159.449 271.779 159.449 271.724 159.459 271.671C159.468 271.617 159.487 271.565 159.516 271.519C159.544 271.473 159.582 271.433 159.626 271.401C159.67 271.369 159.72 271.347 159.772 271.334C159.825 271.322 159.88 271.32 159.933 271.329C161.375 271.611 162.72 272.264 163.836 273.223C164.953 274.181 165.803 275.414 166.304 276.801C166.321 276.852 166.327 276.907 166.323 276.961C166.318 277.016 166.303 277.069 166.278 277.117C166.253 277.166 166.219 277.209 166.177 277.244C166.136 277.279 166.087 277.305 166.036 277.322C165.996 277.34 165.954 277.349 165.91 277.349Z" fill="#FAFAFA" style="fill:#FAFAFA;fill:color(display-p3 0.9804 0.9804 0.9804);fill-opacity:1;"/>
<path d="M163.665 279.577C163.579 279.577 163.496 279.55 163.427 279.5C163.358 279.45 163.306 279.379 163.28 279.298C161.911 275.165 157.598 274.384 157.553 274.375C157.495 274.373 157.438 274.358 157.385 274.332C157.333 274.306 157.287 274.269 157.25 274.223C157.213 274.178 157.186 274.125 157.171 274.068C157.156 274.011 157.153 273.952 157.162 273.894C157.172 273.836 157.194 273.781 157.226 273.732C157.259 273.683 157.302 273.642 157.351 273.611C157.401 273.58 157.457 273.56 157.515 273.552C157.573 273.544 157.632 273.549 157.688 273.566C159.131 273.846 160.476 274.497 161.593 275.456C162.71 276.416 163.559 277.65 164.058 279.038C164.092 279.141 164.084 279.254 164.036 279.352C163.987 279.449 163.902 279.524 163.799 279.559L163.665 279.577Z" fill="#FAFAFA" style="fill:#FAFAFA;fill:color(display-p3 0.9804 0.9804 0.9804);fill-opacity:1;"/>
<path d="M142.486 284.221C142.486 288.767 146.718 292.028 153.223 292.1L162.484 288.372C162.484 278.732 155.988 275.462 155.988 275.462C155.988 275.462 142.486 279.631 142.486 284.221Z" fill="#EBEBEB" style="fill:#EBEBEB;fill:color(display-p3 0.9216 0.9216 0.9216);fill-opacity:1;"/>
<path d="M181.202 281.814C179.618 283.044 176.254 284.94 170.331 285.201C168.246 285.29 159.942 290.591 153.026 290.591C148.284 290.591 144.669 288.974 142.861 286.395C144.033 289.8 147.935 292.064 153.42 292.064C160.032 292.064 167.977 286.952 169.964 286.863C175.628 286.62 178.84 284.814 180.361 283.637C180.676 283.391 180.934 283.078 181.116 282.721C181.298 282.364 181.401 281.972 181.417 281.571C181.351 281.657 181.279 281.738 181.202 281.814Z" fill="#263238" style="fill:#263238;fill:color(display-p3 0.1490 0.1961 0.2196);fill-opacity:1;"/>
<path d="M169.525 137.621C169.525 137.621 170.823 148.707 179.287 154.565L186.758 192.181L191.554 145.149L169.525 137.621Z" fill="#263238" style="fill:#263238;fill:color(display-p3 0.1490 0.1961 0.2196);fill-opacity:1;"/>
<path d="M218.153 254.236L204.032 255.345L206.267 284.051L220.388 282.942L218.153 254.236Z" fill="#B17F7E" style="fill:#B17F7E;fill:color(display-p3 0.6925 0.4992 0.4925);fill-opacity:1;"/>
<path d="M212.724 131.934C212.724 131.934 214.433 138.429 215.257 165.229C215.919 186.467 216.411 198.685 216.59 202.836C216.633 203.869 216.744 204.898 216.921 205.917C218.66 216.627 219.825 227.424 220.41 238.259C221.618 258.923 221.717 268.706 221.717 268.706C221.717 268.706 212.984 275.561 202.444 270.179L192.243 208.603L181.506 151.456C181.506 151.456 166.787 145.823 165.49 130.793L212.724 131.934Z" fill="#37474F" style="fill:#37474F;fill:color(display-p3 0.2157 0.2784 0.3098);fill-opacity:1;"/>
<path d="M219.882 276.36L220.106 279.163C220.106 279.163 218.424 281.535 216.438 282.227C216.438 282.227 214.916 276.648 212.223 276.36C209.53 276.073 203.938 275.821 204.689 278.93C205.108 280.551 205.369 282.208 205.468 283.88L200.278 293.592C200.278 293.592 189.747 302.701 194.149 308.505C198.551 314.309 213.324 311.2 214.782 302.091C215.016 300.718 215.529 299.409 216.289 298.245C217.05 297.081 218.042 296.087 219.202 295.326C220.155 294.723 220.904 293.846 221.353 292.809C221.801 291.772 221.928 290.623 221.717 289.513C221.448 287.429 220.822 283.422 221.01 281.616C221.198 279.81 221.699 276.387 219.882 276.36Z" fill="#37474F" style="fill:#37474F;fill:color(display-p3 0.2157 0.2784 0.3098);fill-opacity:1;"/>
<path d="M194.149 308.505C197.809 313.329 208.599 312.009 213.002 306.205C213.195 305.262 213.291 304.302 213.288 303.339C213.288 292.963 200.278 293.592 200.278 293.592C200.278 293.592 189.747 302.701 194.149 308.505Z" fill="#EBEBEB" style="fill:#EBEBEB;fill:color(display-p3 0.9216 0.9216 0.9216);fill-opacity:1;"/>
<path d="M221.717 289.513C221.717 289.36 221.672 289.18 221.645 289.001C221.544 289.831 221.257 290.627 220.806 291.33C220.355 292.033 219.752 292.625 219.041 293.062C217.842 293.85 216.818 294.878 216.032 296.083C215.247 297.287 214.718 298.641 214.478 300.06C212.993 309.385 198.05 312.638 193.308 306.879C193.49 307.467 193.775 308.017 194.149 308.505C198.551 314.318 213.324 311.2 214.782 302.09C215.016 300.718 215.529 299.409 216.289 298.245C217.05 297.081 218.042 296.087 219.202 295.325C220.155 294.723 220.904 293.845 221.353 292.809C221.801 291.772 221.928 290.623 221.717 289.513Z" fill="#263238" style="fill:#263238;fill:color(display-p3 0.1490 0.1961 0.2196);fill-opacity:1;"/>
<path d="M213.118 286.045C213.013 286.046 212.91 286.008 212.832 285.937C209.682 282.946 205.513 284.302 205.468 284.32C205.416 284.342 205.359 284.354 205.302 284.353C205.246 284.352 205.19 284.34 205.138 284.316C205.086 284.293 205.04 284.259 205.002 284.217C204.963 284.174 204.934 284.125 204.917 284.07C204.899 284.016 204.892 283.959 204.897 283.902C204.902 283.845 204.919 283.79 204.947 283.74C204.974 283.69 205.011 283.647 205.056 283.612C205.102 283.577 205.153 283.552 205.208 283.539C206.611 283.1 208.103 283.035 209.539 283.35C210.974 283.665 212.303 284.349 213.396 285.335C213.435 285.373 213.466 285.418 213.487 285.469C213.509 285.519 213.52 285.573 213.52 285.627C213.52 285.682 213.509 285.736 213.487 285.786C213.466 285.836 213.435 285.882 213.396 285.919C213.322 285.995 213.223 286.039 213.118 286.045Z" fill="#FAFAFA" style="fill:#FAFAFA;fill:color(display-p3 0.9804 0.9804 0.9804);fill-opacity:1;"/>
<path d="M211.311 289.648C211.208 289.647 211.11 289.608 211.033 289.54C207.884 286.548 203.714 287.905 203.669 287.923C203.565 287.957 203.451 287.949 203.353 287.899C203.255 287.849 203.18 287.762 203.146 287.658C203.112 287.553 203.12 287.438 203.17 287.34C203.219 287.241 203.306 287.167 203.41 287.132C204.813 286.698 206.304 286.635 207.739 286.95C209.173 287.264 210.502 287.946 211.597 288.929C211.672 289.007 211.714 289.112 211.714 289.221C211.714 289.33 211.672 289.434 211.597 289.513C211.522 289.593 211.42 289.641 211.311 289.648Z" fill="#FAFAFA" style="fill:#FAFAFA;fill:color(display-p3 0.9804 0.9804 0.9804);fill-opacity:1;"/>
<path d="M209.512 293.25C209.41 293.249 209.311 293.211 209.235 293.142C206.085 290.151 201.916 291.507 201.871 291.525C201.767 291.56 201.653 291.551 201.555 291.502C201.456 291.452 201.382 291.365 201.347 291.26C201.313 291.155 201.322 291.041 201.371 290.943C201.421 290.844 201.507 290.769 201.611 290.735C203.014 290.298 204.506 290.233 205.941 290.548C207.376 290.863 208.705 291.547 209.799 292.532C209.873 292.61 209.915 292.715 209.915 292.823C209.915 292.932 209.873 293.037 209.799 293.115C209.723 293.195 209.621 293.243 209.512 293.25Z" fill="#FAFAFA" style="fill:#FAFAFA;fill:color(display-p3 0.9804 0.9804 0.9804);fill-opacity:1;"/>
<path d="M118.98 15.6814C118.129 12.0562 117.531 8.37583 117.191 4.66702C116.976 0.327757 115.723 -1.19053 113.084 0.983588C110.444 3.15771 104.431 9.46446 104.789 14.3787C105.082 19.8242 106.808 25.0942 109.791 29.6515L117.486 31.9873L120.564 25.6446L118.98 15.6814Z" fill="#B17F7E" style="fill:#B17F7E;fill:color(display-p3 0.6925 0.4992 0.4925);fill-opacity:1;"/>
<path d="M152.337 54.9592L136.92 51.5363C136.92 51.5363 130.353 40.8544 126.55 35.2214C122.747 29.5885 120.591 25.6895 120.591 25.6895L113.433 23.5063L109.782 29.6963C109.782 29.6963 121.781 59.6399 127.346 64.7338C130.147 67.2673 148.239 72.8913 148.239 72.8913C148.239 72.8913 155.835 64.8416 152.337 54.9592Z" fill="#B17F7E" style="fill:#B17F7E;fill:color(display-p3 0.6925 0.4992 0.4925);fill-opacity:1;"/>
<path d="M171.771 59.1637L152.337 54.9592C152.073 61.1223 150.696 67.186 148.275 72.8553L167.798 78.9285L171.771 59.1637Z" fill="#15AA9B" style="fill:#15AA9B;fill:color(display-p3 0.0816 0.6675 0.6097);fill-opacity:1;"/>
<path opacity="0.3" d="M171.771 59.1637L152.337 54.9592C152.073 61.1223 150.696 67.186 148.275 72.8553L167.798 78.9285L171.771 59.1637Z" fill="white" style="fill:white;fill-opacity:1;"/>
<path d="M198.73 61.5086L207.767 64.3655L212.724 91.2096L209.79 104.227C209.388 105.995 209.312 107.822 209.566 109.618L212.724 131.934C212.724 131.934 203.777 137.666 187.322 137.666C170.867 137.666 161.32 130.811 161.32 130.811L162.564 80.1594C163.028 72.2791 166.295 64.8283 171.771 59.1638L182.983 60.4665L198.73 61.5086Z" fill="#15AA9B" style="fill:#15AA9B;fill:color(display-p3 0.0816 0.6675 0.6097);fill-opacity:1;"/>
<path d="M170.241 18.8976C170.241 18.8976 161.607 26.507 169.114 43.4687L177.891 20.5327L170.241 18.8976Z" fill="#263238" style="fill:#263238;fill:color(display-p3 0.1490 0.1961 0.2196);fill-opacity:1;"/>
<path d="M198.73 61.5087L187.85 65.0214L182.982 60.4665V39.9921H198.73V61.5087Z" fill="#B17F7E" style="fill:#B17F7E;fill:color(display-p3 0.6925 0.4992 0.4925);fill-opacity:1;"/>
<path d="M182.982 59.1638C188.297 59.1638 196.404 54.4113 196.404 51.0783L198.193 39.9651H182.982V59.1638Z" fill="#703838" style="fill:#703838;fill:color(display-p3 0.4392 0.2196 0.2196);fill-opacity:1;"/>
<path d="M187.17 14.244C181.873 14.244 170.608 17.2087 169.275 31.1249C167.942 45.0411 170.008 56.8909 176.388 56.8909C188.915 56.8909 200.958 55.2918 201.057 34.7005C201.164 16.49 192.342 14.244 187.17 14.244Z" fill="#B17F7E" style="fill:#B17F7E;fill:color(display-p3 0.6925 0.4992 0.4925);fill-opacity:1;"/>
<path d="M198.73 46.8558L196.69 40.5671C196.537 40.6965 196.351 40.7796 196.152 40.8066C195.954 40.8337 195.752 40.8035 195.57 40.7197C195.388 40.6359 195.233 40.5019 195.125 40.3333C195.016 40.1647 194.957 39.9685 194.954 39.7675V28.5375C194.954 28.5375 189.747 27.0552 190.302 22.653C190.302 22.653 187.617 25.0517 177.408 25.0517C167.199 25.0517 164.702 16.3463 165.722 11.5488C165.722 11.5488 167.619 13.5163 173.024 13.5163C178.428 13.5163 200.931 6.69748 201.513 20.3441C201.513 20.3441 203.41 17.5501 206.479 20.3441L202.533 22.6979C202.533 22.6979 207.213 22.5542 206.479 29.4449C206.005 33.9369 204.349 41.9236 203.276 46.8199C202.676 49.5556 201.048 51.9533 198.73 53.513V46.8558Z" fill="#263238" style="fill:#263238;fill:color(display-p3 0.1490 0.1961 0.2196);fill-opacity:1;"/>
<path d="M179.421 35.2665V44.2055L174.205 42.5974L179.421 35.2665Z" fill="#703838" style="fill:#703838;fill:color(display-p3 0.4392 0.2196 0.2196);fill-opacity:1;"/>
<path d="M187.707 36.7039C187.705 37.034 187.606 37.3562 187.422 37.6298C187.238 37.9035 186.977 38.1162 186.673 38.2413C186.369 38.3664 186.035 38.3982 185.712 38.3328C185.39 38.2673 185.094 38.1074 184.863 37.8734C184.631 37.6393 184.473 37.3416 184.41 37.0177C184.346 36.6938 184.38 36.3582 184.506 36.0534C184.632 35.7486 184.845 35.4882 185.119 35.3049C185.392 35.1217 185.714 35.0239 186.043 35.0239C186.262 35.0239 186.479 35.0674 186.682 35.152C186.884 35.2365 187.068 35.3604 187.223 35.5165C187.377 35.6727 187.5 35.8579 187.583 36.0617C187.666 36.2655 187.708 36.4837 187.707 36.7039Z" fill="#263238" style="fill:#263238;fill:color(display-p3 0.1490 0.1961 0.2196);fill-opacity:1;"/>
<path d="M175.243 35.5179C175.243 35.8484 175.145 36.1715 174.962 36.4463C174.779 36.7211 174.519 36.9353 174.215 37.0618C173.911 37.1882 173.577 37.2213 173.254 37.1569C172.931 37.0924 172.634 36.9332 172.402 36.6995C172.169 36.4658 172.01 36.1681 171.946 35.8439C171.882 35.5198 171.915 35.1838 172.041 34.8785C172.167 34.5731 172.38 34.3122 172.654 34.1285C172.928 33.9449 173.249 33.8469 173.578 33.8469C174.02 33.8469 174.443 34.023 174.755 34.3364C175.067 34.6497 175.243 35.0748 175.243 35.5179Z" fill="#263238" style="fill:#263238;fill:color(display-p3 0.1490 0.1961 0.2196);fill-opacity:1;"/>
<path d="M171.547 32.0322L174.804 30.0916C174.804 30.0916 173.552 28.7889 172.308 29.5705C171.064 30.3522 171.547 32.0322 171.547 32.0322Z" fill="#263238" style="fill:#263238;fill:color(display-p3 0.1490 0.1961 0.2196);fill-opacity:1;"/>
<path d="M189.434 33.245L186.168 31.3134C186.168 31.3134 187.421 30.0107 188.664 30.7923C189.908 31.574 189.434 33.245 189.434 33.245Z" fill="#263238" style="fill:#263238;fill:color(display-p3 0.1490 0.1961 0.2196);fill-opacity:1;"/>
<path d="M179.842 48.4998C179.842 48.4998 182.258 46.9456 184.584 45.1937C184.584 45.1937 185.935 47.835 183.806 49.2006C181.676 50.5661 179.842 48.4998 179.842 48.4998Z" fill="#703838" style="fill:#703838;fill:color(display-p3 0.4392 0.2196 0.2196);fill-opacity:1;"/>
<path d="M196.547 40.6569L202.309 34.3861L198.167 31.8885L196.547 40.6569Z" fill="#253239" style="fill:#253239;fill:color(display-p3 0.1451 0.1961 0.2235);fill-opacity:1;"/>
<path d="M197.496 38.2132C195.608 41.5014 196.1 45.4902 198.73 46.8558C200.421 47.7542 205.414 45.8406 207.302 42.5525C209.19 39.2643 208.134 36.4524 205.566 34.97C202.998 33.4876 199.383 34.9071 197.496 38.2132Z" fill="#B17F7E" style="fill:#B17F7E;fill:color(display-p3 0.6925 0.4992 0.4925);fill-opacity:1;"/>
<path d="M182.982 60.4665L180.835 63.8894C180.421 64.548 180.149 65.2868 180.038 66.0578C179.927 66.8288 179.98 67.6145 180.192 68.3639C180.404 69.1132 180.77 69.8093 181.268 70.4067C181.766 71.0042 182.384 71.4896 183.081 71.8312C184.348 72.4502 185.73 72.7964 187.138 72.8476C188.546 72.8987 189.95 72.6538 191.258 72.1285C192.566 71.6032 193.751 70.8091 194.736 69.7971C195.721 68.7852 196.484 67.5777 196.976 66.2522L198.766 61.5087L190.892 58.6787L182.982 60.4665Z" fill="#B17F7E" style="fill:#B17F7E;fill:color(display-p3 0.6925 0.4992 0.4925);fill-opacity:1;"/>
<path d="M120.591 25.6896C120.591 25.6896 123.221 21.6648 123.177 17.8466C123.132 14.0284 123.606 12.2585 124.259 11.3422C124.912 10.4258 124.179 9.08721 122.425 9.54539C120.94 9.94967 119.105 12.2406 118.703 14.3518C118.644 14.6877 118.511 15.0062 118.315 15.2844C118.118 15.5625 117.863 15.7933 117.566 15.96C115.714 16.9572 112.26 19.8141 113.898 26.7407L120.591 25.6896Z" fill="#B17F7E" style="fill:#B17F7E;fill:color(display-p3 0.6925 0.4992 0.4925);fill-opacity:1;"/>
<path d="M113.558 22.024C113.476 22.0108 113.403 21.9655 113.354 21.8982C113.306 21.8308 113.285 21.7469 113.298 21.6647C113.47 20.4147 113.933 19.2231 114.65 18.1865C115.367 17.15 116.317 16.2979 117.423 15.6993C117.682 15.5599 117.905 15.3626 118.076 15.1227C118.247 14.8828 118.36 14.6067 118.407 14.3158C118.425 14.2351 118.473 14.1645 118.541 14.1191C118.61 14.0737 118.694 14.0572 118.774 14.0732C118.814 14.0807 118.851 14.096 118.885 14.1182C118.918 14.1404 118.947 14.169 118.97 14.2024C118.992 14.2358 119.008 14.2733 119.016 14.3128C119.024 14.3523 119.024 14.393 119.016 14.4326C118.948 14.8106 118.796 15.1684 118.571 15.4794C118.347 15.7905 118.055 16.0468 117.718 16.2294C116.695 16.7822 115.816 17.57 115.154 18.5286C114.492 19.4873 114.064 20.5895 113.907 21.7455C113.904 21.7874 113.892 21.8282 113.872 21.8653C113.853 21.9024 113.826 21.935 113.793 21.9611C113.76 21.9873 113.722 22.0064 113.682 22.0172C113.641 22.028 113.599 22.0303 113.558 22.024Z" fill="#703838" style="fill:#703838;fill:color(display-p3 0.4392 0.2196 0.2196);fill-opacity:1;"/>
<path d="M209.092 97.4625L213.064 105.872L233.456 113.975L225.233 88.9547L209.092 97.4625Z" fill="#B17F7E" style="fill:#B17F7E;fill:color(display-p3 0.6925 0.4992 0.4925);fill-opacity:1;"/>
<path d="M206.559 63.9882C206.559 63.9882 199.759 71.0046 202.703 80.896C204.359 86.5905 206.497 92.1328 209.092 97.4625C209.092 97.4625 220.553 97.8038 225.197 88.9546L219.354 74.149C218.433 71.8213 216.982 69.7422 215.118 68.0778C213.254 66.4134 211.027 65.2098 208.617 64.5631L206.559 63.9882Z" fill="#15AA9B" style="fill:#15AA9B;fill:color(display-p3 0.0816 0.6675 0.6097);fill-opacity:1;"/>
<path opacity="0.3" d="M206.559 63.9882C206.559 63.9882 199.759 71.0046 202.703 80.896C204.359 86.5905 206.497 92.1328 209.092 97.4625C209.092 97.4625 220.553 97.8038 225.197 88.9546L219.354 74.149C218.433 71.8213 216.982 69.7422 215.118 68.0778C213.254 66.4134 211.027 65.2098 208.617 64.5631L206.559 63.9882Z" fill="white" style="fill:white;fill-opacity:1;"/>
<path d="M211.919 104.308C217.073 105.827 232.266 110.345 232.266 110.345C232.266 110.345 232.382 110.678 233.456 113.939C235.102 119.015 229.877 131.296 211.373 122.384C192.87 113.472 186.114 108.701 186.114 108.701L188.127 97.4265C188.127 97.4265 206.04 102.574 211.919 104.308Z" fill="#B17F7E" style="fill:#B17F7E;fill:color(display-p3 0.6925 0.4992 0.4925);fill-opacity:1;"/>
<path d="M212.465 104.569L222.048 107.345L211.32 102.143L212.465 104.569Z" fill="#703838" style="fill:#703838;fill:color(display-p3 0.4392 0.2196 0.2196);fill-opacity:1;"/>
<path d="M185.264 113.795L173.239 112.511C172.808 112.467 172.4 112.292 172.071 112.009C171.742 111.727 171.506 111.35 171.395 110.929L164.828 86.1157C164.782 85.946 164.778 85.768 164.814 85.5961C164.85 85.4243 164.926 85.2635 165.036 85.1268C165.146 84.9901 165.287 84.8815 165.446 84.8098C165.606 84.7381 165.78 84.7053 165.955 84.7142L177.587 85.2622C178.02 85.2799 178.435 85.4359 178.773 85.7074C179.111 85.9789 179.354 86.3517 179.466 86.7715L186.463 112.403C186.507 112.578 186.509 112.761 186.467 112.937C186.426 113.113 186.343 113.276 186.225 113.413C186.107 113.549 185.958 113.655 185.791 113.722C185.624 113.789 185.443 113.814 185.264 113.795Z" fill="#37474F" style="fill:#37474F;fill:color(display-p3 0.2157 0.2784 0.3098);fill-opacity:1;"/>
<path d="M169.525 88.3527C169.525 88.5592 169.464 88.7611 169.35 88.9326C169.235 89.1042 169.073 89.2378 168.882 89.3164C168.692 89.395 168.483 89.4151 168.281 89.3741C168.08 89.3332 167.895 89.233 167.75 89.0864C167.605 88.9397 167.507 88.7532 167.468 88.5505C167.429 88.3477 167.451 88.1379 167.531 87.9476C167.611 87.7574 167.745 87.5953 167.917 87.4818C168.089 87.3684 168.291 87.3088 168.496 87.3106C168.77 87.313 169.032 87.4238 169.224 87.619C169.417 87.8142 169.525 88.0779 169.525 88.3527Z" fill="#263238" style="fill:#263238;fill:color(display-p3 0.1490 0.1961 0.2196);fill-opacity:1;"/>
<path d="M188.127 97.4624C188.127 97.4624 184.647 91.3893 180.325 89.9159L182.052 96.591C182.052 96.591 178.768 96.8515 175.055 96.8515C171.342 96.8515 167.279 94.336 166.107 93.6892C164.935 93.0423 163.844 97.5523 168.514 106.051C173.185 114.55 186.15 108.746 186.15 108.746L188.127 97.4624Z" fill="#B17F7E" style="fill:#B17F7E;fill:color(display-p3 0.6925 0.4992 0.4925);fill-opacity:1;"/>
</svg>
