<svg width="25" height="25" viewBox="0 0 25 25" fill="none" xmlns="http://www.w3.org/2000/svg">
<path d="M12.5 8.85425C18.253 8.85425 22.9167 7.45514 22.9167 5.72925C22.9167 4.00336 18.253 2.60425 12.5 2.60425C6.74704 2.60425 2.08334 4.00336 2.08334 5.72925C2.08334 7.45514 6.74704 8.85425 12.5 8.85425Z" fill="#15E0CC" stroke="black" style="fill:#15E0CC;fill:color(display-p3 0.0824 0.8784 0.8000);fill-opacity:1;stroke:black;stroke-opacity:1;" stroke-width="2.08333" stroke-linecap="round" stroke-linejoin="round"/>
<path d="M5.60985 8.073C3.44729 8.6456 2.08334 9.48341 2.08334 10.4167C2.08334 12.1426 6.74704 13.5417 12.5 13.5417C18.253 13.5417 22.9167 12.1426 22.9167 10.4167C22.9167 9.48341 21.5527 8.6456 19.3902 8.073" stroke="black" style="stroke:black;stroke-opacity:1;" stroke-width="2.08333" stroke-linecap="round" stroke-linejoin="round"/>
<path d="M5.60985 12.7605C3.44729 13.3331 2.08334 14.1709 2.08334 15.1042C2.08334 16.8301 6.74704 18.2292 12.5 18.2292C18.253 18.2292 22.9167 16.8301 22.9167 15.1042C22.9167 14.1709 21.5527 13.3331 19.3902 12.7605" stroke="black" style="stroke:black;stroke-opacity:1;" stroke-width="2.08333" stroke-linecap="round" stroke-linejoin="round"/>
<path d="M5.60985 17.448C3.44729 18.0206 2.08334 18.8584 2.08334 19.7917C2.08334 21.5176 6.74704 22.9167 12.5 22.9167C18.253 22.9167 22.9167 21.5176 22.9167 19.7917C22.9167 18.8584 21.5527 18.0206 19.3902 17.448" stroke="black" style="stroke:black;stroke-opacity:1;" stroke-width="2.08333" stroke-linecap="round" stroke-linejoin="round"/>
</svg>
