<svg width="50" height="50" viewBox="0 0 50 50" fill="none" xmlns="http://www.w3.org/2000/svg">
<path d="M25 17.7084C36.506 17.7084 45.8334 14.9102 45.8334 11.4584C45.8334 8.00659 36.506 5.20837 25 5.20837C13.4941 5.20837 4.16669 8.00659 4.16669 11.4584C4.16669 14.9102 13.4941 17.7084 25 17.7084Z" stroke="black" style="stroke:black;stroke-opacity:1;" stroke-width="2" stroke-linecap="round" stroke-linejoin="round"/>
<path d="M11.5 16.3125C7.17488 17.4577 4.26276 19.1333 4.26276 21C4.26276 24.4518 13.4941 25.5 25 25.5C36.5059 25.5 45.8333 23.8476 45.8333 20.3959C45.8333 18.5292 42.8251 17.4577 38.5 16.3125" stroke="black" style="stroke:black;stroke-opacity:1;" stroke-width="2" stroke-linecap="round" stroke-linejoin="round"/>
<path d="M11.2197 24.6459C6.89458 25.7911 4.16669 27.4667 4.16669 29.3334C4.16669 32.7851 13.4941 35.5834 25 35.5834C36.506 35.5834 45.8334 32.7851 45.8334 29.3334C45.8334 27.4667 43.1054 25.7911 38.7803 24.6459C35.1078 25.6183 30.2836 26 25 26C19.7165 26 14.8922 25.6183 11.2197 24.6459Z" fill="#0F9D8F" stroke="black" style="fill:#0F9D8F;fill:color(display-p3 0.0604 0.6157 0.5610);fill-opacity:1;stroke:black;stroke-opacity:1;" stroke-width="2" stroke-linecap="round" stroke-linejoin="round"/>
</svg>
