<svg width="20" height="20" viewBox="0 0 44 34" fill="none" xmlns="http://www.w3.org/2000/svg">
<path d="M21.8333 13.5C33.3393 13.5 42.6667 10.7018 42.6667 7.25C42.6667 3.79822 33.3393 1 21.8333 1C10.3274 1 1 3.79822 1 7.25C1 10.7018 10.3274 13.5 21.8333 13.5Z" fill="white" stroke="black" style="fill:white;fill-opacity:1;stroke:black;stroke-opacity:1;" stroke-width="2" stroke-linecap="round" stroke-linejoin="round"/>
<path d="M8.05302 11.9375C3.7279 13.0827 1 14.7583 1 16.625C1 20.0768 10.3274 22.875 21.8333 22.875C33.3393 22.875 42.6667 20.0768 42.6667 16.625C42.6667 14.7583 39.9388 13.0827 35.6136 11.9375C31.9411 12.9099 27.1169 13.5 21.8333 13.5C16.5498 13.5 11.7255 12.9099 8.05302 11.9375Z" fill="#0F9D8F" stroke="black" style="fill:#0F9D8F;fill:color(display-p3 0.0588 0.6157 0.5608);fill-opacity:1;stroke:black;stroke-opacity:1;" stroke-width="2" stroke-linecap="round" stroke-linejoin="round"/>
<path d="M8.05302 21.3125C3.7279 22.4577 1 24.1333 1 26C1 29.4518 10.3274 32.25 21.8333 32.25C33.3393 32.25 42.6667 29.4518 42.6667 26C42.6667 24.1333 39.9388 22.4577 35.6136 21.3125C31.9411 22.2849 27.1169 22.875 21.8333 22.875C16.5498 22.875 11.7255 22.2849 8.05302 21.3125Z" fill="#0F9D8F" stroke="black" style="fill:#0F9D8F;fill:color(display-p3 0.0588 0.6157 0.5608);fill-opacity:1;stroke:black;stroke-opacity:1;" stroke-width="2" stroke-linecap="round" stroke-linejoin="round"/>
</svg>
