<svg width="15" height="16" viewBox="0 0 15 16" fill="none" xmlns="http://www.w3.org/2000/svg">
<path d="M11.5101 4.23526C11.4053 4.08353 11.2838 3.94734 11.1484 3.82992C10.8396 3.56211 10.4808 3.45287 10.0755 3.40326C9.68574 3.35556 9.19835 3.35801 8.602 3.361L7.01866 3.36892C6.75911 3.37022 6.54965 3.60707 6.5508 3.89794C6.55196 4.18881 6.7633 4.42355 7.02285 4.42225L8.57817 4.41448C9.20939 4.41132 9.6431 4.40995 9.97347 4.45038C10.0808 4.46352 10.1706 4.48046 10.2468 4.50092L3.58691 11.9646C3.40338 12.1702 3.40338 12.5037 3.58691 12.7094C3.77044 12.9151 4.06799 12.9151 4.25152 12.7094L10.9114 5.24575C10.9296 5.33115 10.9447 5.43171 10.9565 5.55203C10.9926 5.92227 10.9913 6.40832 10.9885 7.11572L10.9816 8.85876C10.9804 9.14963 11.1899 9.38648 11.4494 9.38777C11.709 9.38907 11.9203 9.15433 11.9215 8.86346L11.9285 7.08901C11.9312 6.42069 11.9334 5.87448 11.8908 5.43768C11.8466 4.98345 11.7491 4.58131 11.5101 4.23526Z" fill="#11BAAA" stroke="#11BAAA" style="fill:#11BAAA;fill:color(display-p3 0.0667 0.7294 0.6667);fill-opacity:1;stroke:#11BAAA;stroke:color(display-p3 0.0667 0.7294 0.6667);stroke-opacity:1;" stroke-linecap="round"/>
</svg>
