<svg width="13" height="12" viewBox="0 0 13 12" fill="none" xmlns="http://www.w3.org/2000/svg">
<g clip-path="url(#clip0_2071_1012)">
<path d="M12.6856 9.17655L10.6221 11.4048C10.5773 11.4532 10.523 11.4918 10.4627 11.5182C10.4024 11.5446 10.3373 11.5582 10.2716 11.5581H0.489558C0.442882 11.5581 0.397224 11.5444 0.358193 11.5186C0.319162 11.4929 0.288458 11.4562 0.269853 11.4131C0.251249 11.37 0.245555 11.3223 0.25347 11.276C0.261385 11.2297 0.282566 11.1867 0.314409 11.1524L2.37947 8.92408C2.42421 8.8758 2.4783 8.83729 2.53842 8.81092C2.59854 8.78455 2.66339 8.77089 2.72897 8.77077H12.5104C12.5571 8.77077 12.6028 8.78451 12.6418 8.81027C12.6808 8.83605 12.7115 8.87275 12.7302 8.91584C12.7488 8.95895 12.7545 9.00657 12.7465 9.05289C12.7386 9.09921 12.7175 9.14219 12.6856 9.17655ZM10.6221 4.68944C10.5773 4.64104 10.523 4.60245 10.4627 4.57607C10.4024 4.54971 10.3373 4.53611 10.2716 4.53615H0.489558C0.442882 4.53615 0.397224 4.54987 0.358193 4.57565C0.319162 4.60142 0.288458 4.63811 0.269853 4.68121C0.251249 4.72431 0.245555 4.77195 0.25347 4.81827C0.261385 4.86457 0.282566 4.90755 0.314409 4.94192L2.37947 7.1702C2.42421 7.21847 2.4783 7.25697 2.53842 7.28335C2.59854 7.30971 2.66339 7.32339 2.72897 7.32349H12.5104C12.5571 7.32349 12.6028 7.30977 12.6418 7.28399C12.6808 7.25822 12.7115 7.22153 12.7302 7.17843C12.7488 7.13533 12.7545 7.08769 12.7465 7.04137C12.7386 6.99507 12.7175 6.95209 12.6856 6.91772L10.6221 4.68944ZM0.489558 3.08887H10.2716C10.3373 3.08889 10.4024 3.07531 10.4627 3.04893C10.523 3.02256 10.5773 2.98396 10.6221 2.93556L12.6856 0.707288C12.7175 0.672927 12.7386 0.629948 12.7465 0.583633C12.7545 0.537317 12.7488 0.489682 12.7302 0.446581C12.7115 0.403479 12.6808 0.366789 12.6418 0.341017C12.6028 0.315245 12.5571 0.301515 12.5104 0.301514H2.72897C2.66339 0.301626 2.59854 0.31529 2.53842 0.34166C2.4783 0.36803 2.42421 0.406544 2.37947 0.454819L0.314941 2.68309C0.283129 2.71741 0.261958 2.76035 0.254025 2.80661C0.246091 2.85288 0.25174 2.90047 0.270279 2.94356C0.288818 2.98664 0.319441 3.02332 0.358392 3.04914C0.397343 3.07495 0.442928 3.08875 0.489558 3.08887Z" fill="black" style="fill:black;fill-opacity:1;"/>
</g>
<defs>
<clipPath id="clip0_2071_1012">
<rect width="12.5" height="11.2566" fill="white" style="fill:white;fill-opacity:1;" transform="translate(0.25 0.301514)"/>
</clipPath>
</defs>
</svg>
