<svg width="12" height="11" viewBox="0 0 12 11" fill="none" xmlns="http://www.w3.org/2000/svg">
<path d="M1.45235 1.08092V2.07616H2.97139H4.49044V2.73616V3.39616L3.31711 3.52187C1.37901 3.72092 0.142822 4.16092 0.142822 4.64282C0.142822 5.12473 1.38949 5.56473 3.31711 5.76377L4.49044 5.88949V8.01616V10.1428H5.64282H6.7952V8.01616V5.88949L7.97901 5.76377C9.89616 5.56473 11.1428 5.12473 11.1428 4.64282C11.1428 4.16092 9.90663 3.72092 7.97901 3.52187L6.7952 3.39616V2.73616V2.07616H8.26187H9.72854V1.08092V0.08568H5.59044H1.45235V1.08092ZM4.49044 4.38092V5.11425H5.64282H6.7952V4.38092C6.7952 3.53235 6.69044 3.58473 8.05235 3.75235C9.63425 3.95139 10.5666 4.26568 10.5666 4.61139C10.5666 4.79997 9.6133 5.12473 8.60758 5.27139C7.24568 5.48092 4.03997 5.48092 2.67806 5.27139C1.67235 5.12473 0.719013 4.79997 0.719013 4.61139C0.719013 4.44378 1.0752 4.20282 1.50473 4.06663C1.93425 3.91997 3.53711 3.67901 4.1552 3.65806L4.49044 3.64758V4.38092Z" fill="black" style="fill:black;fill-opacity:1;"/>
</svg>
