<svg width="87" height="98" viewBox="0 0 87 98" fill="none" xmlns="http://www.w3.org/2000/svg">
<path d="M43.5 97.0436C67.5244 97.0436 87 95.3726 87 93.3113C87 91.2501 67.5244 89.5791 43.5 89.5791C19.4756 89.5791 0 91.2501 0 93.3113C0 95.3726 19.4756 97.0436 43.5 97.0436Z" fill="#F5F5F5" style="fill:#F5F5F5;fill:color(display-p3 0.9608 0.9608 0.9608);fill-opacity:1;"/>
<path d="M24.5647 3.25945C24.6073 2.53081 26.7431 -0.15628 28.9732 1.71974C31.2033 3.59575 29.5902 9.26666 32.0155 9.81727C30.445 12.1252 25.3297 14.9442 23.757 12.2966C22.1843 9.64912 21.9824 2.23407 24.5647 3.25945Z" fill="#263238" style="fill:#263238;fill:color(display-p3 0.1490 0.1961 0.2196);fill-opacity:1;"/>
<path d="M33.5474 21.5449C33.6058 22.7648 33.6933 24.0573 33.8099 25.2904C33.9143 26.5055 34.0823 27.707 34.3125 28.8841C34.3394 29.0259 34.373 29.1611 34.4045 29.293L34.4897 29.6425C34.5072 29.7184 34.533 29.7896 34.566 29.8535C34.6176 29.9656 34.916 30.0678 35.266 30.0018C36.0656 29.8017 36.8415 29.4342 37.5701 28.9105L38.1399 30.1403C37.9587 30.3745 37.7693 30.5946 37.5723 30.7997C37.3794 31.0041 37.182 31.202 36.9733 31.38C36.5405 31.7695 36.0742 32.0722 35.5868 32.2801C35.3047 32.396 35.0137 32.458 34.7208 32.4647C34.3575 32.4687 33.9991 32.3407 33.6775 32.0922C33.3301 31.8122 33.045 31.3909 32.8564 30.8788L32.7958 30.7041L32.7577 30.5788L32.6792 30.3216C32.6253 30.1535 32.5737 29.9919 32.5333 29.8139C32.198 28.5 31.9523 27.1405 31.7997 25.7552C31.6431 24.4096 31.545 23.0507 31.5058 21.6867L33.5474 21.5449Z" fill="#FFC3BD" style="fill:#FFC3BD;fill:color(display-p3 1.0000 0.7647 0.7412);fill-opacity:1;"/>
<path d="M32.4503 18.2679C34.2698 20.3121 34.1958 24.1696 34.1958 24.1696L30.9359 25.3137C30.9359 25.3137 29.9376 21.4363 30.3436 20.0153C30.7721 18.5349 31.4273 17.1139 32.4503 18.2679Z" fill="#ABEAE4" style="fill:#ABEAE4;fill:color(display-p3 0.6706 0.9176 0.8941);fill-opacity:1;"/>
<path d="M37.3931 29.1971L38.5889 27.4365L39.2328 30.1895C39.2328 30.1895 38.2232 30.9907 37.2562 30.2324L37.3931 29.1971Z" fill="#FFC3BD" style="fill:#FFC3BD;fill:color(display-p3 1.0000 0.7647 0.7412);fill-opacity:1;"/>
<path d="M40.2444 27.166L40.4643 29.3388L39.2326 30.1861L38.5887 27.4364L40.2444 27.166Z" fill="#FFC3BD" style="fill:#FFC3BD;fill:color(display-p3 1.0000 0.7647 0.7412);fill-opacity:1;"/>
<path d="M21.9081 91.0239L23.7388 91.2844L25.6435 84.8849L23.8128 84.6211L21.9081 91.0239Z" fill="#FFC3BD" style="fill:#FFC3BD;fill:color(display-p3 1.0000 0.7647 0.7412);fill-opacity:1;"/>
<path d="M10.1228 81.5615L11.4958 83.4573L14.464 78.6667L13.0887 76.7676L10.1228 81.5615Z" fill="#FFC3BD" style="fill:#FFC3BD;fill:color(display-p3 1.0000 0.7647 0.7412);fill-opacity:1;"/>
<path d="M12.1305 82.5473L11.0985 79.814C11.0812 79.7666 11.0528 79.73 11.0185 79.7112C10.9842 79.6924 10.9464 79.6926 10.9122 79.7118L9.32158 80.602C9.28222 80.6265 9.2468 80.6629 9.21762 80.7088C9.18844 80.7547 9.16614 80.8091 9.15218 80.8685C9.13822 80.9278 9.13291 80.9909 9.13658 81.0534C9.14025 81.116 9.15283 81.1768 9.1735 81.2318C9.54593 82.1747 9.75682 82.6033 10.2123 83.8067C10.4905 84.5453 11.0356 86.2433 11.4215 87.2653C11.8074 88.2874 12.5141 87.7797 12.4154 87.3049C11.9667 85.1684 12.0587 83.9815 12.1911 83.0385C12.2115 82.8694 12.19 82.6951 12.1305 82.5473Z" fill="#263238" style="fill:#263238;fill:color(display-p3 0.1490 0.1961 0.2196);fill-opacity:1;"/>
<path d="M23.981 90.4531H21.7375C21.697 90.4533 21.6577 90.4731 21.6256 90.5095C21.5936 90.5459 21.5706 90.5967 21.5602 90.6542L21.0644 93.2688C21.0524 93.3304 21.0505 93.3952 21.0587 93.4581C21.0669 93.521 21.0851 93.5802 21.1117 93.6309C21.1383 93.6816 21.1727 93.7223 21.212 93.7499C21.2514 93.7775 21.2945 93.7912 21.3381 93.7897C22.1301 93.7897 22.5047 93.7897 23.4941 93.7897H26.514C27.3351 93.7897 27.5078 92.5698 27.1668 92.4709C25.6435 91.9764 24.7662 91.2939 24.2951 90.6411C24.2101 90.5227 24.098 90.4557 23.981 90.4531Z" fill="#263238" style="fill:#263238;fill:color(display-p3 0.1490 0.1961 0.2196);fill-opacity:1;"/>
<path opacity="0.2" d="M25.6414 84.8878L24.661 88.1848H22.7518L23.8107 84.624L25.6414 84.8878Z" fill="black" style="fill:black;fill-opacity:1;"/>
<path opacity="0.2" d="M13.0885 76.7705L14.4615 78.6663L12.9314 81.1358L11.5584 79.24L13.0885 76.7705Z" fill="black" style="fill:black;fill-opacity:1;"/>
<path d="M31.9009 17.8685C31.9009 17.8685 32.731 18.3894 29.9647 34.446L22.3008 33.4734C22.7001 28.9037 22.8684 26.0781 21.9328 16.4804C23.0249 16.2907 24.1249 16.218 25.2241 16.2628C26.3896 16.2894 27.5525 16.437 28.7038 16.7046C29.7821 17.0136 30.8491 17.402 31.9009 17.8685Z" fill="#ABEAE4" style="fill:#ABEAE4;fill:color(display-p3 0.6706 0.9176 0.8941);fill-opacity:1;"/>
<path d="M26.5945 21.9569C26.588 21.9601 26.5809 21.9601 26.5743 21.9569C24.9163 19.9523 23.8821 16.8596 24.2141 16.131C24.2183 16.1206 24.2252 16.113 24.2331 16.1099C24.2411 16.1068 24.2496 16.1085 24.2567 16.1145C24.264 16.1213 24.2692 16.1319 24.2713 16.1442C24.2734 16.1565 24.2722 16.1694 24.268 16.1805C23.9673 16.8629 24.9949 19.8995 26.5788 21.8382C26.9782 20.0677 27.6579 19.3588 27.6647 19.3522C27.6718 19.3476 27.6798 19.3467 27.6873 19.3497C27.6948 19.3527 27.7013 19.3595 27.7058 19.3688C27.7103 19.3781 27.7124 19.3895 27.7119 19.4009C27.7114 19.4123 27.7082 19.423 27.7028 19.4313C27.7028 19.4313 27.0163 20.1468 26.6237 21.9338C26.6221 21.9407 26.6195 21.947 26.616 21.9522C26.6125 21.9573 26.6082 21.9612 26.6035 21.9635L26.5945 21.9569Z" fill="white" style="fill:white;fill-opacity:1;"/>
<path d="M29.2468 22.0656C29.2413 22.0639 29.2362 22.0598 29.2322 22.054C29.2282 22.0481 29.2255 22.0407 29.2243 22.0326C28.8766 20.1929 28.1833 19.4609 28.1766 19.4543C28.1715 19.445 28.1687 19.4334 28.1687 19.4214C28.1687 19.4094 28.1715 19.3978 28.1766 19.3884C28.1828 19.3803 28.1907 19.3758 28.199 19.3758C28.2073 19.3758 28.2153 19.3803 28.2215 19.3884C28.2215 19.3884 28.9192 20.1236 29.2782 21.9337C30.1105 20.4336 29.6371 17.5816 29.3141 16.8497C29.3098 16.8387 29.3087 16.8257 29.3107 16.8134C29.3128 16.8012 29.318 16.7905 29.3253 16.7837C29.3311 16.7759 29.3387 16.7715 29.3466 16.7715C29.3545 16.7715 29.3621 16.7759 29.3679 16.7837C29.7022 17.5454 30.1935 20.5325 29.2871 22.059C29.2817 22.066 29.2749 22.0703 29.2676 22.0715C29.2604 22.0727 29.2532 22.0706 29.2468 22.0656Z" fill="white" style="fill:white;fill-opacity:1;"/>
<path d="M25.9082 10.5488C26.0293 12.2204 26.0719 15.2636 25.2239 16.2626C26.048 17.3859 26.9681 18.3468 27.961 19.1211C29.2937 17.7693 28.7036 16.7044 28.7036 16.7044C27.4809 16.1076 27.5818 14.7526 27.887 13.4997L25.9082 10.5488Z" fill="#FFC3BD" style="fill:#FFC3BD;fill:color(display-p3 1.0000 0.7647 0.7412);fill-opacity:1;"/>
<path opacity="0.2" d="M26.7137 11.7529L27.8849 13.5004C27.814 13.7907 27.7607 14.0897 27.7256 14.3939C27.2544 14.2323 26.5724 13.5136 26.5634 12.7717C26.5734 12.422 26.6243 12.0773 26.7137 11.7529Z" fill="black" style="fill:black;fill-opacity:1;"/>
<path d="M24.9053 7.93431C25.3809 10.6082 25.5424 11.7523 26.6575 12.8799C28.3356 14.5647 30.4715 13.1239 30.5455 10.295C30.6151 7.74968 29.8276 3.80642 27.8802 3.24922C27.4518 3.12396 27.0088 3.16155 26.5931 3.35844C26.1774 3.55532 25.8028 3.90496 25.5049 4.37422C25.2069 4.84348 24.9954 5.41681 24.8905 6.03985C24.7855 6.66288 24.7906 7.31498 24.9053 7.93431Z" fill="#FFC3BD" style="fill:#FFC3BD;fill:color(display-p3 1.0000 0.7647 0.7412);fill-opacity:1;"/>
<path d="M25.4237 9.93613C26.0406 11.2549 27.6493 3.39809 25.565 3.64537C23.4808 3.89265 23.732 7.21936 25.4237 9.93613Z" fill="#263238" style="fill:#263238;fill:color(display-p3 0.1490 0.1961 0.2196);fill-opacity:1;"/>
<path d="M25.6997 4.0934C26.9045 4.99349 30.4111 6.07162 29.931 4.63741C29.669 3.91792 29.2789 3.31664 28.8023 2.89791C28.3257 2.47919 27.7806 2.25877 27.2253 2.26024C26.0811 2.23387 24.6363 3.30211 25.6997 4.0934Z" fill="#263238" style="fill:#263238;fill:color(display-p3 0.1490 0.1961 0.2196);fill-opacity:1;"/>
<path d="M24.7552 10.1997C24.8389 10.4347 24.9533 10.6431 25.0919 10.8128C25.2305 10.9826 25.3906 11.1104 25.5629 11.1889C26.0251 11.3933 26.2651 10.7899 26.144 10.1437C26.0363 9.56012 25.6661 8.75234 25.1995 8.82488C25.0974 8.84471 25.0003 8.90176 24.9171 8.99083C24.8339 9.07991 24.7672 9.19817 24.723 9.33484C24.6789 9.47151 24.6587 9.62224 24.6643 9.77331C24.6699 9.92438 24.7012 10.071 24.7552 10.1997Z" fill="#FFC3BD" style="fill:#FFC3BD;fill:color(display-p3 1.0000 0.7647 0.7412);fill-opacity:1;"/>
<path d="M29.9644 34.4465C29.9644 34.4465 32.5579 51.3043 30.8281 63.1901C29.6682 71.1492 25.4863 87.2289 25.4863 87.2289L22.2174 87.1069C22.2174 87.1069 25.3831 70.2326 26.0315 63.5957C27.1532 52.244 24.3488 33.7344 24.3488 33.7344L29.9644 34.4465Z" fill="#263238" style="fill:#263238;fill:color(display-p3 0.1490 0.1961 0.2196);fill-opacity:1;"/>
<path opacity="0.2" d="M26.974 37.8418L25.3407 41.6334C25.8333 46.1261 26.1457 50.6574 26.2763 55.204C28.5736 49.1605 27.4855 41.0531 26.974 37.8418Z" fill="black" style="fill:black;fill-opacity:1;"/>
<path d="M25.9464 87.4788L21.9081 87.3272L22.1436 85.5039L26.2628 85.7907L25.9464 87.4788Z" fill="#ABEAE4" style="fill:#ABEAE4;fill:color(display-p3 0.6706 0.9176 0.8941);fill-opacity:1;"/>
<path d="M28.2887 34.2677C28.2887 34.2677 26.7676 52.1443 23.4696 61.9035C20.8065 69.7901 13.699 81.0099 13.699 81.0099L11.8817 78.2602C11.8817 78.2602 16.6829 66.0611 18.6617 60.8254C23.5167 47.9867 19.5591 38.1879 22.3007 33.46L28.2887 34.2677Z" fill="#263238" style="fill:#263238;fill:color(display-p3 0.1490 0.1961 0.2196);fill-opacity:1;"/>
<path d="M13.8828 81.3797L11.5383 78.0201L12.3168 76.4639L14.8027 80.1137L13.8828 81.3797Z" fill="#ABEAE4" style="fill:#ABEAE4;fill:color(display-p3 0.6706 0.9176 0.8941);fill-opacity:1;"/>
<path d="M22.2244 32.7978L21.8206 33.7605C21.7892 33.8364 21.8475 33.9221 21.935 33.9353L29.9736 34.9574C30.0432 34.9574 30.1038 34.9211 30.1105 34.8584L30.2384 33.8693C30.2384 33.8001 30.1912 33.7342 30.1172 33.7243L22.3546 32.7351C22.331 32.7285 22.3068 32.7308 22.284 32.7418C22.2612 32.7527 22.2407 32.772 22.2244 32.7978Z" fill="#ABEAE4" style="fill:#ABEAE4;fill:color(display-p3 0.6706 0.9176 0.8941);fill-opacity:1;"/>
<path opacity="0.3" d="M22.2244 32.7978L21.8206 33.7605C21.7892 33.8364 21.8475 33.9221 21.935 33.9353L29.9736 34.9574C30.0432 34.9574 30.1038 34.9211 30.1105 34.8584L30.2384 33.8693C30.2384 33.8001 30.1912 33.7342 30.1172 33.7243L22.3546 32.7351C22.331 32.7285 22.3068 32.7308 22.284 32.7418C22.2612 32.7527 22.2407 32.772 22.2244 32.7978Z" fill="black" style="fill:black;fill-opacity:1;"/>
<path d="M23.1914 34.2151L22.985 34.1888C22.9423 34.1888 22.9132 34.1459 22.9176 34.1096L23.0926 32.8106C23.0926 32.7743 23.1353 32.748 23.1779 32.7513L23.3843 32.7776C23.4269 32.7776 23.4561 32.8205 23.4516 32.8568L23.2766 34.1558C23.2721 34.1822 23.234 34.2151 23.1914 34.2151Z" fill="#263238" style="fill:#263238;fill:color(display-p3 0.1490 0.1961 0.2196);fill-opacity:1;"/>
<path d="M29.3836 34.9899L29.1749 34.9635C29.1346 34.9635 29.1031 34.924 29.1099 34.8844L29.2826 33.5887C29.2826 33.5491 29.3275 33.5227 29.3679 33.5293L29.5765 33.5557C29.6169 33.5557 29.6461 33.5953 29.6416 33.6348L29.4666 34.9306C29.4621 34.9701 29.424 34.9965 29.3836 34.9899Z" fill="#263238" style="fill:#263238;fill:color(display-p3 0.1490 0.1961 0.2196);fill-opacity:1;"/>
<path d="M26.2875 34.5983L26.0788 34.5719C26.0384 34.5719 26.0093 34.5324 26.0138 34.4928L26.1888 33.1971C26.1888 33.1575 26.2314 33.1311 26.2718 33.1377L26.4804 33.1641C26.523 33.1641 26.5522 33.2037 26.5477 33.2399L26.3727 34.539C26.3648 34.5611 26.3522 34.5789 26.3368 34.5896C26.3215 34.6003 26.3041 34.6033 26.2875 34.5983Z" fill="#263238" style="fill:#263238;fill:color(display-p3 0.1490 0.1961 0.2196);fill-opacity:1;"/>
<path d="M27.986 7.8392C28.0152 8.06001 28.1184 8.21491 28.2104 8.18525C28.3024 8.15559 28.3652 7.95784 28.336 7.73703C28.3069 7.51622 28.2037 7.36132 28.1117 7.38769C28.0197 7.41405 27.9546 7.62168 27.986 7.8392Z" fill="#263238" style="fill:#263238;fill:color(display-p3 0.1490 0.1961 0.2196);fill-opacity:1;"/>
<path d="M29.6797 7.35127C29.7088 7.57208 29.8121 7.73027 29.904 7.70061C29.996 7.67095 30.0566 7.46992 30.0274 7.2491C29.9983 7.02829 29.8951 6.87339 29.8031 6.90305C29.7111 6.93271 29.6505 7.13375 29.6797 7.35127Z" fill="#263238" style="fill:#263238;fill:color(display-p3 0.1490 0.1961 0.2196);fill-opacity:1;"/>
<path d="M29.7627 6.92594L30.1015 6.67188C30.1015 6.67188 29.9713 7.13712 29.7627 6.92594Z" fill="#263238" style="fill:#263238;fill:color(display-p3 0.1490 0.1961 0.2196);fill-opacity:1;"/>
<path d="M29.0962 7.90137C29.2957 8.36593 29.5372 8.78851 29.8141 9.15754C29.7484 9.2592 29.6684 9.33867 29.5797 9.39047C29.491 9.44227 29.3957 9.46517 29.3004 9.45757L29.0962 7.90137Z" fill="#ED847E" style="fill:#ED847E;fill:color(display-p3 0.9294 0.5176 0.4941);fill-opacity:1;"/>
<path d="M28.6117 10.5048C28.2958 10.5109 27.9902 10.3405 27.7569 10.0285C27.7498 10.018 27.7458 10.0038 27.7458 9.98903C27.7458 9.97425 27.7498 9.96008 27.7569 9.94961C27.7603 9.94454 27.7643 9.94052 27.7687 9.93776C27.7732 9.93501 27.7779 9.93359 27.7827 9.93359C27.7875 9.93359 27.7923 9.93501 27.7967 9.93776C27.8012 9.94052 27.8052 9.94454 27.8085 9.94961C27.9523 10.134 28.1236 10.2666 28.3086 10.3368C28.4937 10.407 28.6874 10.4127 28.8742 10.3537C28.884 10.3507 28.8942 10.3536 28.9026 10.3616C28.911 10.3696 28.9169 10.3821 28.9191 10.3964C28.9201 10.4033 28.9201 10.4104 28.9191 10.4173C28.9182 10.4243 28.9163 10.4308 28.9135 10.4366C28.9108 10.4425 28.9073 10.4474 28.9033 10.4512C28.8992 10.455 28.8947 10.4576 28.8899 10.4588C28.7985 10.4877 28.7053 10.5031 28.6117 10.5048Z" fill="#263238" style="fill:#263238;fill:color(display-p3 0.1490 0.1961 0.2196);fill-opacity:1;"/>
<path d="M26.9674 6.98828C26.9549 6.99303 26.9418 6.99303 26.9293 6.98828C26.9208 6.98085 26.9134 6.97099 26.9075 6.95928C26.9017 6.94758 26.8975 6.93427 26.8952 6.92014C26.8929 6.90601 26.8925 6.89134 26.8941 6.87701C26.8958 6.86267 26.8993 6.84896 26.9046 6.83668C26.9734 6.65833 27.0706 6.50705 27.1877 6.39573C27.3049 6.28441 27.4387 6.21634 27.5777 6.19732C27.5874 6.19688 27.5971 6.19925 27.6062 6.20432C27.6153 6.20938 27.6236 6.21703 27.6307 6.22683C27.6378 6.23662 27.6435 6.24837 27.6475 6.2614C27.6515 6.27443 27.6537 6.28849 27.6539 6.30278C27.6542 6.31706 27.6526 6.33129 27.6492 6.34466C27.6457 6.35802 27.6405 6.37026 27.6339 6.38066C27.6272 6.39107 27.6192 6.39944 27.6103 6.40531C27.6014 6.41117 27.5919 6.4144 27.5822 6.41483C27.4673 6.43302 27.3571 6.49127 27.2607 6.58472C27.1643 6.67816 27.0845 6.8041 27.028 6.95203C27.0205 6.96449 27.0111 6.97423 27.0006 6.98052C26.9901 6.9868 26.9787 6.98946 26.9674 6.98828Z" fill="#263238" style="fill:#263238;fill:color(display-p3 0.1490 0.1961 0.2196);fill-opacity:1;"/>
<path d="M30.1511 6.10401C30.1386 6.1086 30.1255 6.1086 30.1129 6.10401C30.0144 6.01719 29.9031 5.96622 29.7883 5.95535C29.6736 5.94448 29.5587 5.97404 29.4533 6.04155C29.4357 6.05448 29.4154 6.0569 29.3965 6.04832C29.3777 6.03974 29.3619 6.02082 29.3524 5.99552C29.3477 5.98282 29.3448 5.96888 29.3439 5.95452C29.3429 5.94016 29.344 5.92566 29.3469 5.91189C29.3498 5.89811 29.3546 5.88533 29.3609 5.87429C29.3672 5.86325 29.375 5.85417 29.3838 5.84759C29.5114 5.76307 29.651 5.72491 29.7909 5.73636C29.9307 5.74781 30.0666 5.80852 30.187 5.91334C30.1955 5.92021 30.2031 5.92949 30.2092 5.94066C30.2153 5.95182 30.2199 5.96466 30.2226 5.97841C30.2253 5.99216 30.2261 6.00656 30.225 6.02078C30.2239 6.035 30.2209 6.04876 30.2161 6.06127C30.2085 6.07562 30.1986 6.08702 30.1872 6.09446C30.1759 6.10191 30.1635 6.10519 30.1511 6.10401Z" fill="#263238" style="fill:#263238;fill:color(display-p3 0.1490 0.1961 0.2196);fill-opacity:1;"/>
<path d="M23.0253 20.6973C22.7246 21.4293 22.406 22.181 22.1077 22.9327C21.8093 23.6845 21.5019 24.4296 21.2102 25.1846C20.9186 25.9396 20.6471 26.6947 20.416 27.4464C20.3532 27.6343 20.3039 27.8189 20.2455 28.0036C20.1872 28.1882 20.1513 28.363 20.1042 28.5443C20.0828 28.6264 20.067 28.7114 20.0571 28.7982C20.0571 28.841 20.0571 28.8278 20.0436 28.8212C20.0301 28.8147 20.0817 28.9465 20.268 29.0619C20.4845 29.1885 20.7104 29.277 20.941 29.3257C21.4936 29.4429 22.0521 29.4904 22.6102 29.4675C23.7896 29.4205 24.9662 29.2774 26.1348 29.0389L26.3592 30.4863C25.1672 31.0353 23.944 31.4259 22.7044 31.6534C22.0536 31.7772 21.3963 31.8092 20.7413 31.749C20.3695 31.7136 20.0023 31.6084 19.6487 31.4358C19.4328 31.3279 19.2276 31.1782 19.0385 30.9907C18.7935 30.7536 18.5917 30.4319 18.4509 30.0537C18.3101 29.6755 18.2345 29.2523 18.2308 28.8212C18.228 28.4632 18.2613 28.1066 18.3295 27.7629C18.3789 27.5222 18.426 27.2716 18.4799 27.0408C18.5337 26.8101 18.5875 26.5793 18.6481 26.3551C18.8859 25.4649 19.1484 24.6274 19.4334 23.8097C19.7183 22.9921 20.0122 22.1909 20.3173 21.4029C20.6224 20.6149 20.941 19.8467 21.2933 19.0752L23.0253 20.6973Z" fill="#FFC3BD" style="fill:#FFC3BD;fill:color(display-p3 1.0000 0.7647 0.7412);fill-opacity:1;"/>
<path d="M25.6771 29.3758L27.1735 28.2119L27.2296 30.6616C27.2296 30.6616 26.1841 31.2155 25.5649 30.5034L25.6771 29.3758Z" fill="#FFC3BD" style="fill:#FFC3BD;fill:color(display-p3 1.0000 0.7647 0.7412);fill-opacity:1;"/>
<path d="M28.0845 28.3867L27.8601 30.5561L27.2297 30.6616L27.1714 28.2119L28.0845 28.3867Z" fill="#FFC3BD" style="fill:#FFC3BD;fill:color(display-p3 1.0000 0.7647 0.7412);fill-opacity:1;"/>
<path d="M21.9327 16.4812C20.9926 16.7416 19.6757 20.6981 19.6757 20.6981L22.5923 24.4072C22.5923 24.4072 23.9272 20.8267 23.8285 19.0265C23.7432 17.4868 23.1285 16.1712 21.9327 16.4812Z" fill="#ABEAE4" style="fill:#ABEAE4;fill:color(display-p3 0.6706 0.9176 0.8941);fill-opacity:1;"/>
<path d="M12.494 84.0168C12.4689 84.0162 12.444 84.0106 12.42 84.0003C12.1956 83.8882 12.0475 83.275 11.9713 82.9222C11.9675 82.9133 11.9655 82.9031 11.9655 82.8926C11.9655 82.8821 11.9675 82.8718 11.9713 82.8629C11.9777 82.8574 11.9851 82.8545 11.9926 82.8545C12.0001 82.8545 12.0074 82.8574 12.0139 82.8629C12.0812 82.9156 12.687 83.3871 12.7004 83.7333C12.7033 83.7711 12.6989 83.8093 12.6879 83.8437C12.6768 83.878 12.6594 83.9072 12.6376 83.9278C12.5969 83.978 12.5469 84.009 12.494 84.0168ZM12.0767 83.0277C12.1822 83.519 12.3168 83.8421 12.4447 83.9047C12.4736 83.9175 12.5043 83.9191 12.5338 83.9093C12.5633 83.8995 12.5906 83.8786 12.6129 83.8487C12.6244 83.8387 12.6337 83.824 12.6396 83.8065C12.6456 83.7889 12.648 83.7693 12.6466 83.7498C12.6354 83.5256 12.2831 83.1893 12.0767 83.0112V83.0277Z" fill="#ABEAE4" style="fill:#ABEAE4;fill:color(display-p3 0.6706 0.9176 0.8941);fill-opacity:1;"/>
<path d="M12.5862 83.1548C12.3818 83.1537 12.1801 83.0852 11.9962 82.9544C11.9907 82.949 11.9861 82.9416 11.983 82.933C11.9799 82.9244 11.9782 82.9148 11.9782 82.9051C11.9786 82.8955 11.9807 82.8863 11.9842 82.8782C11.9878 82.8702 11.9927 82.8636 11.9984 82.8591C12.0186 82.8427 12.4943 82.4583 12.75 82.593C12.7816 82.6082 12.8104 82.6335 12.8344 82.667C12.8585 82.7006 12.8772 82.7415 12.8891 82.7868C12.9051 82.8307 12.9105 82.8812 12.9044 82.9301C12.8983 82.979 12.881 83.0235 12.8555 83.0562C12.7758 83.1323 12.681 83.1671 12.5862 83.1548ZM12.0971 82.9051C12.3013 83.0332 12.6962 83.1121 12.8084 82.9741C12.8263 82.9511 12.8442 82.9117 12.8084 82.8295C12.8001 82.7986 12.7874 82.7705 12.7712 82.7473C12.7549 82.724 12.7355 82.7062 12.7141 82.6949C12.5503 82.6062 12.234 82.8098 12.0904 82.9051H12.0971Z" fill="#ABEAE4" style="fill:#ABEAE4;fill:color(display-p3 0.6706 0.9176 0.8941);fill-opacity:1;"/>
<path d="M24.9797 90.987C24.7728 90.9805 24.5668 90.9429 24.365 90.875C24.3574 90.8718 24.3506 90.8655 24.3454 90.8567C24.3402 90.8479 24.3369 90.8371 24.3358 90.8255C24.3355 90.814 24.3374 90.8026 24.3414 90.7926C24.3454 90.7826 24.3512 90.7746 24.3583 90.7695C24.4503 90.7069 25.2557 90.1532 25.4801 90.3575C25.4989 90.3761 25.5139 90.4019 25.5234 90.4321C25.5329 90.4623 25.5365 90.4958 25.5339 90.5289C25.5322 90.5891 25.5212 90.648 25.5018 90.7011C25.4823 90.7542 25.455 90.8001 25.4217 90.8354C25.2892 90.9539 25.1343 91.0071 24.9797 90.987ZM24.4929 90.7992C24.7352 90.8684 25.1839 90.9541 25.3679 90.7497C25.3927 90.724 25.413 90.6899 25.427 90.6504C25.4411 90.6108 25.4485 90.5669 25.4486 90.5223C25.4486 90.4762 25.4486 90.4597 25.4284 90.4498C25.314 90.3345 24.8317 90.5948 24.4929 90.7992Z" fill="#ABEAE4" style="fill:#ABEAE4;fill:color(display-p3 0.6706 0.9176 0.8941);fill-opacity:1;"/>
<path d="M24.3737 90.8746C24.3657 90.8792 24.3569 90.8792 24.349 90.8746C24.3453 90.8669 24.3434 90.8577 24.3434 90.8482C24.3434 90.8388 24.3453 90.8296 24.349 90.8218C24.349 90.7724 24.5419 89.5888 24.9839 89.6646C25.0938 89.6844 25.1252 89.7635 25.1297 89.8295C25.1589 90.1295 24.6451 90.7361 24.3983 90.8845L24.3737 90.8746ZM24.9323 89.7569C24.6496 89.7569 24.4836 90.446 24.4298 90.7196C24.6967 90.5152 25.0624 90.024 25.0445 89.8295C25.0445 89.8295 25.0445 89.7734 24.9637 89.7602L24.9323 89.7569Z" fill="#ABEAE4" style="fill:#ABEAE4;fill:color(display-p3 0.6706 0.9176 0.8941);fill-opacity:1;"/>
<path d="M28.0665 7.41659L28.4075 7.16016C28.4075 7.16016 28.2774 7.62699 28.0665 7.41659Z" fill="#263238" style="fill:#263238;fill:color(display-p3 0.1490 0.1961 0.2196);fill-opacity:1;"/>
<path d="M67.4229 18.1164C67.4117 18.3439 67.3983 18.5055 67.3825 18.6934C67.3668 18.8813 67.3489 19.0495 67.3287 19.2242C67.2883 19.577 67.2412 19.9232 67.1896 20.2694C67.0847 20.9592 66.9551 21.6404 66.8015 22.3103C66.4884 23.6641 66.0634 24.9563 65.5361 26.1579L65.3297 26.6063L65.2781 26.7151L65.2467 26.781L65.1996 26.8734C65.1312 26.9923 65.0562 27.1026 64.9752 27.2031C64.7114 27.5515 64.3967 27.8064 64.0554 27.9482C63.5316 28.1552 62.9871 28.2255 62.4468 28.1559C61.4924 28.0401 60.5541 27.7248 59.6603 27.2196L59.9026 25.7985C60.7463 25.9252 61.5957 25.9505 62.4423 25.8744C62.8003 25.8445 63.1529 25.7333 63.4878 25.5447C63.5746 25.4919 63.6515 25.4094 63.7121 25.304C63.6874 25.3534 63.8377 24.9743 63.9365 24.7369C64.3289 23.6722 64.6454 22.5507 64.881 21.3904C65.0021 20.8035 65.1054 20.21 65.1951 19.6166C65.24 19.3165 65.2803 19.0165 65.3162 18.7198L65.3634 18.2747L65.4037 17.8691L67.4229 18.1164Z" fill="#B55B52" style="fill:#B55B52;fill:color(display-p3 0.7098 0.3569 0.3216);fill-opacity:1;"/>
<path d="M67.8893 16.1808C67.9386 18.0272 67.4518 21.3572 67.4518 21.3572L64.3423 20.8033C64.3423 20.8033 64.2278 15.9303 64.8313 14.7532C65.8432 12.7849 67.8444 14.4334 67.8893 16.1808Z" fill="#263238" style="fill:#263238;fill:color(display-p3 0.1490 0.1961 0.2196);fill-opacity:1;"/>
<path d="M60.3266 25.9931L58.4644 25.0205L58.8526 27.0713C58.8526 27.0713 59.7231 27.8197 60.2211 26.9691L60.3266 25.9931Z" fill="#B55B52" style="fill:#B55B52;fill:color(display-p3 0.7098 0.3569 0.3216);fill-opacity:1;"/>
<path d="M57.8251 25.5447L57.5693 26.9921L58.8548 27.0713L58.4667 25.0205L57.8251 25.5447Z" fill="#B55B52" style="fill:#B55B52;fill:color(display-p3 0.7098 0.3569 0.3216);fill-opacity:1;"/>
<path d="M49.0796 35.1253C50.3756 35.1541 51.6626 34.8039 52.8656 34.095C54.0686 33.3861 55.1637 32.3327 56.0872 30.9961C57.0106 29.6594 57.7439 28.0663 58.2445 26.3092C58.745 24.5522 59.0028 22.6665 59.0028 20.7617C59.0028 18.8569 58.745 16.9712 58.2445 15.2141C57.7439 13.4571 57.0106 11.8639 56.0872 10.5273C55.1637 9.19066 54.0686 8.13725 52.8656 7.42836C51.6626 6.71948 50.3756 6.36928 49.0796 6.39813H47.812V35.1253H49.0796Z" fill="#946811" style="fill:#946811;fill:color(display-p3 0.5785 0.4073 0.0650);fill-opacity:1;"/>
<path d="M47.8121 35.125C53.2108 35.125 57.5872 28.6934 57.5872 20.7597C57.5872 12.8261 53.2108 6.39453 47.8121 6.39453C42.4135 6.39453 38.037 12.8261 38.037 20.7597C38.037 28.6934 42.4135 35.125 47.8121 35.125Z" fill="#FCB62B" style="fill:#FCB62B;fill:color(display-p3 0.9881 0.7146 0.1677);fill-opacity:1;"/>
<path opacity="0.4" d="M47.8121 35.125C53.2108 35.125 57.5872 28.6934 57.5872 20.7597C57.5872 12.8261 53.2108 6.39453 47.8121 6.39453C42.4135 6.39453 38.037 12.8261 38.037 20.7597C38.037 28.6934 42.4135 35.125 47.8121 35.125Z" fill="#FCB62B" style="fill:#FCB62B;fill:color(display-p3 0.9881 0.7146 0.1677);fill-opacity:1;"/>
<path opacity="0.2" d="M53.941 29.7687C57.3256 24.7948 57.3256 16.7305 53.941 11.7566C50.5564 6.78274 45.0689 6.78275 41.6843 11.7566C38.2997 16.7306 38.2997 24.7948 41.6843 29.7687C45.0689 34.7426 50.5564 34.7426 53.941 29.7687Z" fill="#FCB62B" style="fill:#FCB62B;fill:color(display-p3 0.9881 0.7146 0.1677);fill-opacity:1;"/>
<path d="M52.2678 21.5815C51.862 20.9124 51.3155 20.4621 50.7153 20.3022C51.1177 20.1213 51.4811 19.7895 51.7698 19.3395C52.1299 18.7347 52.3228 17.9537 52.3105 17.1503C52.3169 16.6702 52.2524 16.1937 52.1215 15.7538C51.9906 15.3138 51.7963 14.9207 51.5522 14.6017C51.0481 13.9137 50.3242 13.5697 49.3804 13.5697H48.7993V11.1562H47.7022V13.5697H46.3427V11.1562H45.2456V13.5697H42.8607V16.4843H43.7244V25.0401H42.8674V27.9514H45.2523V30.3648H46.3494V27.9514H47.709V30.3648H48.8061V27.9514H48.9452C49.3959 27.9197 49.8452 27.8536 50.2913 27.7536C50.6913 27.7081 51.0819 27.5515 51.4422 27.292C51.8449 26.9566 52.1795 26.4695 52.4114 25.8808C52.6494 25.269 52.7711 24.5743 52.7637 23.8696C52.7865 23.045 52.611 22.2349 52.2678 21.5815ZM46.7689 16.4843H48.1038C48.5637 16.4843 48.8846 16.603 49.0686 16.8371C49.1626 16.9605 49.2365 17.1135 49.2847 17.2848C49.3329 17.4561 49.3541 17.6411 49.3467 17.8262C49.3545 18.0181 49.3337 18.2102 49.2856 18.389C49.2376 18.5679 49.1635 18.7291 49.0686 18.8614C48.8846 19.0988 48.557 19.2175 48.0859 19.2175H46.7689V16.4843ZM49.4141 24.4565C49.1897 24.7269 48.833 24.8621 48.3125 24.8621H46.7689V21.9508H48.3057C48.8352 21.9508 49.2054 22.0794 49.4163 22.3365C49.5195 22.4598 49.602 22.6165 49.6573 22.7944C49.7125 22.9723 49.7391 23.1665 49.7349 23.3619C49.7407 23.568 49.7149 23.7735 49.6594 23.963C49.6038 24.1524 49.52 24.3211 49.4141 24.4565Z" fill="white" style="fill:white;fill-opacity:1;"/>
<path d="M58.572 6.71145C58.572 6.92567 58.489 7.10034 58.3948 7.10364C58.3005 7.10694 58.222 6.93226 58.2242 6.72134C58.2265 6.51041 58.305 6.33244 58.4015 6.32915C58.498 6.32585 58.5742 6.50053 58.572 6.71145Z" fill="#263238" style="fill:#263238;fill:color(display-p3 0.1490 0.1961 0.2196);fill-opacity:1;"/>
<path d="M58.4445 6.34183L58.0833 6.19043C58.0833 6.19043 58.2695 6.59525 58.4445 6.34183Z" fill="#263238" style="fill:#263238;fill:color(display-p3 0.1490 0.1961 0.2196);fill-opacity:1;"/>
<path d="M58.4465 6.92285C58.3108 7.41457 58.1304 7.87705 57.9103 8.29772C57.9855 8.37351 58.0709 8.42453 58.1608 8.4473C58.2506 8.47006 58.3427 8.46402 58.4308 8.4296L58.4465 6.92285Z" fill="#A02724" style="fill:#A02724;fill:color(display-p3 0.6275 0.1529 0.1412);fill-opacity:1;"/>
<path d="M58.3883 5.29231C58.4015 5.29718 58.4154 5.29718 58.4287 5.29231C58.532 5.23797 58.6425 5.21947 58.7515 5.23828C58.8605 5.25708 58.965 5.31267 59.0569 5.40066C59.075 5.42069 59.0979 5.42934 59.1204 5.42473C59.1315 5.42244 59.1422 5.41696 59.1519 5.40861C59.1616 5.40026 59.1701 5.38919 59.1769 5.37604C59.1837 5.36289 59.1886 5.34791 59.1914 5.33196C59.1942 5.31602 59.1949 5.29942 59.1933 5.28311C59.1918 5.2668 59.188 5.2511 59.1823 5.2369C59.1766 5.22271 59.169 5.2103 59.1601 5.20038C59.0454 5.09006 58.915 5.01968 58.7789 4.99463C58.6428 4.96959 58.5045 4.99055 58.3748 5.05592C58.364 5.06072 58.3541 5.06869 58.3454 5.07932C58.3368 5.08996 58.3298 5.10305 58.3248 5.11779C58.3197 5.13254 58.3168 5.14863 58.3161 5.16508C58.3155 5.18154 58.3171 5.19801 58.321 5.21351C58.3264 5.23421 58.3355 5.25243 58.3473 5.26627C58.3592 5.28012 58.3733 5.28911 58.3883 5.29231Z" fill="#263238" style="fill:#263238;fill:color(display-p3 0.1490 0.1961 0.2196);fill-opacity:1;"/>
<path d="M62.8728 8.99023C62.7763 10.5959 63.142 13.2236 63.9676 14.1171C63.9676 14.1171 63.3462 15.8052 61.3562 16.1976C59.1665 16.6295 60.194 14.8194 60.194 14.8194C61.3584 14.16 61.235 12.884 60.9389 11.7103L62.8728 8.99023Z" fill="#B55B52" style="fill:#B55B52;fill:color(display-p3 0.7098 0.3569 0.3216);fill-opacity:1;"/>
<path d="M58.8951 18.08C58.6573 19.7513 58.3578 21.4023 57.9977 23.0256C57.6458 24.6606 57.2247 26.2617 56.7368 27.8195L56.6448 28.1162C56.6067 28.2316 56.5573 28.3668 56.5125 28.4888C56.4244 28.717 56.327 28.9372 56.2208 29.1482C56.026 29.5242 55.8139 29.88 55.5859 30.2132C55.1589 30.8331 54.7047 31.4113 54.2263 31.9441C53.2995 32.9761 52.319 33.8999 51.294 34.707L50.7443 33.4805C51.5946 32.4387 52.4449 31.3506 53.2302 30.2362C53.6174 29.6955 53.9844 29.1243 54.3295 28.5251C54.4872 28.249 54.6326 27.9583 54.7648 27.6546C54.8213 27.5225 54.873 27.386 54.9196 27.2458L54.9734 27.0579L55.0474 26.7776C55.2449 26.0325 55.4199 25.2676 55.5971 24.5027C55.7744 23.7378 55.9292 22.9597 56.084 22.1947C56.3868 20.6385 56.6718 19.0395 56.9208 17.4932L58.8951 18.08Z" fill="#B55B52" style="fill:#B55B52;fill:color(display-p3 0.7098 0.3569 0.3216);fill-opacity:1;"/>
<path d="M51.3949 34.5912L50.3628 35.5803L49.8513 34.2912C49.8513 34.2912 50.8654 32.5108 51.4779 33.7768L51.3949 34.5912Z" fill="#B55B52" style="fill:#B55B52;fill:color(display-p3 0.7098 0.3569 0.3216);fill-opacity:1;"/>
<path d="M51.1282 33.2624L50.5449 33.1338L49.8898 33.3382L49.7215 33.6184L50.1478 33.7108L50.2599 33.958L50.4035 34.0932L51.1282 33.2624Z" fill="#B55B52" style="fill:#B55B52;fill:color(display-p3 0.7098 0.3569 0.3216);fill-opacity:1;"/>
<path d="M49.3373 35.709L48.7697 35.0364L49.8511 34.2979L50.3626 35.587L49.3373 35.709Z" fill="#B55B52" style="fill:#B55B52;fill:color(display-p3 0.7098 0.3569 0.3216);fill-opacity:1;"/>
<path d="M66.106 90.4004L64.2955 90.5983L63.757 84.4888L65.5676 84.291L66.106 90.4004Z" fill="#B55B52" style="fill:#B55B52;fill:color(display-p3 0.7098 0.3569 0.3216);fill-opacity:1;"/>
<path d="M77.6985 82.6389L76.1303 84.0401L73.5233 79.2528L75.0915 77.8516L77.6985 82.6389Z" fill="#B55B52" style="fill:#B55B52;fill:color(display-p3 0.7098 0.3569 0.3216);fill-opacity:1;"/>
<path d="M75.6611 83.5257L77.1486 81.4222C77.1732 81.3851 77.2062 81.3626 77.2414 81.3589C77.2765 81.3553 77.3114 81.3708 77.3393 81.4024L78.6069 82.84C78.6375 82.8799 78.662 82.9289 78.6788 82.9837C78.6956 83.0385 78.7042 83.098 78.7042 83.1581C78.7042 83.2183 78.6956 83.2777 78.6788 83.3325C78.662 83.3874 78.6375 83.4364 78.6069 83.4763C78.0796 84.1983 77.8014 84.5083 77.1463 85.4347C76.7447 86.0051 76.1951 86.8953 75.6387 87.6833C75.0823 88.4713 74.5416 87.7262 74.7256 87.3272C75.5557 85.5402 75.43 84.8709 75.5063 83.9577C75.5217 83.7914 75.5765 83.6384 75.6611 83.5257Z" fill="#263238" style="fill:#263238;fill:color(display-p3 0.1490 0.1961 0.2196);fill-opacity:1;"/>
<path d="M64.1834 90.2188H66.2183C66.2534 90.2182 66.2874 90.2362 66.3142 90.2695C66.341 90.3028 66.3587 90.3492 66.3641 90.4001L66.6378 92.7641C66.6436 92.8231 66.6407 92.8833 66.6292 92.9405C66.6178 92.9978 66.5981 93.0507 66.5715 93.0958C66.5449 93.1408 66.512 93.1769 66.475 93.2016C66.4381 93.2263 66.398 93.239 66.3574 93.2389C65.6462 93.2389 65.3029 93.1597 64.4077 93.1597C63.8581 93.1597 62.7206 93.2422 61.96 93.2422C61.1995 93.2422 61.1411 92.1376 61.4552 92.0387C62.8664 91.5903 63.4161 90.9705 63.8827 90.3902C63.9658 90.2821 64.0725 90.2213 64.1834 90.2188Z" fill="#263238" style="fill:#263238;fill:color(display-p3 0.1490 0.1961 0.2196);fill-opacity:1;"/>
<path opacity="0.2" d="M63.7594 84.4885L64.0578 87.8844L65.8459 87.4426L65.5699 84.2939L63.7594 84.4885Z" fill="black" style="fill:black;fill-opacity:1;"/>
<path opacity="0.2" d="M75.0915 77.8516L73.5233 79.2561L74.6024 81.2343L76.2043 79.8924L75.0915 77.8516Z" fill="black" style="fill:black;fill-opacity:1;"/>
<path d="M67.0191 30.1474L59.6872 31.5948C56.8469 16.4811 57.686 16.0723 57.686 16.0723C58.2347 15.6919 58.7989 15.3616 59.3754 15.0832L59.4763 15.037C59.9497 14.8293 60.0484 14.7996 60.6789 14.5886C61.7625 14.3084 62.7676 14.0908 64.0083 13.9292L64.2326 13.9029C64.457 13.8798 64.6813 13.8633 64.9057 13.8534C65.0515 13.8534 65.1951 13.8534 65.332 13.8369H66.0476C66.1879 13.8417 66.326 13.8892 66.4531 13.9764C66.5803 14.0636 66.6937 14.1886 66.7863 14.3435C66.8789 14.4985 66.9485 14.68 66.9909 14.8765C67.0333 15.0731 67.0475 15.2804 67.0326 15.4854C66.4089 23.4676 66.6085 26.0788 67.0191 30.1474Z" fill="#263238" style="fill:#263238;fill:color(display-p3 0.1490 0.1961 0.2196);fill-opacity:1;"/>
<path opacity="0.2" d="M58.9803 20.6976C59.1263 22.2605 58.9901 23.8523 58.5854 25.3135C58.0963 22.3659 57.8338 20.3679 57.7015 18.9832C58.2534 18.9469 58.8367 19.2634 58.9803 20.6976Z" fill="black" style="fill:black;fill-opacity:1;"/>
<path d="M57.7488 16.0295C56.4946 17.0845 55.6219 19.6002 55.3594 21.0607L58.0314 24.6545C58.0314 24.6545 59.759 19.7683 59.308 18.4462C58.8369 17.0713 58.2244 15.6305 57.7488 16.0295Z" fill="#263238" style="fill:#263238;fill:color(display-p3 0.1490 0.1961 0.2196);fill-opacity:1;"/>
<path d="M63.4921 6.02583C63.3553 8.66347 63.3373 9.76468 62.413 11.1297C61.0242 13.1837 58.839 12.4485 58.433 9.8471C58.0695 7.49961 58.3499 3.58272 60.1268 2.52108C60.5069 2.27153 60.9247 2.17183 61.3391 2.23181C61.7534 2.29178 62.1499 2.50937 62.4896 2.86312C62.8293 3.21687 63.1004 3.69458 63.2762 4.24917C63.452 4.80376 63.5264 5.41609 63.4921 6.02583Z" fill="#B55B52" style="fill:#B55B52;fill:color(display-p3 0.7098 0.3569 0.3216);fill-opacity:1;"/>
<path d="M59.7926 7.0842C59.9766 6.15114 58.5497 5.08949 58.3971 3.65858C58.1997 1.80234 59.1779 0.302186 60.091 1.1759C60.4612 -0.0670829 62.9739 -0.591308 64.3537 0.94841C65.9062 2.67606 64.0037 4.50262 65.5518 6.03245C66.7857 7.25235 66.954 8.01067 66.1912 9.47126C65.6123 10.5824 67.1088 10.345 66.7296 12.2243C66.3505 14.1036 58.6103 14.7927 59.6378 10.5758C60.5509 6.85011 59.4291 8.98989 59.7926 7.0842Z" fill="#263238" style="fill:#263238;fill:color(display-p3 0.1490 0.1961 0.2196);fill-opacity:1;"/>
<path d="M60.2277 6.87685C60.2166 7.36595 60.103 7.83809 59.9023 8.22864C59.6241 8.78254 59.2988 8.63417 59.2293 8.12313C59.1575 7.66484 59.2181 6.8241 59.5703 6.44164C59.9225 6.05918 60.2254 6.32954 60.2277 6.87685Z" fill="#B55B52" style="fill:#B55B52;fill:color(display-p3 0.7098 0.3569 0.3216);fill-opacity:1;"/>
<path d="M66.1126 9.56987C66.1058 9.56972 66.0992 9.5663 66.0938 9.56014C66.0884 9.55398 66.0845 9.5454 66.0827 9.53571C66.081 9.52602 66.0814 9.51575 66.0839 9.50644C66.0865 9.49714 66.091 9.48931 66.0969 9.48415C66.5837 9.07201 66.844 8.49503 66.8328 7.89497C66.8193 7.12346 66.3841 6.34536 65.6729 5.81454C64.8248 5.1815 64.8899 4.32427 64.9549 3.50661C65.02 2.68894 65.0851 1.81193 64.2572 1.10636C64.2499 1.09956 64.2446 1.08916 64.2421 1.07706C64.2397 1.06496 64.2402 1.05196 64.2437 1.04042C64.2484 1.02977 64.2556 1.02212 64.2639 1.01905C64.2723 1.01599 64.2811 1.01774 64.2886 1.02393C65.1546 1.76247 65.0851 2.65267 65.0178 3.5165C64.9504 4.38032 64.8921 5.14194 65.6908 5.7453C66.4244 6.28931 66.8709 7.09708 66.8866 7.90486C66.8866 8.56427 66.6264 9.15114 66.1193 9.57646C66.1169 9.57477 66.1146 9.57255 66.1126 9.56987Z" fill="#263238" style="fill:#263238;fill:color(display-p3 0.1490 0.1961 0.2196);fill-opacity:1;"/>
<path d="M61.6231 31.212C61.6231 31.212 64.4702 48.8908 65.8006 59.049C67.2028 69.7644 73.9379 80.9281 73.9379 80.9281L76.2241 79.0554C76.2241 79.0554 71.986 68.8675 70.6152 58.861C67.8242 38.5513 69.7178 34.4629 67.0255 30.1504L61.6231 31.212Z" fill="#ABEAE4" style="fill:#ABEAE4;fill:color(display-p3 0.6706 0.9176 0.8941);fill-opacity:1;"/>
<path d="M73.7113 81.2414L76.5651 78.9038L76.1478 77.6641L72.9463 79.8302L73.7113 81.2414Z" fill="#263238" style="fill:#263238;fill:color(display-p3 0.1490 0.1961 0.2196);fill-opacity:1;"/>
<path opacity="0.2" d="M63.1355 35.0534C65.3498 37.8789 65.1098 47.9118 64.8787 52.4156C63.9499 45.993 62.8326 38.845 62.1864 34.7072C62.4108 34.45 62.7294 34.5456 63.1355 35.0534Z" fill="black" style="fill:black;fill-opacity:1;"/>
<path d="M75.0373 84.7463C75.0589 84.7514 75.0808 84.7514 75.1024 84.7463C75.3267 84.7463 75.5937 84.232 75.7283 83.9287C75.7327 83.9183 75.735 83.9063 75.735 83.8941C75.735 83.8818 75.7327 83.8698 75.7283 83.8594C75.7238 83.8485 75.7169 83.8401 75.7089 83.8353C75.7008 83.8306 75.6919 83.8298 75.6834 83.8331C75.6117 83.8528 74.9633 84.054 74.878 84.3705C74.8686 84.4052 74.8655 84.4429 74.869 84.4799C74.8725 84.5169 74.8826 84.5519 74.8982 84.5815C74.9303 84.6583 74.9794 84.7165 75.0373 84.7463ZM75.5959 83.9979C75.4075 84.3935 75.2258 84.6276 75.1001 84.6309C75.0733 84.631 75.0469 84.6207 75.0237 84.601C75.0005 84.5813 74.9812 84.553 74.9678 84.5188C74.9606 84.5062 74.9559 84.491 74.9539 84.4748C74.9519 84.4587 74.9529 84.442 74.9565 84.4265C75.0036 84.2584 75.3379 84.0902 75.5959 84.0012V83.9979Z" fill="#ABEAE4" style="fill:#ABEAE4;fill:color(display-p3 0.6706 0.9176 0.8941);fill-opacity:1;"/>
<path d="M59.7973 31.6011C59.7973 31.6011 58.5163 52.5933 59.205 60.592C59.9319 68.9203 63.6315 87.0375 63.6315 87.0375L66.2408 86.543C66.2408 86.543 64.1206 68.5873 63.7437 60.3447C63.3331 51.3537 65.1571 30.5361 65.1571 30.5361L59.7973 31.6011Z" fill="#ABEAE4" style="fill:#ABEAE4;fill:color(display-p3 0.6706 0.9176 0.8941);fill-opacity:1;"/>
<path d="M63.0837 87.2645L66.8058 86.5589L66.7474 84.9434L62.7113 85.5171L63.0837 87.2645Z" fill="#263238" style="fill:#263238;fill:color(display-p3 0.1490 0.1961 0.2196);fill-opacity:1;"/>
<path d="M75.1338 83.9193C75.3195 83.993 75.5138 84.0075 75.7037 83.962C75.7112 83.959 75.718 83.9531 75.7235 83.9451C75.729 83.937 75.733 83.927 75.7351 83.916C75.7366 83.9055 75.7364 83.8947 75.7345 83.8844C75.7325 83.8741 75.7289 83.8646 75.7239 83.8569C75.7081 83.8339 75.3537 83.2984 75.0912 83.3148C75.0573 83.3154 75.0239 83.3273 74.9936 83.3495C74.9633 83.3717 74.9368 83.4036 74.9162 83.4429C74.8915 83.4776 74.8758 83.5237 74.8717 83.5734C74.8676 83.6231 74.8754 83.6733 74.8937 83.7156C74.9557 83.8214 75.0403 83.8932 75.1338 83.9193ZM75.6027 83.8601C75.3783 83.8963 75.0328 83.801 74.9655 83.6499C74.9543 83.6236 74.9453 83.5875 74.9812 83.5218C74.9949 83.4965 75.0123 83.476 75.0321 83.4618C75.0519 83.4476 75.0736 83.44 75.0957 83.4396C75.2904 83.4993 75.4676 83.6463 75.6027 83.8601Z" fill="#ABEAE4" style="fill:#ABEAE4;fill:color(display-p3 0.6706 0.9176 0.8941);fill-opacity:1;"/>
<path d="M63.5102 90.6839C63.701 90.6789 63.8911 90.6469 64.0778 90.5883C64.0864 90.5857 64.0943 90.5792 64.1003 90.5698C64.1063 90.5603 64.1102 90.5484 64.1114 90.5356C64.1129 90.5225 64.1116 90.5091 64.1075 90.4972C64.1035 90.4854 64.097 90.4757 64.089 90.4696C64.006 90.407 63.2724 89.8632 63.0547 90.0478C63.0343 90.0639 63.0172 90.0876 63.005 90.1166C62.9928 90.1455 62.986 90.1786 62.9852 90.2126C62.9812 90.2697 62.9866 90.3274 63.0011 90.3808C63.0155 90.4342 63.0386 90.4816 63.0682 90.5191C63.1987 90.6454 63.3544 90.7035 63.5102 90.6839ZM63.9342 90.4993C63.5349 90.5949 63.2365 90.5718 63.1243 90.4268C63.1054 90.401 63.0907 90.3691 63.0813 90.3337C63.072 90.2983 63.0683 90.2603 63.0704 90.2225C63.0705 90.209 63.0731 90.1957 63.0778 90.1841C63.0825 90.1725 63.0893 90.163 63.0974 90.1566C63.2163 90.0577 63.6336 90.2884 63.9342 90.4993Z" fill="#ABEAE4" style="fill:#ABEAE4;fill:color(display-p3 0.6706 0.9176 0.8941);fill-opacity:1;"/>
<path d="M64.0685 90.5949C64.0773 90.5978 64.0865 90.5978 64.0954 90.5949C64.1012 90.5877 64.1057 90.5785 64.1084 90.5681C64.1112 90.5578 64.1121 90.5465 64.1111 90.5355C64.1111 90.4894 64.0258 89.4014 63.6198 89.4014H63.5839C63.4672 89.4179 63.4336 89.5036 63.4268 89.5761C63.3932 89.8761 63.8307 90.4531 64.0528 90.5982L64.0685 90.5949ZM63.6198 89.5168C63.8823 89.5168 63.9855 90.1498 64.0169 90.4201C63.7925 90.2223 63.4941 89.7607 63.5121 89.5893C63.5121 89.5728 63.5121 89.5299 63.5951 89.5201L63.6198 89.5168Z" fill="#ABEAE4" style="fill:#ABEAE4;fill:color(display-p3 0.6706 0.9176 0.8941);fill-opacity:1;"/>
<path d="M67.0816 29.4971L67.4809 30.3906C67.5124 30.4598 67.4585 30.5456 67.3733 30.5621L59.6846 32.0787C59.6196 32.0787 59.5612 32.0556 59.5523 31.9963L59.4177 31.0533C59.4177 30.9874 59.4603 30.9181 59.5343 30.905L66.956 29.4411C66.9784 29.4339 67.0017 29.4352 67.0237 29.4451C67.0457 29.4549 67.0656 29.4728 67.0816 29.4971Z" fill="#ABEAE4" style="fill:#ABEAE4;fill:color(display-p3 0.6706 0.9176 0.8941);fill-opacity:1;"/>
<path opacity="0.5" d="M67.0816 29.4971L67.4809 30.3906C67.5124 30.4598 67.4585 30.5456 67.3733 30.5621L59.6846 32.0787C59.6196 32.0787 59.5612 32.0556 59.5523 31.9963L59.4177 31.0533C59.4177 30.9874 59.4603 30.9181 59.5343 30.905L66.956 29.4411C66.9784 29.4339 67.0017 29.4352 67.0237 29.4451C67.0457 29.4549 67.0656 29.4728 67.0816 29.4971Z" fill="white" style="fill:white;fill-opacity:1;"/>
<path d="M66.1732 30.9182L66.3729 30.8787C66.411 30.8787 66.4402 30.8358 66.4335 30.7995L66.2517 29.573C66.2517 29.5401 66.2091 29.517 66.1687 29.5236L65.9713 29.5632C65.9309 29.5632 65.9017 29.606 65.9085 29.6423L66.0902 30.8688C66.0969 30.8886 66.1328 30.9182 66.1732 30.9182Z" fill="#ABEAE4" style="fill:#ABEAE4;fill:color(display-p3 0.6706 0.9176 0.8941);fill-opacity:1;"/>
<path d="M61.152 31.9077L61.3494 31.8681C61.3898 31.8681 61.4168 31.8253 61.4123 31.789L61.2283 30.5625C61.2283 30.5262 61.1879 30.5031 61.1475 30.513L60.9478 30.5493C60.9097 30.5493 60.8805 30.5955 60.8873 30.6317L61.069 31.8549C61.0757 31.9077 61.1116 31.9077 61.152 31.9077Z" fill="#ABEAE4" style="fill:#ABEAE4;fill:color(display-p3 0.6706 0.9176 0.8941);fill-opacity:1;"/>
</svg>
