<svg width="113" height="91" viewBox="0 0 113 91" fill="none" xmlns="http://www.w3.org/2000/svg">
<path d="M56.5 91C87.7041 91 113 79.3569 113 64.9944C113 50.632 87.7041 38.9889 56.5 38.9889C25.2959 38.9889 0 50.632 0 64.9944C0 79.3569 25.2959 91 56.5 91Z" fill="#F5F5F5" style="fill:#F5F5F5;fill:color(display-p3 0.9608 0.9608 0.9608);fill-opacity:1;"/>
<path d="M54.2542 83.2066C59.8553 83.2066 64.3959 80.6889 64.3959 77.5832C64.3959 74.4774 59.8553 71.9597 54.2542 71.9597C48.6531 71.9597 44.1126 74.4774 44.1126 77.5832C44.1126 80.6889 48.6531 83.2066 54.2542 83.2066Z" fill="#E0E0E0" style="fill:#E0E0E0;fill:color(display-p3 0.8784 0.8784 0.8784);fill-opacity:1;"/>
<path d="M48.9835 58.5405L21.8576 73.586C21.094 74.0174 19.7623 73.957 18.8797 73.4674L9.25012 68.1265C8.3698 67.639 8.27324 66.8991 9.02555 66.4763L36.1515 51.4308C36.9151 50.9994 38.2468 51.0598 39.1293 51.5495L48.759 56.8903C49.6505 57.3778 49.7471 58.1177 48.9835 58.5405Z" fill="#E0E0E0" style="fill:#E0E0E0;fill:color(display-p3 0.8784 0.8784 0.8784);fill-opacity:1;"/>
<path d="M12.6726 17.4378C12.6728 16.8097 12.845 16.1927 13.1717 15.6487C13.4985 15.1046 13.9684 14.6527 14.5343 14.3381L38.2311 1.19722C38.3892 1.10967 38.5657 1.05725 38.7476 1.04382C38.9296 1.03038 39.1124 1.05627 39.2825 1.11958C39.4527 1.18289 39.6059 1.28202 39.731 1.40968C39.8561 1.53734 39.9498 1.69028 40.0052 1.85728C39.9416 1.58973 39.8225 1.33723 39.655 1.11487C39.4876 0.892501 39.2752 0.704825 39.0306 0.563046L38.9452 0.51559C38.3555 0.178603 37.6821 0.000511164 36.9959 5.22584e-05C36.7766 -0.00194285 36.5609 0.0532228 36.3716 0.159675L12.6749 13.307C12.108 13.6208 11.6373 14.0725 11.3101 14.6167C10.9829 15.1609 10.8107 15.7783 10.8109 16.4067V65.6287C10.8112 65.8344 10.8677 66.0363 10.9748 66.2144C11.082 66.3924 11.2359 66.5403 11.4213 66.6432C11.6067 66.7461 11.8169 66.8004 12.031 66.8007C12.2451 66.8009 12.4555 66.7471 12.6412 66.6447L12.6726 66.6274V17.4378Z" fill="#37474F" style="fill:#37474F;fill:color(display-p3 0.2157 0.2784 0.3098);fill-opacity:1;"/>
<path d="M38.1997 54.5349L14.5029 67.6758C14.3175 67.7788 14.1072 67.8332 13.893 67.8333C13.6788 67.8335 13.4684 67.7795 13.2829 67.6767C13.0973 67.5739 12.9433 67.426 12.8361 67.2479C12.729 67.0698 12.6726 66.8677 12.6726 66.662V17.4378C12.6729 16.8097 12.845 16.1927 13.1717 15.6487C13.4985 15.1046 13.9684 14.6527 14.5343 14.3381L38.2311 1.19723C38.4167 1.09479 38.6272 1.041 38.8412 1.04126C39.0553 1.04152 39.2656 1.09582 39.451 1.19872C39.6363 1.30162 39.7903 1.4495 39.8974 1.62755C40.0046 1.8056 40.0611 2.00756 40.0614 2.21321V51.4352C40.0616 52.0634 39.8897 52.6805 39.5629 53.2247C39.2361 53.7688 38.7659 54.2207 38.1997 54.5349Z" fill="#455A64" style="fill:#455A64;fill:color(display-p3 0.2706 0.3529 0.3922);fill-opacity:1;"/>
<path d="M12.6726 66.662V17.4379C12.6729 16.9016 12.7988 16.3723 13.0409 15.8891L11.2084 14.8105C10.9474 15.3092 10.8113 15.8595 10.8109 16.4176V66.0516C10.811 66.2468 10.8638 66.4387 10.9642 66.6085C11.0645 66.7782 11.2091 66.9201 11.3836 67.0201L12.329 67.5594C12.6563 67.7471 13.0303 67.8463 13.4115 67.8463H13.8831C13.7226 67.8449 13.5641 67.8131 13.4164 67.7528C13.2688 67.6926 13.1349 67.6049 13.0225 67.495C12.9101 67.385 12.8214 67.2548 12.7613 67.1119C12.7013 66.969 12.6712 66.8161 12.6726 66.662Z" fill="#263238" style="fill:#263238;fill:color(display-p3 0.1490 0.1961 0.2196);fill-opacity:1;"/>
<path d="M37.3845 5.92969V47.3129C37.384 47.8678 37.2317 48.4127 36.9428 48.8932C36.6538 49.3736 36.2385 49.7727 35.7384 50.0503L14.8128 61.6531C14.655 61.7411 14.4764 61.7886 14.294 61.7912C14.3544 61.9253 14.4436 62.0456 14.5559 62.1443C14.6681 62.2429 14.8009 62.3176 14.9453 62.3634C15.0898 62.4093 15.2427 62.4252 15.394 62.4103C15.5454 62.3953 15.6917 62.3497 15.8234 62.2765L36.7489 50.6715C37.2489 50.394 37.6641 49.9949 37.9527 49.5144C38.2412 49.0339 38.393 48.4889 38.3928 47.9342V6.96076C38.3933 6.69781 38.2892 6.4446 38.1017 6.25294C37.9143 6.06128 37.6577 5.94564 37.3845 5.92969Z" fill="#37474F" style="fill:#37474F;fill:color(display-p3 0.2157 0.2784 0.3098);fill-opacity:1;"/>
<path d="M14.294 61.7804C14.4764 61.7778 14.655 61.7303 14.8127 61.6423L35.7383 50.0395C36.2368 49.7628 36.6511 49.3655 36.9399 48.8871C37.2287 48.4087 37.382 47.8659 37.3844 47.3129V5.92969C37.1743 5.93139 36.9672 5.9778 36.7781 6.06558L15.8525 17.6684C15.3521 17.9457 14.9365 18.3447 14.6475 18.8252C14.3585 19.3057 14.2064 19.8508 14.2064 20.4057V61.3684C14.2062 61.5123 14.2367 61.6547 14.2962 61.7868L14.294 61.7804Z" fill="#0CA999" style="fill:#0CA999;fill:color(display-p3 0.0458 0.6627 0.6019);fill-opacity:1;"/>
<g opacity="0.5">
<path d="M14.294 61.7804C14.4764 61.7778 14.655 61.7303 14.8127 61.6423L35.7383 50.0395C36.2368 49.7628 36.6511 49.3655 36.9399 48.8871C37.2287 48.4087 37.382 47.8659 37.3844 47.3129V5.92969C37.1743 5.93139 36.9672 5.9778 36.7781 6.06558L15.8525 17.6684C15.3521 17.9457 14.9365 18.3447 14.6475 18.8252C14.3585 19.3057 14.2064 19.8508 14.2064 20.4057V61.3684C14.2062 61.5123 14.2367 61.6547 14.2962 61.7868L14.294 61.7804Z" fill="white" style="fill:white;fill-opacity:1;"/>
</g>
<path d="M23.05 11.6052C23.0429 11.7307 23.0053 11.8529 22.9402 11.9619C22.875 12.0709 22.7842 12.1637 22.675 12.233C22.4662 12.3473 22.2977 12.2545 22.2977 12.0172C22.3049 11.8915 22.3428 11.7692 22.4084 11.6601C22.4739 11.5511 22.5653 11.4584 22.675 11.3895C22.8816 11.2903 23.05 11.3744 23.05 11.6052Z" fill="#263238" style="fill:#263238;fill:color(display-p3 0.1490 0.1961 0.2196);fill-opacity:1;"/>
<path d="M24.4537 10.8284C24.4461 10.954 24.408 11.0762 24.3425 11.1852C24.277 11.2942 24.1859 11.387 24.0764 11.4561C23.8675 11.5704 23.6991 11.4776 23.6991 11.2404C23.7063 11.1146 23.7442 10.9923 23.8097 10.8833C23.8753 10.7742 23.9666 10.6815 24.0764 10.6127C24.283 10.5048 24.4537 10.5976 24.4537 10.8284Z" fill="#263238" style="fill:#263238;fill:color(display-p3 0.1490 0.1961 0.2196);fill-opacity:1;"/>
<path d="M30.1106 8.10857L25.5608 10.6431C25.3789 10.7423 25.2329 10.6431 25.2329 10.4058C25.2348 10.2882 25.2655 10.1726 25.3224 10.0685C25.3794 9.96431 25.461 9.87446 25.5608 9.80618L30.1173 7.28026C30.297 7.17888 30.443 7.28026 30.443 7.51538C30.4393 7.63226 30.4074 7.74671 30.3497 7.84968C30.292 7.95264 30.2102 8.04128 30.1106 8.10857Z" fill="#263238" style="fill:#263238;fill:color(display-p3 0.1490 0.1961 0.2196);fill-opacity:1;"/>
<path d="M29.3404 56.088C29.6121 56.088 29.7895 56.3662 29.7895 56.7955C29.7895 57.4685 29.3516 58.2817 28.8306 58.5708L26.65 59.7809C26.5526 59.8391 26.4413 59.8726 26.3266 59.8779C26.0549 59.8779 25.8775 59.5997 25.8775 59.1704C25.8775 58.4953 26.3266 57.682 26.8364 57.3951L29.017 56.185C29.1151 56.1264 29.2272 56.093 29.3426 56.088M29.3426 55.9089C29.1944 55.9132 29.0501 55.9557 28.9249 56.0319L26.7443 57.2398C26.1627 57.5612 25.6911 58.4262 25.6911 59.1812C25.6911 59.7356 25.9538 60.0678 26.3266 60.0678C26.4748 60.0635 26.6191 60.021 26.7443 59.9448L28.9249 58.7368C29.5043 58.4154 29.9759 57.5505 29.9759 56.7955C29.9759 56.2411 29.7154 55.9089 29.3426 55.9089Z" fill="#263238" style="fill:#263238;fill:color(display-p3 0.1490 0.1961 0.2196);fill-opacity:1;"/>
<path d="M17.2942 23.3072V69.6841C17.2942 70.5253 17.6154 71.0883 18.1049 71.2738H18.1184L20.2069 72.3718L20.1934 70.59L19.9689 22.5026L17.7658 21.4241C17.4702 22.0121 17.3094 22.6543 17.2942 23.3072Z" fill="#E6E6E6" style="fill:#E6E6E6;fill:color(display-p3 0.9020 0.9020 0.9020);fill-opacity:1;"/>
<path d="M20.3214 72.5508L18.0622 71.3622C17.5031 71.1465 17.1819 70.5145 17.1819 69.6733V23.2964C17.1938 22.6237 17.357 21.9615 17.6603 21.355L17.7097 21.2537L20.0766 22.4163V22.481L20.3012 70.5684L20.3214 72.5508ZM18.1768 71.1767L20.0946 72.1862V70.5857L19.87 22.563L17.8332 21.5621C17.5755 22.109 17.4364 22.7005 17.4245 23.3007V69.6776C17.4245 70.4369 17.7007 70.9934 18.1655 71.1681L18.1925 71.181L18.1768 71.1767Z" fill="#E6E6E6" style="fill:#E6E6E6;fill:color(display-p3 0.9020 0.9020 0.9020);fill-opacity:1;"/>
<path d="M17.7613 21.4284L19.9644 22.5069L43.5444 9.32944L45.1164 8.44936L42.9403 7.27161L42.8796 7.23709C42.5315 7.03649 42.0779 7.04943 41.5771 7.32769L19.2592 19.7028C18.5926 20.1223 18.0711 20.7231 17.7613 21.4284Z" fill="#E0E0E0" style="fill:#E0E0E0;fill:color(display-p3 0.8784 0.8784 0.8784);fill-opacity:1;"/>
<path d="M19.9644 22.6128C19.9463 22.6126 19.9286 22.6082 19.9127 22.5998L17.7097 21.5213C17.6967 21.5153 17.6852 21.5069 17.6756 21.4966C17.6661 21.4863 17.6589 21.4743 17.6542 21.4612C17.6496 21.4481 17.6478 21.4343 17.6488 21.4206C17.6499 21.4068 17.6537 21.3934 17.6602 21.3811C17.9813 20.658 18.5181 20.0425 19.2031 19.6123L41.5254 7.23293C42.042 6.9482 42.545 6.91584 42.9402 7.14449H42.9582L43.0031 7.17038L45.177 8.34598C45.194 8.35589 45.2081 8.36982 45.2179 8.38643C45.2277 8.40304 45.233 8.42178 45.2331 8.44089C45.2335 8.4598 45.2284 8.47844 45.2185 8.49479C45.2086 8.51115 45.1943 8.52458 45.177 8.53364L20.025 22.5912C20.0073 22.6038 19.9863 22.6112 19.9644 22.6128ZM17.9095 21.3725L19.9621 22.382L44.8895 8.44951L42.8212 7.32784L42.8055 7.3149C42.4844 7.13802 42.0689 7.17469 41.6332 7.41628L19.3108 19.7957C18.6973 20.1828 18.2113 20.7297 17.9095 21.3725Z" fill="#E0E0E0" style="fill:#E0E0E0;fill:color(display-p3 0.8784 0.8784 0.8784);fill-opacity:1;"/>
<path d="M19.4546 24.4721V70.6332C19.4546 71.3601 19.6972 71.8822 20.0812 72.1281L20.2092 72.1949C20.5438 72.3459 20.9637 72.3136 21.4196 72.059L32.2103 66.0797L43.751 59.4143C44.342 59.0592 44.8314 58.568 45.1749 57.9853C45.5185 57.4027 45.7052 56.7469 45.7182 56.0774V9.9162C45.7182 9.213 45.4937 8.70393 45.1299 8.44724C45.0685 8.40304 45.0013 8.36677 44.93 8.33939C44.7353 8.27326 44.5271 8.25208 44.3223 8.27756C44.1175 8.30304 43.9218 8.37447 43.751 8.48607L21.4286 21.0747C20.7988 21.3913 20.2895 21.8911 19.9734 22.5027C19.6494 23.1136 19.4721 23.7866 19.4546 24.4721Z" fill="#FAFAFA" style="fill:#FAFAFA;fill:color(display-p3 0.9804 0.9804 0.9804);fill-opacity:1;"/>
<path d="M43.751 59.4142C39.1585 62.0458 27.2091 68.8944 21.2939 72.3177C21.1174 72.4191 20.9161 72.4738 20.7105 72.4762C20.5048 72.4786 20.3022 72.4285 20.1233 72.3312C19.9443 72.2338 19.7954 72.0927 19.6918 71.9221C19.5881 71.7515 19.5334 71.5575 19.5332 71.36V23.8916C19.5332 23.3513 19.6804 22.8203 19.9601 22.3515C20.2398 21.8826 20.6423 21.4922 21.1277 21.219L43.8498 8.42332C44.0264 8.32442 44.2269 8.27192 44.4313 8.27113C44.6356 8.27033 44.8366 8.32127 45.0139 8.4188C45.1913 8.51633 45.3388 8.65702 45.4415 8.8267C45.5443 8.99639 45.5987 9.18908 45.5992 9.38537V56.2713C45.5995 56.9038 45.4294 57.5256 45.1056 58.0763C44.7817 58.627 44.3151 59.0879 43.751 59.4142Z" fill="#FAFAFA" style="fill:#FAFAFA;fill:color(display-p3 0.9804 0.9804 0.9804);fill-opacity:1;"/>
<path d="M43.6858 59.3194C40.0792 61.3816 36.4741 63.4495 32.8705 65.5232L26.4702 69.2009L23.5508 70.8835L22.2729 71.6212C21.8799 71.8477 21.4622 72.1712 21.0266 72.3157C20.3057 72.5573 19.6567 72.003 19.6387 71.3192C19.6387 71.2092 19.6387 71.1035 19.6387 70.9892V27.4682C19.6387 26.3099 19.6387 25.1494 19.6387 23.9911C19.6305 23.4426 19.7747 22.902 20.0566 22.425C20.3384 21.948 20.7477 21.5518 21.2422 21.2775C21.7632 20.982 22.2864 20.6907 22.8142 20.3974L30.1487 16.2515L38.8508 11.3528C40.5014 10.4253 42.1475 9.48912 43.7914 8.56589C44.3034 8.28116 44.9479 8.3092 45.305 8.82474C45.4313 9.03055 45.4907 9.26791 45.4757 9.50637V56.0903C45.4982 56.7336 45.344 57.3713 45.0287 57.9393C44.7133 58.5073 44.2479 58.9855 43.6791 59.3259C43.5556 59.3992 43.6679 59.5869 43.7914 59.5136C44.3895 59.1578 44.8807 58.6583 45.2163 58.0643C45.5518 57.4704 45.7202 56.8026 45.7047 56.127V12.8239C45.7047 11.6979 45.716 10.5698 45.7047 9.44166C45.7105 9.21582 45.6521 8.99273 45.5359 8.79631C45.4197 8.5999 45.25 8.43757 45.0451 8.32673C44.8401 8.21589 44.6077 8.16071 44.3726 8.16713C44.1374 8.17354 43.9086 8.2413 43.7105 8.36313C43.1626 8.66728 42.6191 8.97789 42.0757 9.2842L34.5435 13.5401L25.7628 18.4841C24.2132 19.3577 22.6412 20.2248 21.0984 21.1049C20.5791 21.3985 20.1496 21.8186 19.8534 22.3227C19.5573 22.8268 19.405 23.3971 19.4119 23.976C19.4119 24.3642 19.4119 24.7525 19.4119 25.1408V71.1358C19.4119 71.2092 19.4119 71.2847 19.4119 71.3515C19.4143 71.5444 19.4637 71.7341 19.5559 71.9055C19.6482 72.0768 19.7809 72.2251 19.9434 72.3385C20.1059 72.4518 20.2938 72.5271 20.492 72.5584C20.6902 72.5897 20.8932 72.576 21.085 72.5185C21.5094 72.3826 21.9091 72.0763 22.2909 71.8563L23.5934 71.1035L26.5129 69.4253C30.7588 66.9806 35.0084 64.5402 39.2618 62.1042L43.8049 59.5006C43.9216 59.4359 43.8093 59.2483 43.6858 59.3194Z" fill="#EBEBEB" style="fill:#EBEBEB;fill:color(display-p3 0.9216 0.9216 0.9216);fill-opacity:1;"/>
<path d="M21.1187 21.2126L43.8498 8.42332C44.0263 8.32442 44.2269 8.27192 44.4312 8.27113C44.6356 8.27033 44.8366 8.32127 45.0139 8.4188C45.1913 8.51633 45.3388 8.65702 45.4415 8.8267C45.5443 8.99639 45.5987 9.18908 45.5992 9.38537V11.4454L19.531 25.8977V23.8873C19.5299 23.3472 19.6758 22.8162 19.9543 22.347C20.2329 21.8778 20.6342 21.4867 21.1187 21.2126Z" fill="#EBEBEB" style="fill:#EBEBEB;fill:color(display-p3 0.9216 0.9216 0.9216);fill-opacity:1;"/>
<path d="M36.7355 32.4418C39.0406 28.6069 39.0406 24.4619 36.7356 23.1836C34.4305 21.9054 30.6933 23.9779 28.3883 27.8127C26.0832 31.6476 26.0832 35.7926 28.3882 37.0709C30.6933 38.3492 34.4305 36.2766 36.7355 32.4418Z" fill="#0CA999" style="fill:#0CA999;fill:color(display-p3 0.0458 0.6627 0.6019);fill-opacity:1;"/>
<path opacity="0.5" d="M36.7355 32.4418C39.0406 28.6069 39.0406 24.4619 36.7356 23.1836C34.4305 21.9054 30.6933 23.9779 28.3883 27.8127C26.0832 31.6476 26.0832 35.7926 28.3882 37.0709C30.6933 38.3492 34.4305 36.2766 36.7355 32.4418Z" fill="white" style="fill:white;fill-opacity:1;"/>
<path d="M31.5029 30.1515C31.4681 30.1515 31.4337 30.1449 31.4015 30.1321C31.3694 30.1193 31.3401 30.1006 31.3155 30.0769C31.2909 30.0533 31.2714 30.0252 31.2581 29.9943C31.2448 29.9635 31.2379 29.9304 31.2379 29.8969V28.2209C31.2573 27.8232 31.3755 27.4358 31.5825 27.091C31.7896 26.7461 32.0795 26.4539 32.4281 26.2386C32.5693 26.1269 32.7425 26.0592 32.9247 26.0446C33.1069 26.03 33.2895 26.0692 33.4479 26.1569C33.6063 26.2446 33.7331 26.3766 33.8113 26.5354C33.8895 26.6941 33.9155 26.872 33.8856 27.0453V28.7235C33.8856 28.791 33.8577 28.8557 33.808 28.9035C33.7583 28.9512 33.6909 28.978 33.6206 28.978C33.5503 28.978 33.4829 28.9512 33.4332 28.9035C33.3835 28.8557 33.3556 28.791 33.3556 28.7235V27.0367C33.3907 26.9524 33.3928 26.8587 33.3615 26.7731C33.3302 26.6874 33.2676 26.6156 33.1854 26.5708C33.1032 26.5261 33.0069 26.5115 32.9143 26.5297C32.8217 26.5479 32.7392 26.5978 32.6819 26.67C32.4146 26.8414 32.1921 27.0698 32.0317 27.3373C31.8712 27.6048 31.7771 27.9042 31.7567 28.2123V29.8883C31.7591 29.9555 31.7338 30.0208 31.6863 30.0701C31.6387 30.1194 31.5728 30.1487 31.5029 30.1515Z" fill="#37474F" style="fill:#37474F;fill:color(display-p3 0.2157 0.2784 0.3098);fill-opacity:1;"/>
<path d="M34.7007 27.6428C34.6386 27.618 34.5711 27.6088 34.5043 27.616C34.4376 27.6232 34.3738 27.6465 34.3189 27.6837L30.7887 29.6424C30.6338 29.7357 30.5057 29.8647 30.4159 30.0177C30.2746 30.2379 30.1971 30.4903 30.1913 30.7489V33.6847C30.1834 33.767 30.1951 33.85 30.2254 33.9273C30.2557 34.0047 30.304 34.0744 30.3665 34.1312C30.3856 34.1456 30.4068 34.1572 30.4294 34.1657C30.4892 34.1871 30.5534 34.1943 30.6167 34.1868C30.6801 34.1793 30.7406 34.1573 30.7932 34.1226L34.3189 32.1618C34.5029 32.0357 34.6534 31.8699 34.7583 31.6777C34.8632 31.4855 34.9197 31.2722 34.923 31.0552V28.1152C34.9354 28.0243 34.9212 27.932 34.8819 27.8485C34.8427 27.7651 34.7799 27.6938 34.7007 27.6428Z" fill="#0CA999" style="fill:#0CA999;fill:color(display-p3 0.0458 0.6627 0.6019);fill-opacity:1;"/>
<path d="M32.9716 30.7037L33.3129 31.6442L32.116 32.3064L32.4146 31.1459L32.4573 30.982C32.2552 30.982 32.116 30.8375 32.116 30.5743C32.1175 30.4672 32.1364 30.3609 32.1721 30.2594C32.2654 29.9791 32.4565 29.7383 32.7133 29.5778C33.0434 29.3944 33.3129 29.5432 33.3129 29.9099C33.2965 30.2042 33.1761 30.4842 32.9716 30.7037Z" fill="#455A64" style="fill:#455A64;fill:color(display-p3 0.2706 0.3529 0.3922);fill-opacity:1;"/>
<path d="M32.4056 31.135L32.4483 30.971C32.2462 30.971 32.1069 30.8265 32.1069 30.5633C32.1085 30.4562 32.1274 30.3499 32.1631 30.2484L32.9715 30.7036L33.3129 31.644L32.4056 31.135Z" fill="#37474F" style="fill:#37474F;fill:color(display-p3 0.2157 0.2784 0.3098);fill-opacity:1;"/>
<path d="M41.2807 40.9843L23.854 50.6414C23.1331 51.0405 22.5492 50.6155 22.5492 49.6945V47.1599C22.5492 46.2367 23.1331 45.1646 23.854 44.7656L41.2807 35.1084C42.0016 34.7094 42.5855 35.1321 42.5855 36.0554V38.5899C42.5742 39.5131 41.9903 40.583 41.2807 40.9843Z" fill="#0CA999" style="fill:#0CA999;fill:color(display-p3 0.0458 0.6627 0.6019);fill-opacity:1;"/>
<path d="M26.9867 44.5371H26.6498V47.2183H26.9867V44.5371Z" fill="#FAFAFA" style="fill:#FAFAFA;fill:color(display-p3 0.9804 0.9804 0.9804);fill-opacity:1;"/>
<path d="M28.0901 45.3031L25.6616 46.6437L25.83 46.9252L28.2586 45.5846L28.0901 45.3031Z" fill="#FAFAFA" style="fill:#FAFAFA;fill:color(display-p3 0.9804 0.9804 0.9804);fill-opacity:1;"/>
<path d="M26.0463 45.2664L25.8779 45.5466L27.5874 46.4947L27.7558 46.2144L26.0463 45.2664Z" fill="#FAFAFA" style="fill:#FAFAFA;fill:color(display-p3 0.9804 0.9804 0.9804);fill-opacity:1;"/>
<path d="M27.7664 44.2261L26.0563 47.0842L26.3494 47.246L28.0595 44.3879L27.7664 44.2261Z" fill="#FAFAFA" style="fill:#FAFAFA;fill:color(display-p3 0.9804 0.9804 0.9804);fill-opacity:1;"/>
<path d="M32.729 41.5343H32.3922V44.2155H32.729V41.5343Z" fill="#FAFAFA" style="fill:#FAFAFA;fill:color(display-p3 0.9804 0.9804 0.9804);fill-opacity:1;"/>
<path d="M33.6833 42.0692L31.2659 43.4098L31.4343 43.69L33.8517 42.3494L33.6833 42.0692Z" fill="#FAFAFA" style="fill:#FAFAFA;fill:color(display-p3 0.9804 0.9804 0.9804);fill-opacity:1;"/>
<path d="M31.7908 42.2629L31.6224 42.5431L33.3319 43.4911L33.5003 43.2109L31.7908 42.2629Z" fill="#FAFAFA" style="fill:#FAFAFA;fill:color(display-p3 0.9804 0.9804 0.9804);fill-opacity:1;"/>
<path d="M33.4966 41.1995L31.7865 44.0576L32.0796 44.2194L33.7897 41.3613L33.4966 41.1995Z" fill="#FAFAFA" style="fill:#FAFAFA;fill:color(display-p3 0.9804 0.9804 0.9804);fill-opacity:1;"/>
<path d="M38.4713 38.5297H38.1344V41.2109H38.4713V38.5297Z" fill="#FAFAFA" style="fill:#FAFAFA;fill:color(display-p3 0.9804 0.9804 0.9804);fill-opacity:1;"/>
<path d="M39.6212 39.2699L37.1927 40.6105L37.3611 40.892L39.7896 39.5514L39.6212 39.2699Z" fill="#FAFAFA" style="fill:#FAFAFA;fill:color(display-p3 0.9804 0.9804 0.9804);fill-opacity:1;"/>
<path d="M37.5334 39.2584L37.365 39.5386L39.0745 40.4866L39.2429 40.2064L37.5334 39.2584Z" fill="#FAFAFA" style="fill:#FAFAFA;fill:color(display-p3 0.9804 0.9804 0.9804);fill-opacity:1;"/>
<path d="M39.0124 38.3642L37.3023 41.2092L37.594 41.371L39.3041 38.5259L39.0124 38.3642Z" fill="#FAFAFA" style="fill:#FAFAFA;fill:color(display-p3 0.9804 0.9804 0.9804);fill-opacity:1;"/>
<path d="M41.786 44.4744C42.0106 44.4744 42.1251 44.8087 42.1251 45.1409V47.6755C42.1251 48.4455 41.6288 49.3709 41.0449 49.6966L23.6294 59.3538C23.541 59.408 23.4398 59.4399 23.3352 59.4466C23.1106 59.4466 22.9983 59.1122 22.9983 58.78V56.2455C22.9983 55.4754 23.4924 54.55 24.0785 54.2243L41.5053 44.5671C41.5929 44.5131 41.6933 44.4812 41.7972 44.4744M41.7972 44.043C41.6143 44.0494 41.4363 44.1015 41.2807 44.194L23.854 53.8511C23.1331 54.2502 22.5492 55.3223 22.5492 56.2455V58.78C22.5492 59.466 22.8726 59.878 23.3352 59.878C23.5189 59.8719 23.6977 59.8198 23.854 59.727L41.2807 50.0698C42.0016 49.6707 42.5855 48.5987 42.5855 47.6755V45.1409C42.5855 44.455 42.2598 44.043 41.7972 44.043Z" fill="#0CA999" style="fill:#0CA999;fill:color(display-p3 0.0458 0.6627 0.6019);fill-opacity:1;"/>
<path d="M67.4186 15.6711C67.429 15.8418 67.4814 16.0077 67.5716 16.1551C67.6618 16.3025 67.7872 16.4271 67.9374 16.5188C68.2249 16.6741 68.4562 16.5469 68.4562 16.2363C68.4458 16.0656 68.3934 15.8997 68.3032 15.7523C68.213 15.6049 68.0876 15.4802 67.9374 15.3885C67.6522 15.2332 67.4186 15.3583 67.4186 15.6711Z" fill="#455A64" style="fill:#455A64;fill:color(display-p3 0.2706 0.3529 0.3922);fill-opacity:1;"/>
<path d="M60.4636 17.6792C60.0071 17.6646 59.5623 17.5368 59.1724 17.3082L57.5262 16.413C57.5126 16.4065 57.5004 16.3974 57.4905 16.3862C57.4806 16.3751 57.4731 16.3621 57.4686 16.3481C57.4641 16.3341 57.4626 16.3194 57.4643 16.3048C57.4659 16.2902 57.4706 16.2761 57.4781 16.2633C57.4856 16.2505 57.4957 16.2394 57.5078 16.2305C57.52 16.2216 57.5339 16.2152 57.5487 16.2116C57.5635 16.2081 57.5789 16.2074 57.5939 16.2098C57.609 16.2121 57.6234 16.2174 57.6363 16.2253L59.2824 17.1205C59.9943 17.5066 60.6523 17.5692 61.1396 17.2974C61.6269 17.0256 61.8807 16.4669 61.8807 15.7098C61.8807 14.875 62.1839 14.2451 62.7318 13.9367C63.2798 13.6282 64.0321 13.6864 64.8136 14.1114L67.4748 15.5588C67.5002 15.5732 67.5188 15.5965 67.5268 15.6239C67.5347 15.6512 67.5314 15.6804 67.5174 15.7055C67.5028 15.7303 67.4785 15.7486 67.4499 15.7563C67.4213 15.7639 67.3906 15.7604 67.3647 15.7464L64.7035 14.3098C63.9939 13.9237 63.3337 13.8612 62.8463 14.1351C62.359 14.4091 62.1053 14.9656 62.1053 15.7206C62.1053 16.5575 61.8021 17.1874 61.2541 17.4937C61.0125 17.6218 60.7396 17.6859 60.4636 17.6792Z" fill="#455A64" style="fill:#455A64;fill:color(display-p3 0.2706 0.3529 0.3922);fill-opacity:1;"/>
<path d="M56.8458 15.9299C56.8537 16.0678 56.896 16.2019 56.969 16.3209C57.0421 16.4399 57.1439 16.5403 57.2657 16.6137C57.4903 16.7409 57.6857 16.6374 57.6857 16.385C57.6778 16.2471 57.6355 16.113 57.5625 15.994C57.4894 15.875 57.3876 15.7746 57.2657 15.7012C57.0344 15.574 56.8458 15.6775 56.8458 15.9299Z" fill="#455A64" style="fill:#455A64;fill:color(display-p3 0.2706 0.3529 0.3922);fill-opacity:1;"/>
<path d="M83.4081 13.6371L72.4041 7.65338C72.2885 7.57189 72.1489 7.52795 72.0055 7.52795C71.8621 7.52795 71.7225 7.57189 71.6069 7.65338L70.6547 8.28324L71.3037 9.05331V20.1902C71.3037 20.9689 71.7978 21.8727 72.4041 22.2114L83.1319 28.0355L83.1813 28.8638L84.1829 28.2037C84.2984 28.1003 84.3876 27.9729 84.4436 27.8311C84.4997 27.6894 84.5211 27.5371 84.5063 27.3862V15.6582C84.5108 14.8795 84.0167 13.9757 83.4081 13.6371Z" fill="#0CA999" style="fill:#0CA999;fill:color(display-p3 0.0458 0.6627 0.6019);fill-opacity:1;"/>
<path opacity="0.3" d="M83.4081 13.6371L72.4041 7.65338C72.2885 7.57189 72.1489 7.52795 72.0055 7.52795C71.8621 7.52795 71.7225 7.57189 71.6069 7.65338L70.6547 8.28324L71.3037 9.05331V20.1902C71.3037 20.9689 71.7978 21.8727 72.4041 22.2114L83.1319 28.0355L83.1813 28.8638L84.1829 28.2037C84.2984 28.1003 84.3876 27.9729 84.4436 27.8311C84.4997 27.6894 84.5211 27.5371 84.5063 27.3862V15.6582C84.5108 14.8795 84.0167 13.9757 83.4081 13.6371Z" fill="black" style="fill:black;fill-opacity:1;"/>
<path d="M82.4739 28.8118L71.4699 22.8281C70.8613 22.4916 70.3695 21.5856 70.3695 20.8069V9.0725C70.3695 8.29165 70.8613 7.93358 71.4699 8.27223L82.4739 14.2559C83.0825 14.5924 83.5743 15.4984 83.5743 16.2771V28.0137C83.5743 28.7924 83.0825 29.1504 82.4739 28.8118Z" fill="#0CA999" style="fill:#0CA999;fill:color(display-p3 0.0458 0.6627 0.6019);fill-opacity:1;"/>
<path d="M80.163 18.6565C80.1381 18.6568 80.1137 18.6492 80.0937 18.6347C80.0738 18.6203 80.0595 18.5998 80.053 18.5767C79.8185 17.7445 79.4559 16.9505 78.9773 16.2212C78.9612 16.1971 78.9558 16.168 78.9621 16.1401C78.9684 16.1122 78.986 16.0878 79.011 16.0723C79.0234 16.0645 79.0374 16.0592 79.052 16.0567C79.0666 16.0542 79.0816 16.0546 79.0961 16.0578C79.1106 16.061 79.1243 16.067 79.1362 16.0755C79.1482 16.0839 79.1583 16.0946 79.1659 16.1068C79.6574 16.854 80.0298 17.6676 80.2708 18.5206C80.2779 18.5483 80.2737 18.5776 80.2591 18.6024C80.2445 18.6273 80.2206 18.6458 80.1922 18.6543L80.163 18.6565Z" fill="white" style="fill:white;fill-opacity:1;"/>
<path d="M80.4146 20.8502C80.3846 20.848 80.3567 20.8346 80.3369 20.8128C80.3172 20.791 80.3072 20.7626 80.309 20.7337C80.309 20.6194 80.3225 20.4986 80.3225 20.3757C80.3213 20.0069 80.2875 19.6389 80.2214 19.2756C80.2164 19.247 80.2233 19.2176 80.2408 19.1939C80.2583 19.1703 80.2848 19.1542 80.3146 19.1494C80.3444 19.1445 80.375 19.1512 80.3996 19.168C80.4243 19.1848 80.4409 19.2103 80.446 19.2389C80.5147 19.6143 80.55 19.9946 80.5516 20.3757C80.5516 20.5029 80.5516 20.628 80.5381 20.7488C80.5369 20.7633 80.5328 20.7774 80.526 20.7903C80.5192 20.8033 80.5098 20.8148 80.4983 20.8242C80.4868 20.8336 80.4735 20.8408 80.4591 20.8452C80.4448 20.8497 80.4296 20.8514 80.4146 20.8502Z" fill="white" style="fill:white;fill-opacity:1;"/>
<path d="M73.545 17.2694C73.5173 17.2694 73.4906 17.2595 73.4702 17.2415C73.4498 17.2235 73.4372 17.1988 73.4349 17.1723C73.417 16.9846 73.408 16.797 73.408 16.6158C73.408 15.5696 73.7022 14.7068 74.2367 14.1826C74.2469 14.1726 74.2591 14.1646 74.2726 14.1591C74.2861 14.1537 74.3006 14.1509 74.3153 14.1509C74.3299 14.1509 74.3444 14.1537 74.3579 14.1591C74.3714 14.1646 74.3836 14.1726 74.3939 14.1826C74.4044 14.1926 74.4127 14.2046 74.4184 14.2177C74.4241 14.2308 74.4271 14.2449 74.4271 14.2592C74.4271 14.2734 74.4241 14.2875 74.4184 14.3007C74.4127 14.3138 74.4044 14.3257 74.3939 14.3358C73.902 14.8189 73.6303 15.63 73.6303 16.6179C73.6303 16.7926 73.6303 16.9738 73.655 17.155C73.6566 17.1691 73.6552 17.1833 73.6509 17.1968C73.6466 17.2104 73.6395 17.2229 73.6301 17.2338C73.6207 17.2447 73.6091 17.2536 73.596 17.2601C73.5829 17.2665 73.5686 17.2704 73.554 17.2715L73.545 17.2694Z" fill="white" style="fill:white;fill-opacity:1;"/>
<path d="M78.5124 15.5245C78.4958 15.5247 78.4792 15.5213 78.4641 15.5146C78.4489 15.5079 78.4355 15.498 78.4249 15.4857C78.0088 14.9768 77.4978 14.5467 76.918 14.2173C76.1724 13.8118 75.4717 13.7341 74.8968 14.0016C74.87 14.0134 74.8394 14.0146 74.8117 14.0049C74.7839 13.9952 74.7613 13.9754 74.7486 13.9498C74.7422 13.937 74.7385 13.923 74.7377 13.9087C74.7369 13.8945 74.7391 13.8802 74.7441 13.8667C74.7491 13.8533 74.7569 13.8409 74.7669 13.8304C74.7769 13.8199 74.789 13.8113 74.8025 13.8053C75.4493 13.5184 76.2196 13.5896 77.0325 14.0404C77.6367 14.3838 78.1696 14.8313 78.6045 15.3606C78.6231 15.3826 78.6319 15.4109 78.629 15.4392C78.626 15.4674 78.6116 15.4934 78.5888 15.5115C78.5658 15.5244 78.5387 15.529 78.5124 15.5245Z" fill="white" style="fill:white;fill-opacity:1;"/>
<path d="M74.3197 17.3535C74.2907 17.3535 74.2628 17.3428 74.2419 17.3235C74.2209 17.3042 74.2086 17.2778 74.2074 17.25C74.2074 17.1831 74.2074 17.1162 74.2074 17.0494C74.2074 16.2836 74.4028 15.6581 74.7734 15.2418C74.7827 15.2308 74.7942 15.2218 74.8072 15.2152C74.8202 15.2086 74.8344 15.2046 74.8491 15.2034C74.8638 15.2022 74.8785 15.2038 74.8925 15.2082C74.9065 15.2125 74.9194 15.2196 74.9305 15.2288C74.9532 15.2476 74.9672 15.2741 74.9697 15.3027C74.9723 15.3314 74.963 15.3598 74.944 15.382C74.6094 15.7594 74.432 16.3354 74.432 17.0494C74.432 17.1119 74.432 17.1766 74.432 17.2392C74.4326 17.2534 74.4303 17.2675 74.4252 17.2808C74.4201 17.2941 74.4123 17.3063 74.4023 17.3167C74.3923 17.3272 74.3803 17.3356 74.3669 17.3415C74.3534 17.3475 74.339 17.3508 74.3242 17.3514L74.3197 17.3535Z" fill="white" style="fill:white;fill-opacity:1;"/>
<path d="M75.1911 15.1317C75.1664 15.132 75.1423 15.1244 75.1225 15.1101C75.1028 15.0959 75.0885 15.0758 75.0818 15.0529C75.0752 15.0301 75.0766 15.0058 75.0858 14.9837C75.095 14.9617 75.1114 14.9432 75.1327 14.9311C75.4205 14.7668 75.7573 14.6999 76.0894 14.7413C76.1188 14.744 76.1459 14.7578 76.1648 14.7796C76.1837 14.8014 76.1929 14.8295 76.1904 14.8578C76.187 14.8862 76.1722 14.9123 76.1492 14.9304C76.1261 14.9485 76.0966 14.9573 76.0669 14.9549C75.784 14.9225 75.4979 14.9817 75.254 15.1231C75.2341 15.1311 75.2125 15.1341 75.1911 15.1317Z" fill="white" style="fill:white;fill-opacity:1;"/>
<path d="M80.1631 22.2371C80.1406 22.2371 80.1186 22.2308 80.0998 22.2189C80.081 22.207 80.0663 22.1901 80.0575 22.1702L79.9273 21.8575C79.6662 21.2526 79.5282 20.6053 79.5208 19.9506C79.5208 18.1214 78.353 16.0053 76.918 15.2245C76.9052 15.2176 76.8939 15.2082 76.8849 15.197C76.8758 15.1859 76.8692 15.173 76.8655 15.1594C76.8617 15.1457 76.8608 15.1314 76.8629 15.1174C76.865 15.1034 76.87 15.0899 76.8776 15.0778C76.8846 15.0653 76.8942 15.0543 76.9057 15.0454C76.9173 15.0365 76.9306 15.0299 76.9449 15.0261C76.9591 15.0223 76.974 15.0213 76.9887 15.0231C77.0034 15.0249 77.0175 15.0296 77.0303 15.0368C78.5259 15.8522 79.7454 18.0567 79.7454 19.942C79.751 20.5717 79.8837 21.1943 80.1361 21.7755L80.2664 22.0883C80.2722 22.1013 80.2753 22.1153 80.2754 22.1294C80.2755 22.1436 80.2726 22.1576 80.267 22.1707C80.2613 22.1838 80.253 22.1956 80.2424 22.2056C80.2319 22.2155 80.2194 22.2233 80.2057 22.2285C80.1923 22.2342 80.1778 22.2372 80.1631 22.2371Z" fill="white" style="fill:white;fill-opacity:1;"/>
<path d="M75.0069 20.9968C74.9838 20.9968 74.9613 20.99 74.9424 20.9772C74.9236 20.9645 74.9092 20.9465 74.9014 20.9256C74.5386 19.9064 74.3041 18.8491 74.203 17.7763C74.2017 17.762 74.2035 17.7475 74.2082 17.7339C74.2129 17.7202 74.2203 17.7075 74.2302 17.6967C74.24 17.6858 74.252 17.677 74.2655 17.6707C74.2789 17.6643 74.2935 17.6606 74.3085 17.6598C74.338 17.6591 74.3667 17.6692 74.3888 17.688C74.4108 17.7068 74.4247 17.733 74.4275 17.7612C74.5232 18.8136 74.7494 19.8513 75.1012 20.8523C75.1066 20.8656 75.109 20.8798 75.1085 20.894C75.108 20.9082 75.1045 20.9222 75.0982 20.9351C75.0919 20.948 75.0829 20.9595 75.0719 20.969C75.0608 20.9785 75.0479 20.9858 75.0339 20.9903C75.0252 20.9936 75.0162 20.9958 75.0069 20.9968Z" fill="white" style="fill:white;fill-opacity:1;"/>
<path d="M79.5028 22.9641C79.4799 22.9646 79.4575 22.9582 79.4385 22.9458C79.4196 22.9335 79.4052 22.9157 79.3973 22.8951L79.0963 22.1186C78.7929 21.3606 78.6295 20.5577 78.6135 19.7458V18.8981C78.6135 17.8907 77.8612 16.6634 76.936 16.1608C76.5048 15.9256 76.105 15.8847 75.8131 16.0486C75.5212 16.2125 75.364 16.5512 75.364 17.0106V17.7613C75.3886 18.9807 75.6427 20.1858 76.114 21.3183L76.4846 22.2458C76.49 22.2591 76.4926 22.2733 76.4922 22.2876C76.4919 22.3019 76.4886 22.316 76.4825 22.329C76.4765 22.3421 76.4678 22.3538 76.4569 22.3636C76.4461 22.3734 76.4334 22.381 76.4194 22.386C76.3917 22.3959 76.3611 22.3948 76.3342 22.3831C76.3073 22.3714 76.2863 22.35 76.2757 22.3235L75.9052 21.396C75.4266 20.2381 75.1694 19.0068 75.1461 17.7613V17.0128C75.1461 16.4735 75.3415 16.0658 75.7008 15.8652C76.0601 15.6646 76.543 15.7013 77.0482 15.9752C78.0341 16.5124 78.8448 17.8239 78.8448 18.9002V19.748C78.8603 20.5342 79.0192 21.3117 79.3142 22.0452L79.6128 22.8196C79.6182 22.8328 79.6208 22.8468 79.6204 22.8609C79.62 22.8751 79.6167 22.889 79.6106 22.9019C79.6046 22.9147 79.5959 22.9263 79.5851 22.9359C79.5743 22.9455 79.5616 22.9529 79.5477 22.9577L79.5028 22.9641Z" fill="white" style="fill:white;fill-opacity:1;"/>
<path d="M78.5124 23.2726C78.4884 23.2727 78.465 23.2655 78.4456 23.2519C78.4262 23.2383 78.4118 23.2191 78.4046 23.1971L78.2474 22.688C77.9611 21.7945 77.8099 20.8661 77.7983 19.9313V18.6241C77.7809 18.328 77.6904 18.0402 77.5341 17.7844C77.3779 17.5285 77.1606 17.3121 76.9 17.153C76.8188 17.0958 76.7233 17.0602 76.6232 17.0496C76.5231 17.039 76.4219 17.0538 76.3296 17.0926C76.2507 17.1476 76.1884 17.2217 76.149 17.3073C76.1095 17.3929 76.0944 17.487 76.105 17.5801C76.105 19.0383 76.5676 20.7186 77.4053 22.3127L77.7219 22.9145C77.7286 22.9273 77.7325 22.9411 77.7336 22.9554C77.7346 22.9696 77.7328 22.9839 77.7281 22.9974C77.7234 23.0109 77.716 23.0234 77.7062 23.0342C77.6965 23.0449 77.6847 23.0538 77.6714 23.0601C77.6582 23.0665 77.6437 23.0703 77.6289 23.0713C77.6141 23.0723 77.5992 23.0705 77.5852 23.066C77.5711 23.0615 77.5581 23.0544 77.5469 23.045C77.5357 23.0357 77.5265 23.0243 77.5198 23.0116L77.2054 22.4098C76.3498 20.7855 75.8805 19.0706 75.8805 17.5801C75.8678 17.4493 75.892 17.3176 75.9505 17.1988C76.0089 17.0801 76.0995 16.9786 76.2128 16.9049C76.3387 16.8466 76.4784 16.8215 76.6177 16.8321C76.757 16.8427 76.8909 16.8887 77.0056 16.9653C77.3 17.1445 77.5458 17.3883 77.7227 17.6768C77.8996 17.9652 78.0025 18.2899 78.0229 18.6241V19.9356C78.0331 20.8499 78.1806 21.7581 78.4608 22.6319L78.618 23.1389C78.6224 23.1524 78.624 23.1668 78.6225 23.1809C78.6211 23.1951 78.6166 23.2089 78.6095 23.2214C78.6024 23.2339 78.5927 23.2448 78.581 23.2536C78.5693 23.2624 78.556 23.2689 78.5416 23.2726C78.532 23.2744 78.5221 23.2744 78.5124 23.2726Z" fill="white" style="fill:white;fill-opacity:1;"/>
<path d="M77.2526 20.9968C77.2272 20.9965 77.2025 20.9881 77.1826 20.9729C77.1627 20.9576 77.1486 20.9364 77.1426 20.9127L77.0393 20.451C76.9406 20.0072 76.8909 19.5546 76.8911 19.1007V17.8863C76.8911 17.8577 76.9029 17.8303 76.924 17.81C76.945 17.7898 76.9736 17.7784 77.0034 17.7784C77.0331 17.7784 77.0617 17.7898 77.0828 17.81C77.1038 17.8303 77.1157 17.8577 77.1157 17.8863V19.1007C77.117 19.5357 77.1651 19.9695 77.2594 20.395L77.3627 20.8566C77.366 20.8703 77.3664 20.8846 77.3638 20.8985C77.3613 20.9124 77.3559 20.9256 77.3479 20.9375C77.34 20.9493 77.3297 20.9596 77.3175 20.9675C77.3054 20.9755 77.2917 20.981 77.2773 20.9838L77.2526 20.9968Z" fill="white" style="fill:white;fill-opacity:1;"/>
<path d="M73.7897 18.6563C73.7619 18.656 73.7352 18.646 73.7145 18.6281C73.6939 18.6102 73.6807 18.5858 73.6774 18.5593L73.6123 17.9294C73.6098 17.9009 73.6189 17.8726 73.6378 17.8504C73.6566 17.8282 73.6837 17.814 73.7134 17.8108C73.7282 17.809 73.7432 17.8101 73.7575 17.8141C73.7719 17.818 73.7853 17.8248 73.7968 17.8338C73.8084 17.8429 73.8179 17.8542 73.8248 17.8669C73.8316 17.8796 73.8358 17.8935 73.8369 17.9078L73.902 18.5377C73.9035 18.5519 73.9022 18.5662 73.8979 18.5799C73.8936 18.5935 73.8866 18.6062 73.8772 18.6173C73.8678 18.6283 73.8562 18.6374 73.8431 18.6441C73.8301 18.6508 73.8157 18.655 73.8009 18.6563H73.7897Z" fill="white" style="fill:white;fill-opacity:1;"/>
<path d="M83.4081 33.6243L72.4041 27.6385C72.2885 27.557 72.1489 27.5131 72.0055 27.5131C71.8621 27.5131 71.7225 27.557 71.6069 27.6385L70.6547 28.2683L71.3037 29.0384V40.1753C71.3037 40.954 71.7978 41.8578 72.4041 42.1965L83.1319 48.0206L83.1813 48.8489L84.1829 48.191C84.2984 48.0872 84.3876 47.9593 84.4437 47.8172C84.4997 47.6751 84.5211 47.5226 84.5063 47.3713V35.6369C84.5108 34.8646 84.0167 33.9608 83.4081 33.6243Z" fill="#0CA999" style="fill:#0CA999;fill:color(display-p3 0.0458 0.6627 0.6019);fill-opacity:1;"/>
<path opacity="0.3" d="M83.4081 33.6243L72.4041 27.6385C72.2885 27.557 72.1489 27.5131 72.0055 27.5131C71.8621 27.5131 71.7225 27.557 71.6069 27.6385L70.6547 28.2683L71.3037 29.0384V40.1753C71.3037 40.954 71.7978 41.8578 72.4041 42.1965L83.1319 48.0206L83.1813 48.8489L84.1829 48.191C84.2984 48.0872 84.3876 47.9593 84.4437 47.8172C84.4997 47.6751 84.5211 47.5226 84.5063 47.3713V35.6369C84.5108 34.8646 84.0167 33.9608 83.4081 33.6243Z" fill="black" style="fill:black;fill-opacity:1;"/>
<path d="M82.4739 48.7971L71.4699 42.8134C70.8613 42.4769 70.3695 41.5731 70.3695 40.7923V29.0578C70.3695 28.2791 70.8613 27.9211 71.4699 28.2576L82.4739 34.2413C83.0825 34.5799 83.5743 35.4837 83.5743 36.2624V47.999C83.5743 48.7777 83.0825 49.1358 82.4739 48.7971Z" fill="#0CA999" style="fill:#0CA999;fill:color(display-p3 0.0458 0.6627 0.6019);fill-opacity:1;"/>
<path d="M72.8218 32.3321C72.792 32.3321 72.7635 32.3208 72.7424 32.3005C72.7213 32.2803 72.7095 32.2529 72.7095 32.2243V31.4973C72.7089 31.4251 72.7283 31.3541 72.7658 31.2915C72.8033 31.229 72.8575 31.1771 72.9229 31.1414C72.9907 31.1022 73.0683 31.0815 73.1474 31.0815C73.2266 31.0815 73.3042 31.1022 73.372 31.1414L74.1647 31.5728C74.1909 31.5868 74.2103 31.6103 74.2185 31.638C74.2267 31.6657 74.2231 31.6954 74.2085 31.7206C74.1939 31.7458 74.1695 31.7643 74.1407 31.7722C74.1118 31.7801 74.0809 31.7767 74.0547 31.7627L73.2597 31.3312C73.2256 31.3123 73.1868 31.3023 73.1474 31.3023C73.108 31.3023 73.0693 31.3123 73.0351 31.3312C73.0041 31.3479 72.9783 31.3724 72.9605 31.402C72.9427 31.4316 72.9336 31.4653 72.9341 31.4995V32.2264C72.9335 32.2547 72.9214 32.2815 72.9004 32.3013C72.8794 32.3211 72.8512 32.3321 72.8218 32.3321Z" fill="white" style="fill:white;fill-opacity:1;"/>
<path d="M74.0974 42.3346C74.0786 42.3344 74.0601 42.33 74.0435 42.3216L73.3024 41.9182C73.1253 41.8203 72.9782 41.6791 72.8761 41.5091C72.774 41.339 72.7204 41.146 72.7208 40.9497V40.2789C72.7208 40.2503 72.7326 40.2228 72.7537 40.2026C72.7747 40.1824 72.8033 40.171 72.8331 40.171C72.8628 40.171 72.8914 40.1824 72.9124 40.2026C72.9335 40.2228 72.9453 40.2503 72.9453 40.2789V40.9497C72.946 41.1089 72.9906 41.265 73.0747 41.4022C73.1587 41.5394 73.2791 41.6527 73.4237 41.7306L74.1648 42.1339C74.1858 42.146 74.2022 42.1643 74.2115 42.1861C74.2207 42.2079 74.2223 42.232 74.2159 42.2547C74.2095 42.2774 74.1956 42.2975 74.1762 42.312C74.1569 42.3264 74.1331 42.3343 74.1086 42.3346H74.0974Z" fill="white" style="fill:white;fill-opacity:1;"/>
<path d="M80.8053 45.9392C80.7265 45.9406 80.6488 45.9212 80.5807 45.8831L79.788 45.4517C79.7621 45.4376 79.7431 45.4143 79.7351 45.3868C79.7271 45.3593 79.7308 45.3299 79.7453 45.305C79.7604 45.2806 79.7846 45.2626 79.8131 45.255C79.8416 45.2474 79.872 45.2506 79.898 45.264L80.693 45.6954C80.7272 45.7143 80.7659 45.7243 80.8053 45.7243C80.8447 45.7243 80.8834 45.7143 80.9176 45.6954C80.9486 45.6787 80.9744 45.6543 80.9922 45.6246C81.01 45.595 81.0191 45.5614 81.0186 45.5272V44.8002C81.0186 44.7716 81.0305 44.7442 81.0515 44.724C81.0726 44.7037 81.1012 44.6924 81.1309 44.6924C81.1607 44.6924 81.1893 44.7037 81.2103 44.724C81.2314 44.7442 81.2432 44.7716 81.2432 44.8002V45.5272C81.2437 45.599 81.2242 45.6697 81.1867 45.7319C81.1491 45.7941 81.095 45.8456 81.0299 45.8809C80.9619 45.9196 80.8843 45.9398 80.8053 45.9392Z" fill="white" style="fill:white;fill-opacity:1;"/>
<path d="M81.1265 36.8513C81.0967 36.8513 81.0681 36.84 81.0471 36.8197C81.026 36.7995 81.0142 36.7721 81.0142 36.7435V36.0726C81.0136 35.9137 80.969 35.7578 80.8849 35.621C80.8008 35.4842 80.6804 35.3713 80.5359 35.2939L79.7948 34.8905C79.7687 34.8761 79.7497 34.8524 79.7417 34.8245C79.7337 34.7967 79.7374 34.7669 79.7521 34.7417C79.7593 34.7294 79.769 34.7185 79.7807 34.7099C79.7923 34.7012 79.8057 34.6949 79.8199 34.6913C79.8341 34.6876 79.849 34.6868 79.8636 34.6888C79.8782 34.6908 79.8922 34.6956 79.9048 34.7029L80.6459 35.1063C80.8248 35.2027 80.9739 35.3429 81.078 35.5126C81.1822 35.6824 81.2376 35.8756 81.2388 36.0726V36.7435C81.2388 36.7721 81.2269 36.7995 81.2059 36.8197C81.1848 36.84 81.1563 36.8513 81.1265 36.8513Z" fill="white" style="fill:white;fill-opacity:1;"/>
<path d="M73.8167 35.9604C73.8417 37.1853 74.0243 38.4024 74.3602 39.5843C75.2135 42.6775 78.5799 44.5779 79.5051 42.4834C79.9398 41.4529 80.1529 40.3486 80.1316 39.237C80.1316 37.3388 78.7168 35.0307 76.9742 34.0816C75.1911 33.1131 73.792 34.0126 73.8167 35.9604Z" fill="white" style="fill:white;fill-opacity:1;"/>
<path d="M76.8619 37.6884V39.7203L75.9434 39.0602L76.8619 37.6884Z" fill="#E0E0E0" style="fill:#E0E0E0;fill:color(display-p3 0.8784 0.8784 0.8784);fill-opacity:1;"/>
<path d="M75.1529 36.4739C75.1589 36.5735 75.1893 36.6703 75.2416 36.7565C75.2938 36.8427 75.3666 36.9159 75.4538 36.97C75.6223 37.0606 75.757 36.9873 75.757 36.8039C75.7511 36.7043 75.7205 36.6075 75.6678 36.5216C75.6151 36.4357 75.5417 36.3631 75.4538 36.3099C75.2876 36.2193 75.1529 36.2927 75.1529 36.4739Z" fill="#E0E0E0" style="fill:#E0E0E0;fill:color(display-p3 0.8784 0.8784 0.8784);fill-opacity:1;"/>
<path d="M77.9645 38.0225C77.971 38.122 78.0018 38.2186 78.0544 38.3044C78.1071 38.3902 78.1802 38.4629 78.2677 38.5165C78.4361 38.6071 78.5709 38.5337 78.5709 38.3525C78.565 38.2526 78.5344 38.1556 78.4817 38.0693C78.429 37.983 78.3556 37.91 78.2677 37.8564C78.1105 37.7658 77.9645 37.8391 77.9645 38.0225Z" fill="#E0E0E0" style="fill:#E0E0E0;fill:color(display-p3 0.8784 0.8784 0.8784);fill-opacity:1;"/>
<path d="M76.5587 40.7148L77.585 40.5487C77.585 40.5487 77.3671 41.6014 76.5587 40.7148Z" fill="#E0E0E0" style="fill:#E0E0E0;fill:color(display-p3 0.8784 0.8784 0.8784);fill-opacity:1;"/>
<path d="M67.4186 34.5262C67.4293 34.6965 67.4819 34.8619 67.5721 35.0089C67.6623 35.1559 67.7875 35.2803 67.9374 35.3717C68.2249 35.5292 68.4562 35.4019 68.4562 35.0913C68.4458 34.9206 68.3934 34.7548 68.3032 34.6074C68.213 34.46 68.0876 34.3353 67.9374 34.2436C67.6522 34.0861 67.4186 34.2134 67.4186 34.5262Z" fill="#455A64" style="fill:#455A64;fill:color(display-p3 0.2706 0.3529 0.3922);fill-opacity:1;"/>
<path d="M67.4389 34.7612C67.4194 34.7611 67.4002 34.7566 67.3827 34.7483L64.7238 33.2922C63.1675 32.4467 61.9009 30.3781 61.9009 28.6848C61.9009 27.0583 60.686 25.076 59.1926 24.2628L57.5263 23.3568C57.5004 23.3428 57.4814 23.3194 57.4734 23.2919C57.4654 23.2644 57.4691 23.235 57.4836 23.2101C57.4906 23.1976 57.5002 23.1866 57.5118 23.1777C57.5233 23.1688 57.5366 23.1623 57.5509 23.1584C57.5651 23.1546 57.5801 23.1536 57.5947 23.1554C57.6094 23.1573 57.6236 23.1619 57.6363 23.1692L59.3026 24.0751C60.8589 24.9228 62.1255 26.9893 62.1255 28.6848C62.1255 30.309 63.3404 32.2914 64.8338 33.1046L67.495 34.5541C67.5209 34.5682 67.5399 34.5915 67.5479 34.619C67.5559 34.6465 67.5522 34.6759 67.5377 34.7008C67.5282 34.7183 67.5141 34.7332 67.4967 34.7438C67.4794 34.7544 67.4594 34.7604 67.4389 34.7612Z" fill="#455A64" style="fill:#455A64;fill:color(display-p3 0.2706 0.3529 0.3922);fill-opacity:1;"/>
<path d="M56.8458 22.8391C56.8544 22.9771 56.897 23.1113 56.9699 23.2305C57.0429 23.3497 57.1443 23.4507 57.2657 23.525C57.4903 23.6501 57.6857 23.5488 57.6857 23.2964C57.677 23.1583 57.6345 23.0242 57.5615 22.9049C57.4885 22.7857 57.3871 22.6848 57.2657 22.6104C57.0344 22.4853 56.8458 22.5867 56.8458 22.8391Z" fill="#455A64" style="fill:#455A64;fill:color(display-p3 0.2706 0.3529 0.3922);fill-opacity:1;"/>
<path d="M60.0055 42.6107C60.0055 42.6107 61.6426 42.505 62.5701 44.6901C63.1472 46.049 63.8501 48.1414 64.2993 49.5435C64.4356 49.9669 64.4389 50.4195 64.3086 50.8446C64.1784 51.2697 63.9205 51.6485 63.5672 51.9335L60.7129 54.2351L59.6956 52.4512C60.2888 51.6909 60.9412 50.9749 61.6471 50.3092L59.6956 44.6901L60.0055 42.6107Z" fill="#FFA8A7" style="fill:#FFA8A7;fill:color(display-p3 1.0000 0.6588 0.6549);fill-opacity:1;"/>
<path d="M60.76 49.2845C60.76 49.2845 63.3606 49.6145 64.0096 47.6883C64.0096 47.6883 62.8867 44.869 62.3837 43.9328C61.8807 42.9966 60.8297 42.315 60.0055 42.6105C59.1813 42.9061 60.76 49.2845 60.76 49.2845Z" fill="#0CA999" style="fill:#0CA999;fill:color(display-p3 0.0458 0.6627 0.6019);fill-opacity:1;"/>
<path opacity="0.4" d="M60.76 49.2845C60.76 49.2845 63.3606 49.6145 64.0096 47.6883C64.0096 47.6883 62.8867 44.869 62.3837 43.9328C61.8807 42.9966 60.8297 42.315 60.0055 42.6105C59.1813 42.9061 60.76 49.2845 60.76 49.2845Z" fill="white" style="fill:white;fill-opacity:1;"/>
<path d="M59.0219 74.5784C59.0219 74.5784 57.7868 73.5624 57.3062 73.515C56.8256 73.4675 55.9947 74.257 56.6976 75.6267C56.893 76.0085 57.6879 76.4205 58.1842 77.1518C58.6805 77.883 59.1252 78.4331 59.8865 78.3317C60.6478 78.2303 60.7466 77.8205 60.6972 77.3438C60.6328 76.9076 60.5421 76.4755 60.4255 76.0495L59.0219 74.5784Z" fill="#37474F" style="fill:#37474F;fill:color(display-p3 0.2157 0.2784 0.3098);fill-opacity:1;"/>
<path d="M59.9202 78.1137C59.1364 78.2172 58.676 77.6499 58.164 76.8971C57.652 76.1443 56.8345 75.7172 56.6324 75.3246C56.5515 75.1674 56.4854 75.0035 56.4348 74.835C56.4722 75.111 56.5588 75.3788 56.6908 75.6266C56.8862 76.0084 57.6812 76.4204 58.1775 77.1516C58.6738 77.8829 59.1184 78.4329 59.8797 78.3316C60.4636 78.2561 60.6568 77.9951 60.6927 77.6629C60.5939 77.8872 60.3805 78.0555 59.9202 78.1137Z" fill="#263238" style="fill:#263238;fill:color(display-p3 0.1490 0.1961 0.2196);fill-opacity:1;"/>
<path d="M58.3661 75.8856C58.3462 75.886 58.3267 75.8808 58.3099 75.8705C58.296 75.8635 58.2837 75.8539 58.2737 75.8423C58.2637 75.8306 58.2561 75.8172 58.2515 75.8028C58.2469 75.7883 58.2454 75.7732 58.2469 75.7581C58.2485 75.7431 58.2531 75.7285 58.2605 75.7152C58.5119 75.2875 58.9293 74.9726 59.4216 74.8395C59.4518 74.835 59.4827 74.8418 59.508 74.8583C59.5334 74.8749 59.5512 74.9 59.558 74.9287C59.5649 74.9573 59.5601 74.9874 59.5448 75.0129C59.5295 75.0384 59.5047 75.0573 59.4755 75.066C59.0518 75.1847 58.6922 75.456 58.4716 75.8231C58.4615 75.8417 58.4464 75.8573 58.4278 75.8683C58.4092 75.8793 58.3879 75.8853 58.3661 75.8856Z" fill="#EBEBEB" style="fill:#EBEBEB;fill:color(display-p3 0.9216 0.9216 0.9216);fill-opacity:1;"/>
<path d="M57.899 75.4756C57.8795 75.4755 57.8603 75.471 57.8428 75.4627C57.8289 75.4556 57.8166 75.446 57.8066 75.4344C57.7966 75.4228 57.789 75.4094 57.7844 75.3949C57.7798 75.3805 57.7783 75.3653 57.7798 75.3503C57.7814 75.3353 57.786 75.3207 57.7934 75.3074C57.9178 75.095 58.0845 74.9084 58.2842 74.7581C58.4838 74.6078 58.7123 74.4969 58.9567 74.4316C58.9728 74.4235 58.9907 74.4191 59.0088 74.4187C59.027 74.4183 59.045 74.4219 59.0615 74.4292C59.078 74.4365 59.0926 74.4474 59.104 74.4609C59.1155 74.4745 59.1235 74.4904 59.1276 74.5074C59.1317 74.5244 59.1317 74.5421 59.1275 74.5591C59.1234 74.5761 59.1152 74.5919 59.1037 74.6055C59.0922 74.619 59.0776 74.6298 59.0611 74.637C59.0446 74.6443 59.0265 74.6478 59.0084 74.6473C58.5848 74.7674 58.2254 75.0392 58.0045 75.4066C57.9958 75.4267 57.9812 75.4439 57.9624 75.4562C57.9437 75.4685 57.9216 75.4752 57.899 75.4756Z" fill="#EBEBEB" style="fill:#EBEBEB;fill:color(display-p3 0.9216 0.9216 0.9216);fill-opacity:1;"/>
<path d="M57.3757 75.0681C57.3562 75.068 57.337 75.0635 57.3196 75.0552C57.2913 75.0406 57.2703 75.0158 57.261 74.9863C57.2518 74.9567 57.2551 74.9249 57.2702 74.8977C57.5224 74.4702 57.9407 74.156 58.4335 74.0241C58.4488 74.0206 58.4647 74.0201 58.4803 74.0225C58.4958 74.025 58.5107 74.0303 58.5241 74.0384C58.5375 74.0464 58.5491 74.0569 58.5582 74.0693C58.5673 74.0816 58.5738 74.0956 58.5772 74.1104C58.5839 74.1404 58.578 74.1718 58.5607 74.1976C58.5435 74.2235 58.5163 74.2417 58.4851 74.2484C58.0615 74.3686 57.7022 74.6404 57.4813 75.0077C57.4713 75.0262 57.4561 75.0417 57.4374 75.0523C57.4188 75.063 57.3974 75.0685 57.3757 75.0681Z" fill="#EBEBEB" style="fill:#EBEBEB;fill:color(display-p3 0.9216 0.9216 0.9216);fill-opacity:1;"/>
<path d="M52.4486 77.911C52.4486 77.911 50.7935 77.3954 50.2995 77.5378C49.8054 77.6802 49.3226 78.7889 50.6026 79.8653C50.9575 80.1629 51.9186 80.2579 52.7226 80.7842C53.5266 81.3105 54.2003 81.6751 54.9099 81.276C55.6196 80.8769 55.5612 80.4132 55.4332 79.9214C55.2737 79.2872 55.1435 78.8256 55.1435 78.8256L52.4486 77.911Z" fill="#37474F" style="fill:#37474F;fill:color(display-p3 0.2157 0.2784 0.3098);fill-opacity:1;"/>
<path d="M54.856 81.0451C54.1262 81.4571 53.4277 81.0796 52.6103 80.536C51.7929 79.9925 50.7913 79.8889 50.4252 79.5891C50.2771 79.4653 50.141 79.3289 50.0187 79.1814C50.1738 79.4405 50.3744 79.6718 50.6116 79.8652C50.9664 80.1629 51.9276 80.2578 52.7316 80.7841C53.5355 81.3104 54.2092 81.675 54.9189 81.2759C55.4601 80.9718 55.5409 80.6288 55.4354 80.2944C55.4287 80.5554 55.276 80.8078 54.856 81.0451Z" fill="#263238" style="fill:#263238;fill:color(display-p3 0.1490 0.1961 0.2196);fill-opacity:1;"/>
<path d="M52.0601 79.3797H52.0489C52.0171 79.3764 51.9879 79.3612 51.9677 79.3374C51.9475 79.3136 51.938 79.283 51.9411 79.2524C52.0062 78.7331 52.2832 78.2599 52.7114 77.9366C52.7241 77.9279 52.7384 77.9216 52.7536 77.9181C52.7689 77.9146 52.7846 77.9141 52.8001 77.9165C52.8155 77.9189 52.8303 77.9242 52.8436 77.9321C52.8569 77.94 52.8684 77.9503 52.8776 77.9625C52.8962 77.9875 52.9038 78.0184 52.8987 78.0487C52.8937 78.079 52.8764 78.1062 52.8506 78.1243C52.4805 78.411 52.2393 78.8234 52.1769 79.2762C52.1741 79.3042 52.1607 79.3303 52.1391 79.3494C52.1176 79.3685 52.0895 79.3793 52.0601 79.3797Z" fill="#EBEBEB" style="fill:#EBEBEB;fill:color(display-p3 0.9216 0.9216 0.9216);fill-opacity:1;"/>
<path d="M52.7339 79.5935C52.7025 79.5902 52.6737 79.5753 52.6536 79.552C52.6334 79.5286 52.6236 79.4986 52.6261 79.4684C52.692 78.9488 52.9689 78.4751 53.3964 78.1504C53.4226 78.1328 53.4551 78.1259 53.4866 78.1311C53.5182 78.1364 53.5463 78.1534 53.5648 78.1785C53.5738 78.1908 53.5802 78.2047 53.5837 78.2194C53.5871 78.2341 53.5875 78.2493 53.5847 78.2641C53.582 78.279 53.5763 78.2931 53.5679 78.3058C53.5594 78.3185 53.5485 78.3295 53.5356 78.3381C53.1646 78.6241 52.9231 79.0368 52.8619 79.49C52.859 79.5199 52.844 79.5476 52.82 79.567C52.7961 79.5864 52.7651 79.5959 52.7339 79.5935Z" fill="#EBEBEB" style="fill:#EBEBEB;fill:color(display-p3 0.9216 0.9216 0.9216);fill-opacity:1;"/>
<path d="M51.4224 79.1576H51.4111C51.3797 79.1543 51.3509 79.1394 51.3308 79.116C51.3107 79.0927 51.3008 79.0627 51.3033 79.0325C51.3681 78.5125 51.6452 78.0384 52.0736 77.7145C52.0995 77.6968 52.1317 77.6896 52.1631 77.6947C52.1945 77.6998 52.2225 77.7166 52.2409 77.7415C52.2594 77.7664 52.2668 77.7973 52.2615 77.8274C52.2563 77.8575 52.2388 77.8844 52.2128 77.9022C51.8418 78.1881 51.6004 78.6009 51.5391 79.054C51.5364 79.0821 51.5229 79.1082 51.5014 79.1273C51.4798 79.1464 51.4517 79.1572 51.4224 79.1576Z" fill="#EBEBEB" style="fill:#EBEBEB;fill:color(display-p3 0.9216 0.9216 0.9216);fill-opacity:1;"/>
<path d="M60.504 74.8804C60.6522 73.3057 60.9734 70.838 61.1081 69.684C61.2896 68.2255 61.2457 66.7492 60.9779 65.303C60.909 64.962 60.8916 64.6133 60.9262 64.2676C61.2518 61.1312 61.4629 56.047 61.2833 54.9297L56.6998 55.8615C56.6998 55.8615 57.2612 62.995 57.5082 65.3677C57.7553 67.7405 58.676 74.9019 58.676 74.9019C58.9496 75.0701 59.2685 75.1577 59.5934 75.1539C59.9182 75.15 60.2348 75.055 60.504 74.8804Z" fill="#455A64" style="fill:#455A64;fill:color(display-p3 0.2706 0.3529 0.3922);fill-opacity:1;"/>
<path d="M59.8438 76.5003C59.9704 76.472 60.0886 76.4165 60.1897 76.3381C60.2908 76.2596 60.3722 76.1602 60.4277 76.0473C60.4277 75.7993 60.4569 75.3851 60.504 74.8804C60.2348 75.055 59.9182 75.15 59.5934 75.1539C59.2686 75.1577 58.9497 75.0701 58.676 74.9019L58.8377 76.2264C58.9725 76.3429 59.1332 76.4282 59.3076 76.4756C59.482 76.5231 59.6655 76.5316 59.8438 76.5003Z" fill="#FFA8A7" style="fill:#FFA8A7;fill:color(display-p3 1.0000 0.6588 0.6549);fill-opacity:1;"/>
<path d="M55.3479 77.6498C55.5342 75.2641 55.8958 70.6458 55.943 69.9188C55.9781 69.1169 55.9255 68.3137 55.7858 67.5224C55.7047 67.0945 55.7047 66.656 55.7858 66.2281L57.8069 55.4903L52.2667 55.4126L51.9052 66.6617C51.9012 66.8057 51.9072 66.9498 51.9231 67.0931L53.0976 77.5786C53.0976 77.5786 54.243 78.504 55.3479 77.6498Z" fill="#455A64" style="fill:#455A64;fill:color(display-p3 0.2706 0.3529 0.3922);fill-opacity:1;"/>
<path d="M54.4226 79.6174C54.5949 79.5982 54.7595 79.5381 54.9015 79.4424C55.0434 79.3468 55.1583 79.2186 55.2356 79.0695L55.3479 77.6501C54.243 78.513 53.1022 77.5833 53.1022 77.5833L53.2773 79.1536C53.2773 79.1536 53.5333 79.6972 54.4226 79.6174Z" fill="#FFA8A7" style="fill:#FFA8A7;fill:color(display-p3 1.0000 0.6588 0.6549);fill-opacity:1;"/>
<path d="M54.8268 43.3268L53.5198 43.7582L52.114 50.1453L52.1836 55.8075C52.1836 55.8075 53.1875 56.5776 57.1085 56.5776C59.3093 56.5776 60.7443 55.7795 61.2833 54.9318L60.9307 51.5107C60.9307 51.5107 61.2833 48.1392 61.2833 46.4718C61.2833 44.8044 61.3619 43.4389 60.0055 42.6128L58.7973 42.7099L54.8268 43.3268Z" fill="#0CA999" style="fill:#0CA999;fill:color(display-p3 0.0458 0.6627 0.6019);fill-opacity:1;"/>
<path opacity="0.2" d="M54.8268 43.3268L53.5198 43.7582L52.114 50.1453L52.1836 55.8075C52.1836 55.8075 53.1875 56.5776 57.1085 56.5776C59.3093 56.5776 60.7443 55.7795 61.2833 54.9318L60.9307 51.5107C60.9307 51.5107 61.2833 48.1392 61.2833 46.4718C61.2833 44.8044 61.3619 43.4389 60.0055 42.6128L58.7973 42.7099L54.8268 43.3268Z" fill="white" style="fill:white;fill-opacity:1;"/>
<path d="M53.4076 37.837L52.7541 39.0817C52.7447 39.0997 52.7394 39.1195 52.7386 39.1397C52.7379 39.1599 52.7417 39.18 52.7498 39.1986C52.7579 39.2173 52.7701 39.234 52.7856 39.2477C52.8011 39.2614 52.8194 39.2717 52.8394 39.278L53.6142 39.5282L53.4076 37.837Z" fill="#F28F8F" style="fill:#F28F8F;fill:color(display-p3 0.9490 0.5608 0.5608);fill-opacity:1;"/>
<path d="M54.3058 35.7511C54.3058 35.7511 53.3132 36.2645 53.3132 39.2024C53.3132 40.8224 53.43 41.8556 54.3058 41.7909C55.1817 41.7262 57.7059 41.4091 57.7059 41.4091V35.7511H54.3058Z" fill="#FFA8A7" style="fill:#FFA8A7;fill:color(display-p3 1.0000 0.6588 0.6549);fill-opacity:1;"/>
<path d="M54.3058 41.8017C54.6135 41.7779 55.1255 41.724 55.6533 41.6636V41.3638C55.1716 41.5611 54.6684 41.7058 54.1531 41.7952C54.2038 41.8009 54.2548 41.8031 54.3058 41.8017Z" fill="#F28F8F" style="fill:#F28F8F;fill:color(display-p3 0.9490 0.5608 0.5608);fill-opacity:1;"/>
<path d="M55.5185 41.2389V43.0875H58.1527V40.4904L55.5185 41.2389Z" fill="#FFA8A7" style="fill:#FFA8A7;fill:color(display-p3 1.0000 0.6588 0.6549);fill-opacity:1;"/>
<path d="M55.5186 42.384C55.5186 42.384 56.4663 42.7076 57.2253 42.5803C57.9844 42.4531 58.1528 42.0087 58.1528 42.0087C58.1528 42.0087 58.3998 41.9893 58.7973 42.7076C58.6426 42.976 58.4211 43.2034 58.1528 43.3698C57.8844 43.5361 57.5774 43.6362 57.259 43.661C56.433 43.7118 55.6049 43.598 54.8269 43.3267C54.8269 43.3267 55.2042 42.2913 55.5186 42.384Z" fill="#0CA999" style="fill:#0CA999;fill:color(display-p3 0.0458 0.6627 0.6019);fill-opacity:1;"/>
<path opacity="0.4" d="M55.5186 42.384C55.5186 42.384 56.4663 42.7076 57.2253 42.5803C57.9844 42.4531 58.1528 42.0087 58.1528 42.0087C58.1528 42.0087 58.3998 41.9893 58.7973 42.7076C58.6426 42.976 58.4211 43.2034 58.1528 43.3698C57.8844 43.5361 57.5774 43.6362 57.259 43.661C56.433 43.7118 55.6049 43.598 54.8269 43.3267C54.8269 43.3267 55.2042 42.2913 55.5186 42.384Z" fill="white" style="fill:white;fill-opacity:1;"/>
<path d="M49.6415 47.8718L48.9341 48.9158C48.9341 48.9158 47.2161 48.1803 46.0146 47.7337C45.3151 47.4841 44.6638 47.124 44.0878 46.6682C44.1307 46.2187 44.2058 45.7725 44.3124 45.3329C44.4516 44.8799 44.4988 44.5025 44.0878 44.7031C43.6769 44.9037 43.3917 45.6824 43.367 45.7816C43.367 45.7816 40.9528 43.4498 40.6519 43.5016C40.351 43.5534 40.4273 43.9028 41.0696 44.6211L41.7186 45.3416C41.7186 45.3416 40.2387 46.1591 40.479 47.0521C40.7193 47.9451 42.6708 48.3464 42.6708 48.3464C42.6708 48.3464 48.3816 52.5613 49.646 51.7977C50.9103 51.0341 52.7001 48.8533 52.7001 48.8533L49.6415 47.8718Z" fill="#FFA8A7" style="fill:#FFA8A7;fill:color(display-p3 1.0000 0.6588 0.6549);fill-opacity:1;"/>
<path d="M54.0386 43.592C54.0386 43.592 55.0941 44.4247 54.4069 46.146C53.7197 47.8673 51.9658 49.9467 51.9658 49.9467C51.9658 49.9467 50.1288 49.3967 49.4192 47.9709L51.7367 44.4872C51.9011 44.2392 52.124 44.0318 52.3874 43.8819C52.6507 43.732 52.9471 43.6438 53.2526 43.6244C53.4727 43.6115 53.7332 43.6007 54.0386 43.592Z" fill="#0CA999" style="fill:#0CA999;fill:color(display-p3 0.0458 0.6627 0.6019);fill-opacity:1;"/>
<path opacity="0.4" d="M54.0386 43.592C54.0386 43.592 55.0941 44.4247 54.4069 46.146C53.7197 47.8673 51.9658 49.9467 51.9658 49.9467C51.9658 49.9467 50.1288 49.3967 49.4192 47.9709L51.7367 44.4872C51.9011 44.2392 52.124 44.0318 52.3874 43.8819C52.6507 43.732 52.9471 43.6438 53.2526 43.6244C53.4727 43.6115 53.7332 43.6007 54.0386 43.592Z" fill="white" style="fill:white;fill-opacity:1;"/>
<path d="M53.9353 34.0169C53.9353 34.0169 52.8933 33.8831 52.6283 34.5712C52.4621 35.0026 52.9921 35.3348 52.9921 35.3348C52.9921 35.3348 52.3184 35.941 53.3222 36.1286C53.3049 36.2321 53.3145 36.3381 53.3503 36.4371C53.3861 36.5361 53.4468 36.6251 53.5271 36.696C53.6075 36.767 53.7048 36.8177 53.8105 36.8436C53.9162 36.8696 54.027 36.87 54.1329 36.8448C54.1329 36.8448 54.0161 37.4919 54.8942 37.727C54.8942 37.727 54.445 38.8616 55.2849 38.8767H56.0642L55.7498 39.7525C55.7498 39.7525 56.3337 41.1028 58.1527 41.1028C58.3523 40.6926 58.5773 40.2943 58.8264 39.91C59.051 39.6403 60.1739 38.2577 60.1739 37.1619C60.1739 36.0661 59.736 35.4168 59.1274 35.2723C58.9346 34.8697 58.6339 34.5235 58.256 34.2692C57.6429 33.8723 56.3539 33.5186 55.6263 34.0061C55.6263 34.0061 54.9818 33.1929 54.5349 33.1929C54.088 33.1929 53.9353 33.6351 53.9353 34.0169Z" fill="#263238" style="fill:#263238;fill:color(display-p3 0.1490 0.1961 0.2196);fill-opacity:1;"/>
<path d="M55.285 38.8768C55.285 38.8768 55.2086 37.7271 56.2169 37.7271C57.2253 37.7271 56.9872 39.7525 55.7498 39.7525L55.285 38.8768Z" fill="#FFA8A7" style="fill:#FFA8A7;fill:color(display-p3 1.0000 0.6588 0.6549);fill-opacity:1;"/>
</svg>
