<svg width="30" height="25" viewBox="0 0 30 25" fill="none" xmlns="http://www.w3.org/2000/svg">
<path fill-rule="evenodd" clip-rule="evenodd" d="M2.24401 5.27528L19.7848 0.114067C21.3994 -0.360992 23.059 0.691168 23.4916 2.46419L24.2859 5.71915H22.4058L21.7375 2.98023C21.5645 2.27116 20.9006 1.85023 20.2548 2.04024L2.71402 7.20138C2.06817 7.3914 1.68492 8.12031 1.85794 8.82953L3.97602 17.5097V21.6076C3.32672 21.1796 2.82204 20.4852 2.61056 19.6184L0.103888 9.34565C-0.32876 7.57274 0.629413 5.75034 2.24401 5.27528ZM26.842 7.71558H8.94987C7.20573 7.71558 5.79186 9.27006 5.79186 11.1876V21.528C5.79186 23.4455 7.20573 25 8.94987 25H26.842C28.5861 25 30 23.4455 30 21.528V11.1876C30 9.27006 28.5861 7.71558 26.842 7.71558ZM8.87089 9.71203H26.9209C27.6186 9.71203 28.1841 10.3338 28.1841 11.1009V12.7067H7.60771V11.1009C7.60771 10.3338 8.17325 9.71203 8.87089 9.71203ZM7.60771 16.0269V21.6147C7.60771 22.3818 8.17325 23.0036 8.87089 23.0036H26.9209C27.6186 23.0036 28.1841 22.3818 28.1841 21.6147V16.0269H7.60771Z" fill="#BBBBBB" style="fill:#BBBBBB;fill:color(display-p3 0.7333 0.7333 0.7333);fill-opacity:1;"/>
</svg>
