<svg width="24" height="24" viewBox="0 0 24 24" fill="none" xmlns="http://www.w3.org/2000/svg">
<path d="M11.2 2.40039C11.2 1.84811 10.7523 1.40039 10.2 1.40039C9.64774 1.40039 9.20002 1.84811 9.20002 2.40039H11.2ZM9.20002 21.6004C9.20002 22.1527 9.64774 22.6004 10.2 22.6004C10.7523 22.6004 11.2 22.1527 11.2 21.6004H9.20002ZM6.00002 3.40039H18V1.40039H6.00002V3.40039ZM20.6 6.00039V18.0004H22.6V6.00039H20.6ZM18 20.6004H6.00002V22.6004H18V20.6004ZM3.40002 18.0004V6.00039H1.40002V18.0004H3.40002ZM6.00002 20.6004C4.56408 20.6004 3.40002 19.4363 3.40002 18.0004H1.40002C1.40002 20.5409 3.45951 22.6004 6.00002 22.6004V20.6004ZM20.6 18.0004C20.6 19.4363 19.436 20.6004 18 20.6004V22.6004C20.5405 22.6004 22.6 20.5409 22.6 18.0004H20.6ZM18 3.40039C19.436 3.40039 20.6 4.56445 20.6 6.00039H22.6C22.6 3.45988 20.5405 1.40039 18 1.40039V3.40039ZM6.00002 1.40039C3.45951 1.40039 1.40002 3.45988 1.40002 6.00039H3.40002C3.40002 4.56445 4.56408 3.40039 6.00002 3.40039V1.40039ZM9.20002 2.40039V21.6004H11.2V2.40039H9.20002ZM10.2 13.0004H21V11.0004H10.2V13.0004Z" fill="black" style="fill:black;fill-opacity:1;"/>
</svg>
