<svg width="98" height="97" viewBox="0 0 98 97" fill="none" xmlns="http://www.w3.org/2000/svg">
<path d="M58.5481 90.2846C80.3368 90.2846 98 88.9118 98 87.2184C98 85.5251 80.3368 84.1523 58.5481 84.1523C36.7594 84.1523 19.0961 85.5251 19.0961 87.2184C19.0961 88.9118 36.7594 90.2846 58.5481 90.2846Z" fill="#F5F5F5" style="fill:#F5F5F5;fill:color(display-p3 0.9608 0.9608 0.9608);fill-opacity:1;"/>
<path d="M36.8195 23.0479H32.3267V83.9041H36.8195C39.8213 83.9041 42.7937 83.1171 45.567 81.5879C48.3403 80.0587 50.8602 77.8174 52.9828 74.9919C55.1055 72.1664 56.7892 68.812 57.9379 65.1203C59.0867 61.4286 59.6779 57.4719 59.6779 53.476C59.6779 49.4801 59.0867 45.5233 57.9379 41.8316C56.7892 38.1399 55.1055 34.7856 52.9828 31.96C50.8602 29.1345 48.3403 26.8932 45.567 25.3641C42.7937 23.8349 39.8213 23.0479 36.8195 23.0479Z" fill="#FCB62B" style="fill:#FCB62B;fill:color(display-p3 0.9881 0.7146 0.1677);fill-opacity:1;"/>
<path opacity="0.1" d="M36.8195 23.0479H32.3267V83.9041H36.8195C39.8213 83.9041 42.7937 83.1171 45.567 81.5879C48.3403 80.0587 50.8602 77.8174 52.9828 74.9919C55.1055 72.1664 56.7892 68.812 57.9379 65.1203C59.0867 61.4286 59.6779 57.4719 59.6779 53.476C59.6779 49.4801 59.0867 45.5233 57.9379 41.8316C56.7892 38.1399 55.1055 34.7856 52.9828 31.96C50.8602 29.1345 48.3403 26.8932 45.567 25.3641C42.7937 23.8349 39.8213 23.0479 36.8195 23.0479Z" fill="black" style="fill:black;fill-opacity:1;"/>
<path d="M21.9434 25.6056L21.8518 25.3645C23.4407 24.3107 25.1146 23.5011 26.841 22.9512L26.8878 23.222C25.1773 23.7653 23.5186 24.5649 21.9434 25.6056Z" fill="#FCB62B" style="fill:#FCB62B;fill:color(display-p3 0.9881 0.7146 0.1677);fill-opacity:1;"/>
<path d="M19.3023 27.6608L19.1904 27.436C19.6278 27.046 20.0796 26.6668 20.5333 26.3174L20.635 26.5503C20.1854 26.8997 19.7377 27.2735 19.3023 27.6608Z" fill="#FCB62B" style="fill:#FCB62B;fill:color(display-p3 0.9881 0.7146 0.1677);fill-opacity:1;"/>
<path d="M48.4901 74.9925C57.4169 63.1096 57.4169 43.8435 48.4901 31.9606C39.5634 20.0777 25.0902 20.0777 16.1634 31.9606C7.23659 43.8436 7.23659 63.1096 16.1634 74.9925C25.0902 86.8754 39.5634 86.8754 48.4901 74.9925Z" fill="#FCB62B" style="fill:#FCB62B;fill:color(display-p3 0.9881 0.7146 0.1677);fill-opacity:1;"/>
<path opacity="0.1" d="M46.2751 37.0568C42.7257 32.8681 38.109 30.6407 33.3677 30.8295C28.6264 31.0183 24.118 33.609 20.763 38.0726C17.4079 42.5362 15.4593 48.5362 15.3149 54.8475C15.1705 61.1588 16.8413 67.3055 19.9861 72.0326C18.0858 69.7901 16.5502 67.0538 15.4739 63.9919C14.3975 60.9301 13.8031 57.6075 13.7271 54.2285C13.6512 50.8495 14.0954 47.4856 15.0324 44.3436C15.9693 41.2016 17.3793 38.348 19.1755 35.9583C20.9717 33.5685 23.1162 31.6932 25.477 30.4477C27.8379 29.2021 30.3652 28.6127 32.9036 28.7156C35.4419 28.8185 37.9376 29.6116 40.2372 31.046C42.5367 32.4805 44.5915 34.526 46.2751 37.0568Z" fill="black" style="fill:black;fill-opacity:1;"/>
<path opacity="0.1" d="M41.359 55.6948C40.7771 54.7341 39.8696 54.0561 38.6365 53.6606C39.3429 53.3757 39.9806 52.8489 40.4861 52.133C41.1179 51.1734 41.4569 49.9336 41.4363 48.6579C41.4479 47.8932 41.3352 47.1343 41.1058 46.433C40.8765 45.7317 40.536 45.1048 40.1076 44.595C39.2205 43.5116 37.9501 42.9699 36.2965 42.9699H35.2791V39.1318H33.3543V42.9699H30.9675V39.1318H29.0446V42.9699H24.8632V47.5988H26.3669V61.1878H24.8632V65.8167H29.0446V69.6548H30.9675V65.8167H33.3543V69.6548H35.2791V65.8167H35.5233C36.319 65.7676 37.1123 65.6637 37.8999 65.5052C38.7979 65.3517 39.4694 65.1025 39.9143 64.7577C40.6195 64.2238 41.2052 63.4498 41.6113 62.515C42.026 61.5415 42.2368 60.4377 42.2217 59.3188C42.2285 57.8652 41.9409 56.6572 41.359 55.6948ZM31.7183 47.5988H34.0603C34.8647 47.5988 35.4284 47.7857 35.7512 48.1595C35.9146 48.3548 36.0431 48.5962 36.1272 48.8662C36.2114 49.1362 36.2491 49.4278 36.2375 49.7197C36.2522 50.0244 36.2163 50.3298 36.1322 50.614C36.0482 50.8981 35.9181 51.1541 35.7512 51.3638C35.4284 51.743 34.8525 51.9326 34.0237 51.9326H31.7183V47.5988ZM36.3535 60.275C35.9791 60.7065 35.3354 60.9223 34.4225 60.9223H31.7183V56.2798H34.4103C35.3409 56.2798 35.9906 56.4848 36.3596 56.8947C36.5399 57.0905 36.684 57.339 36.7806 57.6208C36.8773 57.9026 36.924 58.2102 36.9171 58.5198C36.9301 58.8502 36.886 59.1802 36.7883 59.4845C36.6906 59.7887 36.5419 60.0591 36.3535 60.275Z" fill="black" style="fill:black;fill-opacity:1;"/>
<path d="M40.7161 55.6948C40.1341 54.7341 39.2266 54.0561 37.9936 53.6606C38.7003 53.3751 39.3386 52.8485 39.8452 52.133C40.4756 51.1724 40.8138 49.9331 40.7934 48.6579C40.805 47.8932 40.6922 47.1343 40.4629 46.433C40.2336 45.7317 39.893 45.1048 39.4647 44.595C38.5775 43.5116 37.3072 42.9699 35.6536 42.9699H34.6362V39.1318H32.7134V42.9699H30.3246V39.1318H28.4017V42.9699H24.2203V47.5988H25.724V61.1878H24.2203V65.8167H28.4017V69.6548H30.3246V65.8167H32.7134V69.6548H34.6362V65.8167H34.8804C35.6761 65.7676 36.4693 65.6637 37.257 65.5052C38.1536 65.3517 38.8251 65.1025 39.2714 64.7577C39.977 64.2246 40.5628 63.4503 40.9684 62.515C41.3831 61.5415 41.5939 60.4377 41.5788 59.3188C41.5856 57.8652 41.298 56.6572 40.7161 55.6948ZM31.0754 47.5988H33.4174C34.2218 47.5988 34.7854 47.7857 35.1083 48.1595C35.2716 48.3548 35.4001 48.5962 35.4843 48.8662C35.5684 49.1362 35.6061 49.4278 35.5946 49.7197C35.6093 50.0244 35.5733 50.3298 35.4893 50.614C35.4052 50.8981 35.2751 51.1541 35.1083 51.3638C34.7841 51.743 34.2082 51.9326 33.3808 51.9326H31.0754V47.5988ZM35.7106 60.275C35.3362 60.7065 34.6925 60.9223 33.7796 60.9223H31.0754V56.2798H33.7674C34.6966 56.2798 35.3463 56.4848 35.7167 56.8947C35.8973 57.0901 36.0416 57.3385 36.1383 57.6204C36.235 57.9023 36.2815 58.2101 36.2742 58.5198C36.2871 58.8502 36.2431 59.1802 36.1454 59.4845C36.0477 59.7887 35.8989 60.0591 35.7106 60.275Z" fill="white" style="fill:white;fill-opacity:1;"/>
<path d="M54.2045 9.8735C55.3047 9.8735 56.1965 8.70448 56.1965 7.26243C56.1965 5.82038 55.3047 4.65137 54.2045 4.65137C53.1043 4.65137 52.2125 5.82038 52.2125 7.26243C52.2125 8.70448 53.1043 9.8735 54.2045 9.8735Z" fill="#263238" style="fill:#263238;fill:color(display-p3 0.1490 0.1961 0.2196);fill-opacity:1;"/>
<path d="M55.9707 9.45628C55.9735 9.74902 55.9109 10.0363 55.7907 10.2815C55.6706 10.5267 55.4984 10.7189 55.2961 10.8335C55.0937 10.9482 54.8703 10.9801 54.6542 10.9253C54.4382 10.8705 54.2393 10.7314 54.0828 10.5258C53.9262 10.3201 53.8192 10.0571 53.7752 9.77027C53.7313 9.48341 53.7524 9.18564 53.8359 8.91479C53.9194 8.64395 54.0615 8.41228 54.2442 8.24922C54.4268 8.08617 54.6418 7.99909 54.8617 7.99906C55.0064 7.99764 55.15 8.03422 55.2841 8.10671C55.4182 8.1792 55.5402 8.28618 55.6432 8.42153C55.7462 8.55689 55.8282 8.71795 55.8843 8.8955C55.9405 9.07306 55.9699 9.26362 55.9707 9.45628Z" fill="#263238" style="fill:#263238;fill:color(display-p3 0.1490 0.1961 0.2196);fill-opacity:1;"/>
<path d="M56.9433 9.38913C58.0434 9.38913 58.9353 8.22011 58.9353 6.77806C58.9353 5.33601 58.0434 4.16699 56.9433 4.16699C55.8431 4.16699 54.9512 5.33601 54.9512 6.77806C54.9512 8.22011 55.8431 9.38913 56.9433 9.38913Z" fill="#263238" style="fill:#263238;fill:color(display-p3 0.1490 0.1961 0.2196);fill-opacity:1;"/>
<path d="M57.2363 81.6755L58.8702 81.643L59.3402 76.5996L57.7063 76.6321L57.2363 81.6755Z" fill="#FF8B7B" style="fill:#FF8B7B;fill:color(display-p3 1.0000 0.5451 0.4824);fill-opacity:1;"/>
<path d="M67.1822 81.5588L68.6594 80.4104L67.4752 75.7598L66 76.9082L67.1822 81.5588Z" fill="#FF8B7B" style="fill:#FF8B7B;fill:color(display-p3 1.0000 0.5451 0.4824);fill-opacity:1;"/>
<path d="M68.8182 80.2565L67.0866 81.5648C67.0582 81.5854 67.0361 81.6187 67.0242 81.6588C67.0123 81.6988 67.0113 81.7432 67.0215 81.7842L67.4569 83.6802C67.4679 83.7258 67.4864 83.7676 67.5111 83.8024C67.5358 83.8373 67.5661 83.8643 67.5997 83.8814C67.6333 83.8986 67.6693 83.9055 67.7052 83.9016C67.7411 83.8977 67.7758 83.8831 67.8069 83.8589C68.3583 83.4255 68.747 83.0761 69.449 82.5453C69.8803 82.2202 71.209 81.2966 71.8052 80.8443C72.4014 80.3919 72.145 79.5523 71.8703 79.6633C70.6393 80.1725 69.6321 80.3567 69.099 80.205C69.0038 80.1769 68.9041 80.1951 68.8182 80.2565Z" fill="#263238" style="fill:#263238;fill:color(display-p3 0.1490 0.1961 0.2196);fill-opacity:1;"/>
<path d="M58.9027 81.4014L57.1183 81.4393C57.0862 81.4396 57.0551 81.4546 57.0303 81.4817C57.0055 81.5088 56.9884 81.5464 56.9819 81.5883L56.6828 83.5276C56.675 83.5743 56.6754 83.6228 56.6839 83.6694C56.6923 83.7159 56.7087 83.7593 56.7316 83.7961C56.7546 83.833 56.7836 83.8623 56.8164 83.882C56.8492 83.9016 56.8849 83.9111 56.9209 83.9095C57.5639 83.8824 58.4938 83.812 59.3016 83.7957C60.2477 83.7768 61.0657 83.8282 62.1746 83.7957C62.8441 83.7822 63.0191 82.8775 62.7383 82.8017C61.4564 82.455 60.4125 82.436 59.2975 81.553C59.1788 81.4553 59.0423 81.4028 58.9027 81.4014Z" fill="#263238" style="fill:#263238;fill:color(display-p3 0.1490 0.1961 0.2196);fill-opacity:1;"/>
<path d="M61.3934 15.543C61.6213 16.1795 61.8675 16.8675 62.1177 17.5202C62.368 18.173 62.6244 18.842 62.8889 19.4867C63.3967 20.7616 63.9663 21.9911 64.594 23.1676L64.71 23.3816C64.7283 23.4141 64.7283 23.4168 64.7263 23.4222C64.6755 23.3905 64.6212 23.3695 64.5656 23.3599C64.476 23.3464 64.4109 23.387 64.419 23.3978C64.4625 23.388 64.5036 23.3648 64.5391 23.3301C64.7082 23.1749 64.8626 22.993 64.999 22.7884C65.1698 22.5414 65.3301 22.2819 65.4792 22.011C65.7986 21.4531 66.0896 20.8355 66.3887 20.2071C66.6878 19.5787 66.9645 18.9233 67.2352 18.2868L68.3787 18.8799C68.07 20.4329 67.6297 21.934 67.0663 23.3545C66.9102 23.7277 66.739 24.0894 66.5535 24.4379C66.3416 24.8405 66.0913 25.2047 65.8088 25.5214C65.6212 25.7302 65.4114 25.9009 65.1862 26.0279C64.8738 26.2043 64.5312 26.2642 64.1952 26.2012C63.8551 26.1256 63.5367 25.929 63.2735 25.6324C63.1729 25.5185 63.0784 25.3955 62.9907 25.264L62.8401 25.0257C62.4379 24.4093 62.0636 23.7617 61.7189 23.0863C61.371 22.4282 61.0576 21.751 60.7524 21.0712C60.4472 20.3913 60.1644 19.6979 59.8937 18.9964C59.6231 18.2949 59.3688 17.6015 59.1266 16.8295L61.3934 15.543Z" fill="#FF8B7B" style="fill:#FF8B7B;fill:color(display-p3 1.0000 0.5451 0.4824);fill-opacity:1;"/>
<path d="M58.4632 15.5297C58.0237 17.5232 61.1247 22.9593 61.1247 22.9593L64.2501 20.2833C63.6607 18.5597 62.9342 16.9252 62.083 15.4078C60.793 13.222 58.9373 13.3412 58.4632 15.5297Z" fill="#ABEAE4" style="fill:#ABEAE4;fill:color(display-p3 0.6706 0.9176 0.8941);fill-opacity:1;"/>
<path opacity="0.2" d="M60.3597 17.8694C61.0027 18.235 61.9489 20.3071 62.4413 21.8239L61.1085 22.9588C60.3673 21.6396 59.7008 20.249 59.1144 18.7984C59.5397 18.1863 60.0199 17.677 60.3597 17.8694Z" fill="black" style="fill:black;fill-opacity:1;"/>
<path d="M67.2513 19.1284L66.8444 16.6772L68.7021 16.6582C68.7021 16.6582 69.1986 18.5 68.2015 19.3668L67.2513 19.1284Z" fill="#FF8B7B" style="fill:#FF8B7B;fill:color(display-p3 1.0000 0.5451 0.4824);fill-opacity:1;"/>
<path d="M67.0621 14.3809L68.5515 15.0932L68.7082 16.6588L66.8505 16.6777L67.0621 14.3809Z" fill="#FF8B7B" style="fill:#FF8B7B;fill:color(display-p3 1.0000 0.5451 0.4824);fill-opacity:1;"/>
<path opacity="0.2" d="M59.3402 76.5996L59.0981 79.1998L57.4622 79.2351L57.7063 76.6348L59.3402 76.5996Z" fill="black" style="fill:black;fill-opacity:1;"/>
<path opacity="0.2" d="M66 76.9084L67.4772 75.7627L68.0856 78.1598L66.6084 79.3055L66 76.9084Z" fill="black" style="fill:black;fill-opacity:1;"/>
<path d="M51.1727 14.6467C52.9327 22.9051 52.5787 31.6701 52.7374 33.4442C54.0132 33.3223 58.8254 32.8429 61.4482 32.5829C62.2845 20.1587 60.3047 13.8504 60.3047 13.8504C60.3047 13.8504 59.7451 13.7068 58.9821 13.6012C58.744 13.5687 58.4856 13.5416 58.217 13.5226C58.0685 13.5226 57.9179 13.5037 57.7653 13.501C56.5266 13.5291 55.2902 13.6512 54.062 13.8666C53.8301 13.9046 53.594 13.9533 53.3641 14.0021C53.1342 14.0508 52.9449 14.1023 52.7537 14.1537C51.8604 14.3894 51.1727 14.6467 51.1727 14.6467Z" fill="#ABEAE4" style="fill:#ABEAE4;fill:color(display-p3 0.6706 0.9176 0.8941);fill-opacity:1;"/>
<path opacity="0.1" d="M57.3687 22.154L55.9952 23.0478L54.4976 22.3084L54.2514 19.0987L57.1245 18.9443L57.3687 22.154Z" fill="white" style="fill:white;fill-opacity:1;"/>
<path opacity="0.2" d="M53.0325 18.1895C53.1891 18.9885 53.0101 22.6342 52.3834 23.5335C52.2979 22.3661 52.1799 21.1472 52.0334 19.9013L53.0325 18.1895Z" fill="black" style="fill:black;fill-opacity:1;"/>
<path d="M54.1191 8.27051C54.4426 9.83336 54.8374 12.718 54.0621 13.8583C54.758 14.6519 55.6594 15.5566 57.0797 15.4834C58.4999 15.4103 58.1785 14.1292 57.7654 13.4926C56.4143 13.2001 56.3736 11.8837 56.5445 10.6297L54.1191 8.27051Z" fill="#FF8B7B" style="fill:#FF8B7B;fill:color(display-p3 1.0000 0.5451 0.4824);fill-opacity:1;"/>
<path d="M54.0621 13.498C54.0621 13.498 54.4324 14.6654 57.393 15.4509C56.9026 15.9303 56.6788 17.1032 56.6788 17.1032C56.6788 17.1032 52.8127 16.2391 52.9307 13.9477C53.1322 13.731 54.0621 13.498 54.0621 13.498Z" fill="white" style="fill:white;fill-opacity:1;"/>
<path d="M58.6667 16.6671C58.307 16.153 57.8749 15.7379 57.395 15.4456C57.594 15.1767 57.7291 14.8358 57.7834 14.4653C57.8377 14.0949 57.8088 13.7114 57.7002 13.3627C57.9971 13.3498 58.2943 13.3661 58.5894 13.4114C58.5894 13.4114 59.9649 14.8361 58.6667 16.6671Z" fill="white" style="fill:white;fill-opacity:1;"/>
<path opacity="0.4" d="M57.5374 17.0998C57.5639 17.3382 57.6636 17.5143 57.7612 17.4953C57.8589 17.4763 57.9138 17.2678 57.8874 17.0294C57.8609 16.7911 57.7612 16.6123 57.6656 16.6313C57.57 16.6502 57.511 16.8588 57.5374 17.0998Z" fill="#263238" style="fill:#263238;fill:color(display-p3 0.1490 0.1961 0.2196);fill-opacity:1;"/>
<path opacity="0.2" d="M55.106 9.24219L56.5303 10.6371C56.4887 10.9291 56.4669 11.2256 56.4652 11.5228C55.9524 11.4741 55.2138 10.8023 55.1202 10.1008C55.076 9.81818 55.0711 9.52714 55.106 9.24219Z" fill="black" style="fill:black;fill-opacity:1;"/>
<path d="M55.7692 6.32836C57.021 6.32836 58.0359 4.99806 58.0359 3.35705C58.0359 1.71604 57.021 0.385742 55.7692 0.385742C54.5173 0.385742 53.5024 1.71604 53.5024 3.35705C53.5024 4.99806 54.5173 6.32836 55.7692 6.32836Z" fill="#263238" style="fill:#263238;fill:color(display-p3 0.1490 0.1961 0.2196);fill-opacity:1;"/>
<path d="M57.8854 3.73883C57.879 3.73575 57.8738 3.72955 57.8707 3.72148C57.8677 3.71342 57.8671 3.70412 57.8691 3.6955C57.947 3.32284 57.9682 2.93325 57.9315 2.54953C57.8948 2.16582 57.801 1.79572 57.6554 1.46092C57.36 0.776887 56.8738 0.275626 56.3023 0.0660058C56.2959 0.0638507 56.2903 0.0583601 56.2868 0.0507407C56.2834 0.0431214 56.2824 0.0339971 56.284 0.0253768C56.2856 0.0167565 56.2898 0.00934559 56.2955 0.00477398C56.3012 0.000202373 56.3081 -0.00115448 56.3145 0.00100059C56.6042 0.105602 56.8756 0.285295 57.113 0.529777C57.3505 0.77426 57.5493 1.07872 57.6982 1.42571C57.8473 1.7686 57.9435 2.14762 57.9812 2.54062C58.019 2.93361 57.9975 3.33267 57.9179 3.71446C57.9156 3.72306 57.911 3.73026 57.9051 3.73474C57.8991 3.73922 57.8921 3.74067 57.8854 3.73883Z" fill="#263238" style="fill:#263238;fill:color(display-p3 0.1490 0.1961 0.2196);fill-opacity:1;"/>
<path d="M57.6351 6.94003C58.5813 6.94003 59.3484 5.93473 59.3484 4.69463C59.3484 3.45452 58.5813 2.44922 57.6351 2.44922C56.6889 2.44922 55.9219 3.45452 55.9219 4.69463C55.9219 5.93473 56.6889 6.94003 57.6351 6.94003Z" fill="#263238" style="fill:#263238;fill:color(display-p3 0.1490 0.1961 0.2196);fill-opacity:1;"/>
<path d="M53.706 7.39791C54.8061 7.39791 55.698 6.2289 55.698 4.78685C55.698 3.34479 54.8061 2.17578 53.706 2.17578C52.6058 2.17578 51.7139 3.34479 51.7139 4.78685C51.7139 6.2289 52.6058 7.39791 53.706 7.39791Z" fill="#263238" style="fill:#263238;fill:color(display-p3 0.1490 0.1961 0.2196);fill-opacity:1;"/>
<path d="M53.8443 5.90578C54.0641 8.04284 54.1109 9.31045 54.9858 10.3316C56.3043 11.8673 58.2414 10.6864 58.5059 8.50601C58.746 6.54229 58.3472 3.37597 56.7194 2.67715C56.3613 2.52056 55.9789 2.48854 55.6088 2.58416C55.2387 2.67978 54.8932 2.89985 54.605 3.22344C54.3169 3.54703 54.0957 3.96338 53.9625 4.43288C53.8294 4.90238 53.7887 5.40943 53.8443 5.90578Z" fill="#FF8B7B" style="fill:#FF8B7B;fill:color(display-p3 1.0000 0.5451 0.4824);fill-opacity:1;"/>
<path d="M52.9328 4.84071C53.0996 7.84722 58.0888 3.64081 57.0267 2.03733C55.9646 0.433856 54.3347 1.56604 53.7467 2.28923C53.0121 3.19119 52.8921 4.10397 52.9328 4.84071Z" fill="#263238" style="fill:#263238;fill:color(display-p3 0.1490 0.1961 0.2196);fill-opacity:1;"/>
<path d="M56.8171 2.1623C57.7368 1.78852 59.3077 3.97163 57.8996 3.75223C56.4915 3.53284 55.7387 2.6038 56.8171 2.1623Z" fill="#263238" style="fill:#263238;fill:color(display-p3 0.1490 0.1961 0.2196);fill-opacity:1;"/>
<path d="M53.2481 8.34631C53.3676 8.56329 53.5181 8.74675 53.6909 8.88618C53.8637 9.02562 54.0555 9.11829 54.2553 9.15888C54.7905 9.26181 54.9878 8.60092 54.7803 7.97795C54.5951 7.41727 54.0905 6.68866 53.5818 6.87285C53.0731 7.05703 52.9551 7.80731 53.2481 8.34631Z" fill="#FF8B7B" style="fill:#FF8B7B;fill:color(display-p3 1.0000 0.5451 0.4824);fill-opacity:1;"/>
<path d="M59.7044 78.6935L56.9391 78.7503C56.9391 78.7503 58.5364 64.208 58.2882 57.442C58.2129 55.3835 58.4591 52.5043 58.0521 49.4192C57.5353 45.5297 57.2871 43.9804 56.6278 39.067C56.1517 35.5621 55.7305 33.1596 55.7305 33.1596L61.4563 32.5908C61.4563 32.5908 63.3262 50.118 63.2713 56.7513C63.2062 63.6419 59.7044 78.6935 59.7044 78.6935Z" fill="#263238" style="fill:#263238;fill:color(display-p3 0.1490 0.1961 0.2196);fill-opacity:1;"/>
<path d="M53.6083 5.1342C54.532 5.48902 54.9553 8.46033 53.8626 7.2523C52.7699 6.04428 52.5258 4.71978 53.6083 5.1342Z" fill="#263238" style="fill:#263238;fill:color(display-p3 0.1490 0.1961 0.2196);fill-opacity:1;"/>
<path opacity="0.2" d="M58.0562 49.4111C58.2507 51.0227 58.3311 52.655 58.2963 54.2866C58.7724 56.0769 59.1875 57.7725 59.4765 59.2812C59.9831 61.922 60.7848 65.9253 61.5662 69.7742C62.4147 65.2671 63.2408 60.0585 63.2672 56.7378L58.0562 49.4111Z" fill="black" style="fill:black;fill-opacity:1;"/>
<path d="M58.3595 32.8887C58.3595 32.8887 62.4737 46.7295 64.0324 52.7506C65.7416 59.346 68.4987 77.1495 68.4987 77.1495L65.8982 79.1159C65.8982 79.1159 61.843 64.4381 60.1643 58.0134C58.2516 50.7003 52.9836 39.1319 52.7374 33.4466L58.3595 32.8887Z" fill="#263238" style="fill:#263238;fill:color(display-p3 0.1490 0.1961 0.2196);fill-opacity:1;"/>
<path d="M68.8426 76.9892L65.7782 79.3023L65.2593 78.0834L68.6513 75.4209L68.8426 76.9892Z" fill="#ABEAE4" style="fill:#ABEAE4;fill:color(display-p3 0.6706 0.9176 0.8941);fill-opacity:1;"/>
<path d="M60.0524 78.7632L56.7581 78.831L56.7418 77.4144L60.4227 77.2627L60.0524 78.7632Z" fill="#ABEAE4" style="fill:#ABEAE4;fill:color(display-p3 0.6706 0.9176 0.8941);fill-opacity:1;"/>
<path d="M55.9951 6.26341C56.0053 6.43947 56.0826 6.5749 56.1681 6.56406C56.2535 6.55323 56.3146 6.40697 56.3064 6.23362C56.2983 6.06027 56.2189 5.92484 56.1335 5.93296C56.048 5.94109 55.9849 6.10361 55.9951 6.26341Z" fill="#263238" style="fill:#263238;fill:color(display-p3 0.1490 0.1961 0.2196);fill-opacity:1;"/>
<path d="M57.8101 6.1167C57.8101 6.29276 57.8976 6.42548 57.9831 6.41735C58.0685 6.40923 58.1316 6.26025 58.1214 6.08691C58.1112 5.91356 58.0339 5.77542 57.9485 5.78354C57.863 5.79167 57.7999 5.94064 57.8101 6.1167Z" fill="#263238" style="fill:#263238;fill:color(display-p3 0.1490 0.1961 0.2196);fill-opacity:1;"/>
<path d="M57.342 6.25C57.5291 6.76953 57.7687 7.25252 58.0542 7.68555C57.9703 7.77822 57.8722 7.84557 57.7668 7.88298C57.6615 7.92039 57.5512 7.92695 57.4438 7.90223L57.342 6.25Z" fill="#FF5652" style="fill:#FF5652;fill:color(display-p3 1.0000 0.3373 0.3216);fill-opacity:1;"/>
<path d="M56.9066 8.425C56.7589 8.4172 56.614 8.36892 56.481 8.28316C56.3479 8.19741 56.2296 8.07603 56.1334 7.92662C56.1297 7.92138 56.1268 7.91516 56.125 7.90837C56.1233 7.90158 56.1226 7.89436 56.123 7.88718C56.1234 7.88 56.125 7.87303 56.1276 7.8667C56.1302 7.86038 56.1337 7.85485 56.138 7.85047C56.1423 7.84609 56.1472 7.84295 56.1525 7.84127C56.1577 7.83959 56.1632 7.83939 56.1685 7.8407C56.1739 7.842 56.1789 7.84478 56.1834 7.84885C56.1878 7.85292 56.1916 7.85819 56.1944 7.86432C56.3037 8.027 56.4403 8.15319 56.5929 8.2327C56.7456 8.31222 56.9102 8.34283 57.0735 8.32207C57.0784 8.32132 57.0835 8.32194 57.0883 8.32388C57.093 8.32582 57.0975 8.32905 57.1013 8.33337C57.1051 8.33768 57.1082 8.34299 57.1104 8.34897C57.1126 8.35494 57.1139 8.36146 57.1142 8.36812C57.1147 8.37488 57.1143 8.38173 57.1128 8.38826C57.1114 8.39479 57.109 8.40088 57.1058 8.40617C57.1026 8.41146 57.0986 8.41584 57.0941 8.41908C57.0896 8.42231 57.0847 8.42432 57.0796 8.425C57.022 8.43044 56.9642 8.43044 56.9066 8.425Z" fill="#263238" style="fill:#263238;fill:color(display-p3 0.1490 0.1961 0.2196);fill-opacity:1;"/>
<path d="M55.7183 5.67003C55.7052 5.66967 55.6924 5.664 55.6817 5.65378C55.6732 5.64663 55.6658 5.63728 55.66 5.62626C55.6543 5.61525 55.6502 5.60281 55.6481 5.58967C55.646 5.57653 55.6459 5.56297 55.6479 5.54979C55.6498 5.5366 55.6537 5.52407 55.6593 5.51293C55.7239 5.37205 55.8132 5.25411 55.9195 5.1692C56.0258 5.08429 56.146 5.03494 56.2698 5.02539C56.2903 5.02539 56.3099 5.03624 56.3244 5.05554C56.3389 5.07484 56.3471 5.10102 56.3471 5.12832C56.3471 5.15562 56.3389 5.18179 56.3244 5.2011C56.3099 5.2204 56.2903 5.23124 56.2698 5.23124C56.173 5.24178 56.0795 5.28291 55.997 5.35122C55.9145 5.41953 55.8455 5.51304 55.7957 5.62399C55.7875 5.64084 55.7759 5.65418 55.7622 5.66236C55.7484 5.67054 55.7332 5.6732 55.7183 5.67003Z" fill="#263238" style="fill:#263238;fill:color(display-p3 0.1490 0.1961 0.2196);fill-opacity:1;"/>
<path d="M58.4124 5.03363C58.3993 5.03356 58.3865 5.02873 58.3754 5.01965C58.3643 5.01058 58.3552 4.99761 58.3493 4.98216C58.303 4.86825 58.2369 4.77072 58.1566 4.69769C58.0762 4.62466 57.9839 4.57825 57.8874 4.56233C57.8773 4.56165 57.8674 4.55829 57.8584 4.55243C57.8493 4.54657 57.8412 4.53835 57.8345 4.52824C57.8279 4.51813 57.8229 4.50635 57.8197 4.4936C57.8165 4.48085 57.8153 4.46738 57.8162 4.45399C57.8172 4.42717 57.8261 4.40196 57.8409 4.38374C57.8558 4.36552 57.8754 4.35574 57.8955 4.35648C58.0178 4.37487 58.1349 4.43192 58.2372 4.52285C58.3395 4.61379 58.424 4.73599 58.4836 4.87924C58.4933 4.90309 58.4958 4.93103 58.4905 4.95726C58.4852 4.98349 58.4725 5.00599 58.4551 5.02008C58.4424 5.03085 58.4273 5.03562 58.4124 5.03363Z" fill="#263238" style="fill:#263238;fill:color(display-p3 0.1490 0.1961 0.2196);fill-opacity:1;"/>
<path d="M69.4286 80.2321C69.2995 80.3233 69.163 80.3942 69.0216 80.4433C69.0144 80.4462 69.0067 80.4462 68.9994 80.4433C68.9922 80.4404 68.9858 80.4348 68.9809 80.4271C68.977 80.4185 68.9749 80.4087 68.9749 80.3986C68.9749 80.3886 68.977 80.3787 68.9809 80.3702C69.0155 80.2889 69.3146 79.5576 69.5161 79.5576C69.5386 79.5573 69.5608 79.5649 69.5805 79.5796C69.6001 79.5943 69.6165 79.6157 69.628 79.6416C69.6508 79.6827 69.6656 79.7307 69.6709 79.7813C69.6763 79.832 69.672 79.8836 69.6585 79.9314C69.6093 80.0631 69.5284 80.169 69.4286 80.2321ZM69.0989 80.3079C69.3675 80.1887 69.5486 80.037 69.5893 79.8935C69.5982 79.8605 69.6007 79.825 69.5964 79.7904C69.5921 79.7558 69.5813 79.7232 69.5649 79.6958C69.5486 79.6633 69.5344 79.6578 69.5222 79.6578C69.4164 79.666 69.2251 80.0235 69.0989 80.3187V80.3079Z" fill="#ABEAE4" style="fill:#ABEAE4;fill:color(display-p3 0.6706 0.9176 0.8941);fill-opacity:1;"/>
<path d="M69.044 80.4402H69.0236C69.0167 80.4396 69.01 80.4365 69.0043 80.4312C68.9986 80.426 68.994 80.4188 68.9911 80.4104C68.9911 80.386 68.7876 79.8145 68.8731 79.5111C68.8825 79.4738 68.898 79.4397 68.9184 79.4112C68.9388 79.3827 68.9636 79.3604 68.9911 79.3459C69.0163 79.327 69.0456 79.3202 69.0741 79.3266C69.1026 79.333 69.1286 79.3522 69.1478 79.3811C69.2678 79.5707 69.16 80.1937 69.0582 80.4158C69.0559 80.426 69.0508 80.4347 69.044 80.4402ZM69.0053 79.457C68.9908 79.4671 68.978 79.4809 68.9675 79.4976C68.957 79.5143 68.9491 79.5337 68.9443 79.5545C68.9172 79.7997 68.947 80.0502 69.0297 80.2722C69.1132 80.0149 69.16 79.5653 69.0888 79.4597C69.0888 79.4597 69.0684 79.4245 69.0216 79.4597L69.0053 79.457Z" fill="#ABEAE4" style="fill:#ABEAE4;fill:color(display-p3 0.6706 0.9176 0.8941);fill-opacity:1;"/>
<path d="M59.0736 81.6893C59.0667 81.686 59.0606 81.6802 59.0559 81.6725C59.0512 81.6649 59.0482 81.6557 59.0472 81.646C59.0456 81.6356 59.0468 81.6248 59.0505 81.6154C59.0542 81.606 59.0602 81.5987 59.0675 81.5945C59.1408 81.5403 59.7919 81.0853 59.9913 81.2261C60.0101 81.2399 60.0259 81.2598 60.0373 81.284C60.0487 81.3081 60.0553 81.3358 60.0564 81.3643C60.0612 81.4106 60.0574 81.4577 60.0453 81.5016C60.0332 81.5455 60.0133 81.5849 59.9872 81.6162C59.8102 81.8302 59.3422 81.7543 59.0777 81.6893H59.0736ZM59.9405 81.3101C59.8163 81.2559 59.4643 81.4428 59.2059 81.6135C59.5681 81.6866 59.8367 81.6595 59.9364 81.5403C59.9534 81.5192 59.9662 81.4929 59.9737 81.4635C59.9811 81.4342 59.983 81.4029 59.9791 81.3724C59.9798 81.3611 59.9778 81.3498 59.9735 81.3401C59.9691 81.3304 59.9625 81.3227 59.9547 81.3182L59.9405 81.3101Z" fill="#ABEAE4" style="fill:#ABEAE4;fill:color(display-p3 0.6706 0.9176 0.8941);fill-opacity:1;"/>
<path d="M59.0736 81.6885H59.0635C59.0576 81.6838 59.053 81.6769 59.0501 81.6687C59.0472 81.6605 59.0462 81.6514 59.0472 81.6424C59.0472 81.618 59.0858 81.0303 59.2893 80.8001C59.3182 80.7658 59.3521 80.74 59.3889 80.7241C59.4257 80.7082 59.4645 80.7028 59.503 80.708C59.6108 80.708 59.6413 80.7892 59.6495 80.8488C59.682 81.0926 59.2975 81.572 59.1021 81.6939C59.0924 81.6961 59.0825 81.6942 59.0736 81.6885ZM59.5376 80.8109H59.4969C59.4685 80.8074 59.4399 80.8118 59.4129 80.824C59.3859 80.8361 59.3611 80.8556 59.3402 80.8813C59.2218 81.0729 59.1508 81.3084 59.1367 81.5557C59.3402 81.3905 59.5966 81.014 59.5783 80.8678C59.5768 80.8524 59.5713 80.8383 59.5627 80.8279C59.5541 80.8174 59.5431 80.8114 59.5315 80.8109H59.5376Z" fill="#ABEAE4" style="fill:#ABEAE4;fill:color(display-p3 0.6706 0.9176 0.8941);fill-opacity:1;"/>
<path d="M52.9694 17.4798C52.5096 18.742 52.0456 20.0394 51.596 21.3233C51.3701 21.9679 51.1463 22.6099 50.9347 23.2545C50.723 23.8991 50.5114 24.5438 50.312 25.1884C50.2184 25.5107 50.1085 25.8331 50.0292 26.15L49.899 26.624C49.8821 26.665 49.8691 26.7087 49.8603 26.754C49.8395 26.8904 49.8501 27.032 49.8908 27.1603C49.9559 27.3839 50.0428 27.5952 50.1492 27.7887C50.6457 28.6987 51.5105 29.5871 52.3305 30.3483L51.8401 31.8353C51.557 31.7262 51.2785 31.5969 51.0059 31.4479C50.7336 31.3025 50.4674 31.138 50.2083 30.955C49.6503 30.5793 49.1368 30.0965 48.6842 29.5221C48.4212 29.185 48.197 28.798 48.0189 28.3737C47.8025 27.8583 47.6857 27.2793 47.679 26.689C47.676 26.3726 47.7061 26.0571 47.7686 25.7518L47.8886 25.1938C47.966 24.8228 48.0555 24.4707 48.1409 24.1104C48.5031 22.6884 48.9101 21.3152 49.3476 19.9636C49.785 18.612 50.2551 17.2983 50.7719 15.9766L52.9694 17.4798Z" fill="#FF8B7B" style="fill:#FF8B7B;fill:color(display-p3 1.0000 0.5451 0.4824);fill-opacity:1;"/>
<path d="M51.1747 14.6458C49.6832 15.2688 48.2182 21.9942 48.2182 21.9942L51.6651 24.0012C51.6651 24.0012 52.7822 20.751 53.4231 18.2049C54.121 15.4286 52.9795 13.8928 51.1747 14.6458Z" fill="#ABEAE4" style="fill:#ABEAE4;fill:color(display-p3 0.6706 0.9176 0.8941);fill-opacity:1;"/>
<path d="M51.7485 30.166L53.4007 30.3827L52.7293 32.8204C52.7293 32.8204 51.2439 32.3816 51.2622 31.3036L51.7485 30.166Z" fill="#FF8B7B" style="fill:#FF8B7B;fill:color(display-p3 1.0000 0.5451 0.4824);fill-opacity:1;"/>
<path d="M54.8251 31.4771L53.9522 33.4923L52.7171 32.8314L53.3906 30.3828L54.8251 31.4771Z" fill="#FF8B7B" style="fill:#FF8B7B;fill:color(display-p3 1.0000 0.5451 0.4824);fill-opacity:1;"/>
<path d="M56.1254 7.3306C55.9025 7.33275 55.6841 7.24673 55.498 7.08346C55.3119 6.92018 55.1664 6.68701 55.08 6.41351C54.9936 6.14001 54.9701 5.83851 55.0126 5.54725C55.0551 5.25598 55.1617 4.98808 55.3187 4.77752C55.4757 4.56696 55.6762 4.42322 55.8947 4.36455C56.1132 4.30587 56.3398 4.33489 56.5459 4.44793C56.752 4.56097 56.9282 4.75294 57.0522 4.99949C57.1762 5.24604 57.2424 5.53606 57.2424 5.83276C57.2419 6.22793 57.1243 6.60687 56.9152 6.88731C56.706 7.16775 56.4222 7.32704 56.1254 7.3306ZM56.1254 4.47035C55.9241 4.47035 55.7274 4.54978 55.5601 4.69859C55.3928 4.8474 55.2624 5.05891 55.1854 5.30637C55.1084 5.55384 55.0883 5.82614 55.1275 6.08885C55.1668 6.35155 55.2637 6.59286 55.406 6.78226C55.5483 6.97167 55.7295 7.10065 55.9269 7.1529C56.1242 7.20516 56.3288 7.17834 56.5147 7.07584C56.7006 6.97333 56.8595 6.79975 56.9713 6.57704C57.0831 6.35433 57.1427 6.09249 57.1427 5.82464C57.1411 5.46687 57.0332 5.12448 56.8426 4.87226C56.652 4.62004 56.3941 4.47847 56.1254 4.47848V4.47035Z" fill="white" style="fill:white;fill-opacity:1;"/>
<path d="M58.571 7.33065C58.3485 7.33065 58.1309 7.2428 57.9459 7.07821C57.7608 6.91363 57.6166 6.6797 57.5315 6.406C57.4463 6.13231 57.424 5.83114 57.4674 5.54059C57.5108 5.25004 57.618 4.98315 57.7754 4.77367C57.9327 4.56419 58.1332 4.42154 58.3515 4.36374C58.5698 4.30595 58.796 4.33561 59.0016 4.44898C59.2072 4.56235 59.383 4.75433 59.5066 5.00065C59.6302 5.24697 59.6962 5.53656 59.6962 5.8328C59.6957 6.22984 59.577 6.6104 59.3661 6.89115C59.1552 7.17189 58.8693 7.32993 58.571 7.33065ZM58.571 4.47039C58.3698 4.47039 58.1731 4.54982 58.0058 4.69863C57.8385 4.84744 57.7081 5.05895 57.6311 5.30641C57.5541 5.55388 57.5339 5.82618 57.5732 6.08889C57.6124 6.35159 57.7093 6.5929 57.8516 6.78231C57.9939 6.97171 58.1752 7.10069 58.3725 7.15294C58.5699 7.2052 58.7745 7.17838 58.9604 7.07588C59.1463 6.97337 59.3051 6.79979 59.4169 6.57708C59.5287 6.35437 59.5884 6.09253 59.5884 5.82468C59.5868 5.46691 59.4789 5.12452 59.2883 4.8723C59.0976 4.62008 58.8398 4.47851 58.571 4.47852V4.47039Z" fill="white" style="fill:white;fill-opacity:1;"/>
</svg>
